%TF.GenerationSoftware,KiCad,Pcbnew,9.0.4*%
%TF.CreationDate,2025-09-25T14:32:01+05:45*%
%TF.ProjectId,micro_mouse_prashant,6d696372-6f5f-46d6-9f75-73655f707261,rev?*%
%TF.SameCoordinates,Original*%
%TF.FileFunction,Copper,L2,Bot*%
%TF.FilePolarity,Positive*%
%FSLAX46Y46*%
G04 Gerber Fmt 4.6, Leading zero omitted, Abs format (unit mm)*
G04 Created by KiCad (PCBNEW 9.0.4) date 2025-09-25 14:32:01*
%MOMM*%
%LPD*%
G01*
G04 APERTURE LIST*
G04 Aperture macros list*
%AMRoundRect*
0 Rectangle with rounded corners*
0 $1 Rounding radius*
0 $2 $3 $4 $5 $6 $7 $8 $9 X,Y pos of 4 corners*
0 Add a 4 corners polygon primitive as box body*
4,1,4,$2,$3,$4,$5,$6,$7,$8,$9,$2,$3,0*
0 Add four circle primitives for the rounded corners*
1,1,$1+$1,$2,$3*
1,1,$1+$1,$4,$5*
1,1,$1+$1,$6,$7*
1,1,$1+$1,$8,$9*
0 Add four rect primitives between the rounded corners*
20,1,$1+$1,$2,$3,$4,$5,0*
20,1,$1+$1,$4,$5,$6,$7,0*
20,1,$1+$1,$6,$7,$8,$9,0*
20,1,$1+$1,$8,$9,$2,$3,0*%
G04 Aperture macros list end*
%TA.AperFunction,ComponentPad*%
%ADD10O,2.000000X3.000000*%
%TD*%
%TA.AperFunction,ComponentPad*%
%ADD11RoundRect,0.250000X-0.550000X-0.550000X0.550000X-0.550000X0.550000X0.550000X-0.550000X0.550000X0*%
%TD*%
%TA.AperFunction,ComponentPad*%
%ADD12C,1.600000*%
%TD*%
%TA.AperFunction,ComponentPad*%
%ADD13R,1.700000X1.700000*%
%TD*%
%TA.AperFunction,ComponentPad*%
%ADD14C,1.700000*%
%TD*%
%TA.AperFunction,ComponentPad*%
%ADD15C,2.000000*%
%TD*%
%TA.AperFunction,ComponentPad*%
%ADD16O,3.000000X2.000000*%
%TD*%
%TA.AperFunction,ComponentPad*%
%ADD17R,1.800000X1.800000*%
%TD*%
%TA.AperFunction,ComponentPad*%
%ADD18R,1.905000X2.000000*%
%TD*%
%TA.AperFunction,ComponentPad*%
%ADD19O,1.905000X2.000000*%
%TD*%
%TA.AperFunction,ViaPad*%
%ADD20C,2.000000*%
%TD*%
%TA.AperFunction,Conductor*%
%ADD21C,0.400000*%
%TD*%
%TA.AperFunction,Conductor*%
%ADD22C,1.000000*%
%TD*%
%TA.AperFunction,Conductor*%
%ADD23C,0.700000*%
%TD*%
%TA.AperFunction,Conductor*%
%ADD24C,0.300000*%
%TD*%
G04 APERTURE END LIST*
D10*
%TO.P,J7,1,Pin_1*%
%TO.N,GND*%
X139750000Y-86790000D03*
%TO.P,J7,2,Pin_2*%
%TO.N,+3V3*%
X142290000Y-86790000D03*
%TO.P,J7,3,Pin_3*%
%TO.N,/A7*%
X144830000Y-86790000D03*
%TO.P,J7,4,Pin_4*%
%TO.N,/A6*%
X147370000Y-86790000D03*
%TO.P,J7,5,Pin_5*%
%TO.N,/A5*%
X149910000Y-86790000D03*
%TO.P,J7,6,Pin_6*%
%TO.N,/A4*%
X152450000Y-86790000D03*
%TO.P,J7,7,Pin_7*%
%TO.N,/A3*%
X154990000Y-86790000D03*
%TO.P,J7,8,Pin_8*%
%TO.N,/A2*%
X157530000Y-86790000D03*
%TO.P,J7,9,Pin_9*%
%TO.N,/A1*%
X160070000Y-86790000D03*
%TO.P,J7,10,Pin_10*%
%TO.N,/A0*%
X162610000Y-86790000D03*
%TO.P,J7,11,Pin_11*%
%TO.N,+3V3*%
X165150000Y-86790000D03*
%TD*%
D11*
%TO.P,U1,1,EN1\u002C2*%
%TO.N,/PWMA*%
X149500000Y-113540000D03*
D12*
%TO.P,U1,2,1A*%
%TO.N,/AIN2*%
X149500000Y-116080000D03*
%TO.P,U1,3,1Y*%
%TO.N,/MR1*%
X149500000Y-118620000D03*
%TO.P,U1,4,GND*%
%TO.N,GND*%
X149500000Y-121160000D03*
%TO.P,U1,5,GND*%
X149500000Y-123700000D03*
%TO.P,U1,6,2Y*%
%TO.N,/MR2*%
X149500000Y-126240000D03*
%TO.P,U1,7,2A*%
%TO.N,/AIN1*%
X149500000Y-128780000D03*
%TO.P,U1,8,VCC2*%
%TO.N,+7.5V*%
X149500000Y-131320000D03*
%TO.P,U1,9,EN3\u002C4*%
%TO.N,/PWMB*%
X157120000Y-131320000D03*
%TO.P,U1,10,3A*%
%TO.N,/BIN1*%
X157120000Y-128780000D03*
%TO.P,U1,11,3Y*%
%TO.N,/ML1*%
X157120000Y-126240000D03*
%TO.P,U1,12,GND*%
%TO.N,GND*%
X157120000Y-123700000D03*
%TO.P,U1,13,GND*%
X157120000Y-121160000D03*
%TO.P,U1,14,4Y*%
%TO.N,/ML2*%
X157120000Y-118620000D03*
%TO.P,U1,15,4A*%
%TO.N,/BIN2*%
X157120000Y-116080000D03*
%TO.P,U1,16,VCC1*%
%TO.N,+5V*%
X157120000Y-113540000D03*
%TD*%
D13*
%TO.P,J5,1,Pin_1*%
%TO.N,+7.5V*%
X138500000Y-131525000D03*
D14*
%TO.P,J5,2,Pin_2*%
%TO.N,/3.7V*%
X138500000Y-134065000D03*
%TD*%
D15*
%TO.P,SW3,1,1*%
%TO.N,GND*%
X166550000Y-142790000D03*
X166550000Y-136290000D03*
D16*
%TO.P,SW3,2,2*%
%TO.N,/SW3*%
X171050000Y-142790000D03*
X171050000Y-136290000D03*
%TD*%
D10*
%TO.P,A1,1,D1/TX*%
%TO.N,unconnected-(A1-D1{slash}TX-Pad1)*%
X135250000Y-106140000D03*
%TO.P,A1,2,D0/RX*%
%TO.N,unconnected-(A1-D0{slash}RX-Pad2)*%
X137790000Y-106140000D03*
%TO.P,A1,3,~{RESET}*%
%TO.N,unconnected-(A1-~{RESET}-Pad3)*%
X140330000Y-106140000D03*
%TO.P,A1,4,GND*%
%TO.N,GND*%
X142870000Y-106140000D03*
%TO.P,A1,5,D2*%
%TO.N,/D2*%
X145410000Y-106140000D03*
%TO.P,A1,6,D3*%
%TO.N,/PWMA*%
X147950000Y-106140000D03*
%TO.P,A1,7,D4*%
%TO.N,/AIN2*%
X150490000Y-106140000D03*
%TO.P,A1,8,D5*%
%TO.N,/AIN1*%
X153030000Y-106140000D03*
%TO.P,A1,9,D6*%
%TO.N,/PWMB*%
X155570000Y-106140000D03*
%TO.P,A1,10,D7*%
%TO.N,/LED*%
X158110000Y-106140000D03*
%TO.P,A1,11,D8*%
%TO.N,/BIN1*%
X160650000Y-106140000D03*
%TO.P,A1,12,D9*%
%TO.N,/BIN2*%
X163190000Y-106140000D03*
%TO.P,A1,13,D10*%
%TO.N,/SW1*%
X165730000Y-106140000D03*
%TO.P,A1,14,D11*%
%TO.N,/SW2*%
X168270000Y-106140000D03*
%TO.P,A1,15,D12*%
%TO.N,/SW3*%
X170810000Y-106140000D03*
%TO.P,A1,16,D13*%
%TO.N,/D13*%
X170810000Y-90900000D03*
%TO.P,A1,17,3V3*%
%TO.N,+3V3*%
X168270000Y-90900000D03*
%TO.P,A1,18,AREF*%
%TO.N,unconnected-(A1-AREF-Pad18)*%
X165730000Y-90900000D03*
%TO.P,A1,19,A0*%
%TO.N,/A0*%
X163190000Y-90900000D03*
%TO.P,A1,20,A1*%
%TO.N,/A1*%
X160650000Y-90900000D03*
%TO.P,A1,21,A2*%
%TO.N,/A2*%
X158110000Y-90900000D03*
%TO.P,A1,22,A3*%
%TO.N,/A3*%
X155570000Y-90900000D03*
%TO.P,A1,23,A4*%
%TO.N,/A4*%
X153030000Y-90900000D03*
%TO.P,A1,24,A5*%
%TO.N,/A5*%
X150490000Y-90900000D03*
%TO.P,A1,25,A6*%
%TO.N,/A6*%
X147950000Y-90900000D03*
%TO.P,A1,26,A7*%
%TO.N,/A7*%
X145410000Y-90900000D03*
%TO.P,A1,27,+5V*%
%TO.N,unconnected-(A1-+5V-Pad27)*%
X142870000Y-90900000D03*
%TO.P,A1,28,~{RESET}*%
%TO.N,unconnected-(A1-~{RESET}-Pad28)*%
X140330000Y-90900000D03*
%TO.P,A1,29,GND*%
%TO.N,GND*%
X137790000Y-90900000D03*
%TO.P,A1,30,VIN*%
%TO.N,+7.5V*%
X135250000Y-90900000D03*
%TD*%
D13*
%TO.P,J6,1,Pin_1*%
%TO.N,/3.7V*%
X138500000Y-137765000D03*
D14*
%TO.P,J6,2,Pin_2*%
%TO.N,GND*%
X138500000Y-140305000D03*
%TD*%
D12*
%TO.P,C4,1*%
%TO.N,+5V*%
X162000000Y-113790000D03*
%TO.P,C4,2*%
%TO.N,GND*%
X162000000Y-116290000D03*
%TD*%
D15*
%TO.P,SW2,1,1*%
%TO.N,GND*%
X158000000Y-142790000D03*
X158000000Y-136290000D03*
D16*
%TO.P,SW2,2,2*%
%TO.N,/SW2*%
X162500000Y-142790000D03*
X162500000Y-136290000D03*
%TD*%
D10*
%TO.P,R1,1*%
%TO.N,/LED*%
X173850000Y-100540000D03*
%TO.P,R1,2*%
%TO.N,Net-(D1-A)*%
X173850000Y-108160000D03*
%TD*%
D12*
%TO.P,C1,1*%
%TO.N,+7.5V*%
X135250000Y-114290000D03*
%TO.P,C1,2*%
%TO.N,GND*%
X137750000Y-114290000D03*
%TD*%
D15*
%TO.P,SW1,1,1*%
%TO.N,GND*%
X149450000Y-142790000D03*
X149450000Y-136290000D03*
D16*
%TO.P,SW1,2,2*%
%TO.N,/SW1*%
X153950000Y-142790000D03*
X153950000Y-136290000D03*
%TD*%
D17*
%TO.P,D1,1,K*%
%TO.N,GND*%
X173950000Y-113310000D03*
D16*
%TO.P,D1,2,A*%
%TO.N,Net-(D1-A)*%
X173950000Y-110770000D03*
%TD*%
D12*
%TO.P,R2,1*%
%TO.N,/SW2*%
X173060000Y-124040000D03*
%TO.P,R2,2*%
%TO.N,+5V*%
X165440000Y-124040000D03*
%TD*%
%TO.P,R4,1*%
%TO.N,/SW1*%
X173010000Y-121040000D03*
%TO.P,R4,2*%
%TO.N,+5V*%
X165390000Y-121040000D03*
%TD*%
%TO.P,R3,1*%
%TO.N,/SW3*%
X173150000Y-127040000D03*
%TO.P,R3,2*%
%TO.N,+5V*%
X165530000Y-127040000D03*
%TD*%
%TO.P,C3,1*%
%TO.N,GND*%
X144000000Y-134190000D03*
%TO.P,C3,2*%
%TO.N,+7.5V*%
X144000000Y-131690000D03*
%TD*%
D13*
%TO.P,J3,1,Pin_1*%
%TO.N,/ML2*%
X162000000Y-121250000D03*
D14*
%TO.P,J3,2,Pin_2*%
%TO.N,/ML1*%
X162000000Y-123790000D03*
%TD*%
D13*
%TO.P,J1,1,Pin_1*%
%TO.N,/D2*%
X141500000Y-110240000D03*
%TD*%
D10*
%TO.P,J2,1,Pin_1*%
%TO.N,/D13*%
X167750000Y-86750000D03*
%TD*%
D18*
%TO.P,U2,1,VI*%
%TO.N,+7.5V*%
X134500000Y-122000000D03*
D19*
%TO.P,U2,2,GND*%
%TO.N,GND*%
X137040000Y-122000000D03*
%TO.P,U2,3,VO*%
%TO.N,+5V*%
X139580000Y-122000000D03*
%TD*%
D13*
%TO.P,Rmotor,1,Pin_1*%
%TO.N,/MR2*%
X144500000Y-126500000D03*
D14*
%TO.P,Rmotor,2,Pin_2*%
%TO.N,/MR1*%
X144500000Y-123960000D03*
%TD*%
D20*
%TO.N,GND*%
X143750000Y-140190000D03*
X175000000Y-141940000D03*
X143750000Y-143190000D03*
X142750000Y-99250000D03*
X159500000Y-122440000D03*
X140000000Y-126690000D03*
X152750000Y-99250000D03*
X175000000Y-139440000D03*
X147000000Y-121750000D03*
X161500000Y-129690000D03*
X173750000Y-132190000D03*
X133500000Y-87440000D03*
%TD*%
D21*
%TO.N,/SW1*%
X168500000Y-125500000D02*
X172960000Y-121040000D01*
X168500000Y-127190000D02*
X168500000Y-125500000D01*
X161650000Y-134040000D02*
X168500000Y-127190000D01*
X156200000Y-134040000D02*
X161650000Y-134040000D01*
X172960000Y-121040000D02*
X173010000Y-121040000D01*
X153950000Y-136290000D02*
X156200000Y-134040000D01*
%TO.N,/D2*%
X145410000Y-108340000D02*
X145410000Y-106140000D01*
X143510000Y-110240000D02*
X145410000Y-108340000D01*
X141500000Y-110240000D02*
X143510000Y-110240000D01*
D22*
%TO.N,+7.5V*%
X132410000Y-111410000D02*
X135250000Y-114250000D01*
X132410000Y-93640000D02*
X132410000Y-111410000D01*
X135250000Y-114250000D02*
X135250000Y-114290000D01*
X135050000Y-91000000D02*
X132410000Y-93640000D01*
X135150000Y-91000000D02*
X135050000Y-91000000D01*
X135250000Y-90900000D02*
X135150000Y-91000000D01*
%TO.N,/MR1*%
X144500000Y-123710000D02*
X144500000Y-123960000D01*
X144750000Y-123460000D02*
X144500000Y-123710000D01*
X144750000Y-120440000D02*
X144750000Y-123460000D01*
X149500000Y-118620000D02*
X146570000Y-118620000D01*
%TO.N,/MR2*%
X149500000Y-126240000D02*
X149240000Y-126500000D01*
X149240000Y-126500000D02*
X144500000Y-126500000D01*
%TO.N,/MR1*%
X146570000Y-118620000D02*
X144750000Y-120440000D01*
%TO.N,+7.5V*%
X134750000Y-122250000D02*
X134500000Y-122000000D01*
X134750000Y-127540000D02*
X134750000Y-122250000D01*
X138500000Y-131525000D02*
X138500000Y-131290000D01*
X134500000Y-122000000D02*
X135000000Y-121500000D01*
X135000000Y-121500000D02*
X135000000Y-114540000D01*
X138500000Y-131290000D02*
X134750000Y-127540000D01*
X135000000Y-114540000D02*
X135250000Y-114290000D01*
D21*
%TO.N,/A7*%
X144750000Y-86870000D02*
X144750000Y-89440000D01*
X144830000Y-86790000D02*
X144750000Y-86870000D01*
X145410000Y-90100000D02*
X145410000Y-90900000D01*
X144750000Y-89440000D02*
X145410000Y-90100000D01*
%TO.N,/A5*%
X150490000Y-89680000D02*
X150490000Y-90900000D01*
X149750000Y-86950000D02*
X149750000Y-88940000D01*
X149750000Y-88940000D02*
X150490000Y-89680000D01*
X149910000Y-86790000D02*
X149750000Y-86950000D01*
D22*
%TO.N,+7.5V*%
X149280000Y-131540000D02*
X149500000Y-131320000D01*
X138500000Y-131525000D02*
X143985000Y-131525000D01*
X144000000Y-131540000D02*
X144000000Y-131690000D01*
X143985000Y-131525000D02*
X144000000Y-131540000D01*
X144150000Y-131540000D02*
X149280000Y-131540000D01*
X144000000Y-131690000D02*
X144150000Y-131540000D01*
D21*
%TO.N,/A0*%
X162610000Y-86790000D02*
X162750000Y-86930000D01*
X162750000Y-89440000D02*
X163190000Y-89880000D01*
X162750000Y-86930000D02*
X162750000Y-89440000D01*
X163190000Y-89880000D02*
X163190000Y-90900000D01*
D23*
%TO.N,/D13*%
X168000000Y-86750000D02*
X167750000Y-86750000D01*
X170810000Y-89560000D02*
X168000000Y-86750000D01*
X170810000Y-90900000D02*
X170810000Y-89560000D01*
D21*
%TO.N,/A3*%
X155570000Y-90010000D02*
X155570000Y-90900000D01*
X154490000Y-87290000D02*
X154490000Y-88930000D01*
X154490000Y-88930000D02*
X155570000Y-90010000D01*
X154990000Y-86790000D02*
X154490000Y-87290000D01*
%TO.N,/A2*%
X157530000Y-88970000D02*
X157530000Y-86790000D01*
X158110000Y-90900000D02*
X158110000Y-89550000D01*
X158110000Y-89550000D02*
X157530000Y-88970000D01*
%TO.N,/A6*%
X147370000Y-86790000D02*
X147370000Y-88620000D01*
X147950000Y-89200000D02*
X147950000Y-90900000D01*
X147370000Y-88620000D02*
X147950000Y-89200000D01*
%TO.N,/A1*%
X160000000Y-89190000D02*
X160650000Y-89840000D01*
X160000000Y-86860000D02*
X160000000Y-89190000D01*
X160650000Y-89840000D02*
X160650000Y-90900000D01*
X160070000Y-86790000D02*
X160000000Y-86860000D01*
%TO.N,/A4*%
X153030000Y-89720000D02*
X152450000Y-89140000D01*
X153030000Y-90900000D02*
X153030000Y-89720000D01*
X152450000Y-89140000D02*
X152450000Y-86790000D01*
D23*
%TO.N,+5V*%
X165530000Y-115970000D02*
X165530000Y-127040000D01*
X163350000Y-113790000D02*
X165530000Y-115970000D01*
X162000000Y-113790000D02*
X157370000Y-113790000D01*
X162000000Y-113790000D02*
X163350000Y-113790000D01*
X157370000Y-113790000D02*
X157120000Y-113540000D01*
D21*
%TO.N,Net-(D1-A)*%
X173850000Y-110350000D02*
X173850000Y-108160000D01*
X173950000Y-110450000D02*
X173850000Y-110350000D01*
X173950000Y-110770000D02*
X173950000Y-110450000D01*
D22*
%TO.N,/ML2*%
X160430000Y-118620000D02*
X162000000Y-120190000D01*
X157120000Y-118620000D02*
X160430000Y-118620000D01*
X162000000Y-120190000D02*
X162000000Y-121250000D01*
%TO.N,/ML1*%
X157120000Y-126240000D02*
X161200000Y-126240000D01*
X162000000Y-125440000D02*
X162000000Y-123790000D01*
X161200000Y-126240000D02*
X162000000Y-125440000D01*
D23*
%TO.N,+3V3*%
X168270000Y-90270000D02*
X168270000Y-90900000D01*
X165150000Y-85190000D02*
X165150000Y-86790000D01*
X143250000Y-84290000D02*
X164250000Y-84290000D01*
X142290000Y-86790000D02*
X142290000Y-85250000D01*
X164250000Y-84290000D02*
X165150000Y-85190000D01*
X165150000Y-87150000D02*
X168270000Y-90270000D01*
X142290000Y-85250000D02*
X143250000Y-84290000D01*
X165150000Y-86790000D02*
X165150000Y-87150000D01*
D22*
%TO.N,/3.7V*%
X138500000Y-137540000D02*
X138500000Y-134065000D01*
D21*
%TO.N,/LED*%
X161560000Y-100330000D02*
X173640000Y-100330000D01*
X158110000Y-103780000D02*
X161560000Y-100330000D01*
X158110000Y-106140000D02*
X158110000Y-103780000D01*
X173640000Y-100330000D02*
X173850000Y-100540000D01*
%TO.N,/SW2*%
X174750000Y-119690000D02*
X174750000Y-122690000D01*
X162500000Y-136290000D02*
X162500000Y-142790000D01*
X168270000Y-106140000D02*
X168270000Y-113210000D01*
D24*
X162500000Y-134690000D02*
X162500000Y-136290000D01*
D21*
X168270000Y-113210000D02*
X174750000Y-119690000D01*
X173400000Y-124040000D02*
X172650000Y-124040000D01*
X174750000Y-122690000D02*
X173400000Y-124040000D01*
D24*
X173060000Y-124040000D02*
X173060000Y-124130000D01*
X173060000Y-124130000D02*
X162500000Y-134690000D01*
D21*
%TO.N,/SW3*%
X172150000Y-127350000D02*
X171000000Y-128500000D01*
X171000000Y-136240000D02*
X171050000Y-136290000D01*
X170810000Y-107880000D02*
X170000000Y-108690000D01*
X170000000Y-108690000D02*
X170000000Y-113190000D01*
X172840000Y-127350000D02*
X173150000Y-127040000D01*
X171050000Y-136290000D02*
X171050000Y-142790000D01*
X170000000Y-113190000D02*
X175750000Y-118940000D01*
X172150000Y-127350000D02*
X172840000Y-127350000D01*
X170810000Y-106140000D02*
X170810000Y-107880000D01*
X175750000Y-124440000D02*
X173150000Y-127040000D01*
X175750000Y-118940000D02*
X175750000Y-124440000D01*
X171000000Y-128500000D02*
X171000000Y-136240000D01*
%TO.N,/SW1*%
X165730000Y-112670000D02*
X173010000Y-119950000D01*
X153950000Y-136290000D02*
X153950000Y-142790000D01*
X165730000Y-106140000D02*
X165730000Y-112670000D01*
X173010000Y-119950000D02*
X173010000Y-121040000D01*
%TO.N,/BIN2*%
X160250000Y-110440000D02*
X156750000Y-110440000D01*
X163190000Y-107500000D02*
X160250000Y-110440000D01*
X163190000Y-106140000D02*
X163190000Y-107500000D01*
X155250000Y-115440000D02*
X155750000Y-115940000D01*
X156980000Y-115940000D02*
X157120000Y-116080000D01*
X155750000Y-115940000D02*
X156980000Y-115940000D01*
X156750000Y-110440000D02*
X155250000Y-111940000D01*
X155250000Y-111940000D02*
X155250000Y-115440000D01*
%TO.N,/BIN1*%
X156250000Y-108940000D02*
X159000000Y-108940000D01*
X154250000Y-110940000D02*
X156250000Y-108940000D01*
X154250000Y-125910000D02*
X154250000Y-110940000D01*
X159000000Y-108940000D02*
X160650000Y-107290000D01*
X160650000Y-107290000D02*
X160650000Y-106140000D01*
X157120000Y-128780000D02*
X154250000Y-125910000D01*
%TO.N,/PWMA*%
X147950000Y-111990000D02*
X149500000Y-113540000D01*
X147950000Y-106140000D02*
X147950000Y-111990000D01*
%TO.N,/AIN1*%
X152000000Y-109940000D02*
X152051000Y-109991000D01*
X152051000Y-109991000D02*
X152051000Y-126229000D01*
X153030000Y-106140000D02*
X153030000Y-108910000D01*
X152051000Y-126229000D02*
X149500000Y-128780000D01*
X153030000Y-108910000D02*
X152000000Y-109940000D01*
%TO.N,/AIN2*%
X151250000Y-110440000D02*
X151250000Y-115440000D01*
X150490000Y-109680000D02*
X151250000Y-110440000D01*
X150490000Y-106140000D02*
X150490000Y-109680000D01*
X151250000Y-115440000D02*
X150610000Y-116080000D01*
X150610000Y-116080000D02*
X149500000Y-116080000D01*
%TO.N,/PWMB*%
X153000000Y-110440000D02*
X153000000Y-129440000D01*
X155570000Y-107870000D02*
X153000000Y-110440000D01*
X154880000Y-131320000D02*
X157120000Y-131320000D01*
X155570000Y-106140000D02*
X155570000Y-107870000D01*
X153000000Y-129440000D02*
X154880000Y-131320000D01*
%TD*%
%TA.AperFunction,Conductor*%
%TO.N,GND*%
G36*
X177454081Y-83461264D02*
G01*
X177500142Y-83513801D01*
X177511645Y-83564955D01*
X177778137Y-116198878D01*
X177777457Y-116212902D01*
X177777196Y-116215366D01*
X177778745Y-116275796D01*
X177778774Y-116276936D01*
X177779277Y-116338384D01*
X177780459Y-116342658D01*
X177780574Y-116347105D01*
X177797715Y-116405090D01*
X177798035Y-116406172D01*
X177814423Y-116465396D01*
X177816675Y-116469225D01*
X177817935Y-116473485D01*
X177833902Y-116499573D01*
X177849481Y-116525027D01*
X177850593Y-116526881D01*
X177881243Y-116578979D01*
X177882741Y-116580899D01*
X177884607Y-116583289D01*
X177884608Y-116583292D01*
X177884636Y-116583327D01*
X177884875Y-116583633D01*
X177885186Y-116583976D01*
X177886728Y-116585883D01*
X177886731Y-116585887D01*
X177886734Y-116585890D01*
X177886735Y-116585891D01*
X177912197Y-116610080D01*
X177931344Y-116628269D01*
X177975189Y-116671404D01*
X177979053Y-116673593D01*
X177987869Y-116681968D01*
X178093077Y-116781916D01*
X178128123Y-116842361D01*
X178131671Y-116872275D01*
X178039104Y-141865593D01*
X178019171Y-141932559D01*
X177966198Y-141978118D01*
X177915378Y-141989134D01*
X177802635Y-141989382D01*
X177791965Y-141989405D01*
X177769467Y-141985556D01*
X177726338Y-141989548D01*
X177720739Y-141989561D01*
X177720739Y-141989562D01*
X177683007Y-141989645D01*
X177671261Y-141992820D01*
X177660967Y-141995602D01*
X177638243Y-141997707D01*
X177597610Y-142012728D01*
X177592220Y-142014186D01*
X177592217Y-142014185D01*
X177555790Y-142024033D01*
X177555787Y-142024034D01*
X177545268Y-142030138D01*
X177545267Y-142030137D01*
X177536034Y-142035494D01*
X177514637Y-142043406D01*
X177479285Y-142068425D01*
X177474446Y-142071234D01*
X177474444Y-142071236D01*
X177441809Y-142090173D01*
X177436807Y-142095197D01*
X177433222Y-142098797D01*
X177416996Y-142112513D01*
X177407070Y-142119538D01*
X177407069Y-142119539D01*
X177382956Y-142148572D01*
X177379383Y-142152873D01*
X177348826Y-142183567D01*
X177337461Y-142203349D01*
X177330648Y-142211553D01*
X177330643Y-142211561D01*
X174479374Y-145644724D01*
X174421399Y-145683720D01*
X174383982Y-145689500D01*
X135008676Y-145689500D01*
X134941637Y-145669815D01*
X134920995Y-145653181D01*
X131939761Y-142671947D01*
X147950000Y-142671947D01*
X147950000Y-142908052D01*
X147986934Y-143141247D01*
X148059897Y-143365802D01*
X148167087Y-143576174D01*
X148227338Y-143659104D01*
X148227340Y-143659105D01*
X148926212Y-142960233D01*
X148937482Y-143002292D01*
X149009890Y-143127708D01*
X149112292Y-143230110D01*
X149237708Y-143302518D01*
X149279765Y-143313787D01*
X148580893Y-144012658D01*
X148663828Y-144072914D01*
X148874197Y-144180102D01*
X149098752Y-144253065D01*
X149098751Y-144253065D01*
X149331948Y-144290000D01*
X149568052Y-144290000D01*
X149801247Y-144253065D01*
X150025802Y-144180102D01*
X150236163Y-144072918D01*
X150236169Y-144072914D01*
X150319104Y-144012658D01*
X150319105Y-144012658D01*
X149620233Y-143313787D01*
X149662292Y-143302518D01*
X149787708Y-143230110D01*
X149890110Y-143127708D01*
X149962518Y-143002292D01*
X149973787Y-142960233D01*
X150672658Y-143659105D01*
X150672658Y-143659104D01*
X150732914Y-143576169D01*
X150732918Y-143576163D01*
X150840102Y-143365802D01*
X150913065Y-143141247D01*
X150950000Y-142908052D01*
X150950000Y-142671947D01*
X150913065Y-142438752D01*
X150840102Y-142214197D01*
X150732914Y-142003828D01*
X150672658Y-141920894D01*
X150672658Y-141920893D01*
X149973787Y-142619765D01*
X149962518Y-142577708D01*
X149890110Y-142452292D01*
X149787708Y-142349890D01*
X149662292Y-142277482D01*
X149620234Y-142266212D01*
X150319105Y-141567340D01*
X150319104Y-141567338D01*
X150236174Y-141507087D01*
X150025802Y-141399897D01*
X149801247Y-141326934D01*
X149801248Y-141326934D01*
X149568052Y-141290000D01*
X149331948Y-141290000D01*
X149098752Y-141326934D01*
X148874197Y-141399897D01*
X148663830Y-141507084D01*
X148580894Y-141567340D01*
X149279766Y-142266212D01*
X149237708Y-142277482D01*
X149112292Y-142349890D01*
X149009890Y-142452292D01*
X148937482Y-142577708D01*
X148926212Y-142619766D01*
X148227340Y-141920894D01*
X148167084Y-142003830D01*
X148059897Y-142214197D01*
X147986934Y-142438752D01*
X147950000Y-142671947D01*
X131939761Y-142671947D01*
X131307316Y-142039502D01*
X131307314Y-142039500D01*
X131245532Y-142003830D01*
X131201298Y-141978291D01*
X131153083Y-141927723D01*
X131139307Y-141872290D01*
X130851872Y-116096177D01*
X130856142Y-116080033D01*
X130855496Y-116065007D01*
X130865746Y-116043716D01*
X130868765Y-116032302D01*
X130873325Y-116024487D01*
X130874142Y-116023671D01*
X130905965Y-115968552D01*
X130905967Y-115968549D01*
X130906223Y-115968112D01*
X130938400Y-115913486D01*
X130938993Y-115912056D01*
X130939004Y-115912029D01*
X130940028Y-115909553D01*
X130940035Y-115909543D01*
X130956436Y-115848327D01*
X130956680Y-115847437D01*
X130970145Y-115798882D01*
X130973550Y-115786605D01*
X130973550Y-115786595D01*
X130973935Y-115783860D01*
X130973935Y-115783859D01*
X130974143Y-115782379D01*
X130974143Y-115719021D01*
X130974148Y-115717941D01*
X130976119Y-115491584D01*
X130983182Y-114680544D01*
X131003449Y-114613683D01*
X131056650Y-114568389D01*
X131125892Y-114559048D01*
X131189193Y-114588626D01*
X131218086Y-114626173D01*
X131249999Y-114689999D01*
X131250000Y-114689999D01*
X131250000Y-114690000D01*
X131500000Y-113690000D01*
X131063224Y-113471612D01*
X131012068Y-113424026D01*
X130994686Y-113359627D01*
X131175785Y-92565750D01*
X131196052Y-92498889D01*
X131249253Y-92453595D01*
X131318495Y-92444254D01*
X131381796Y-92473832D01*
X131410689Y-92511379D01*
X131640999Y-92972000D01*
X131665415Y-93020830D01*
X131677790Y-93089596D01*
X131657609Y-93145175D01*
X131611985Y-93213456D01*
X131578046Y-93295393D01*
X131544106Y-93377329D01*
X131544103Y-93377341D01*
X131509500Y-93551303D01*
X131509500Y-111498696D01*
X131544103Y-111672659D01*
X131544106Y-111672669D01*
X131558831Y-111708216D01*
X131558832Y-111708219D01*
X131611983Y-111836540D01*
X131611990Y-111836552D01*
X131613123Y-111838247D01*
X131661697Y-111910943D01*
X131685952Y-111947243D01*
X131710537Y-111984038D01*
X131710538Y-111984039D01*
X134013181Y-114286680D01*
X134046666Y-114348003D01*
X134049500Y-114374361D01*
X134049500Y-114384486D01*
X134079059Y-114571114D01*
X134079059Y-114571115D01*
X134093431Y-114615347D01*
X134099500Y-114653665D01*
X134099500Y-120475500D01*
X134079815Y-120542539D01*
X134027011Y-120588294D01*
X133975500Y-120599500D01*
X133515982Y-120599500D01*
X133435019Y-120612323D01*
X133422196Y-120614354D01*
X133309158Y-120671950D01*
X133309157Y-120671951D01*
X133309152Y-120671954D01*
X133219454Y-120761652D01*
X133219451Y-120761657D01*
X133161852Y-120874698D01*
X133147000Y-120968475D01*
X133147000Y-123031517D01*
X133155142Y-123082925D01*
X133161854Y-123125304D01*
X133219450Y-123238342D01*
X133219452Y-123238344D01*
X133219454Y-123238347D01*
X133309152Y-123328045D01*
X133309154Y-123328046D01*
X133309158Y-123328050D01*
X133410958Y-123379920D01*
X133422198Y-123385647D01*
X133515975Y-123400499D01*
X133515981Y-123400500D01*
X133725500Y-123400499D01*
X133792539Y-123420183D01*
X133838294Y-123472987D01*
X133849500Y-123524499D01*
X133849500Y-127628696D01*
X133884103Y-127802658D01*
X133884105Y-127802666D01*
X133892144Y-127822075D01*
X133918046Y-127884606D01*
X133951987Y-127966547D01*
X133987356Y-128019480D01*
X134034975Y-128090747D01*
X134050537Y-128114038D01*
X134050538Y-128114039D01*
X137213181Y-131276681D01*
X137246666Y-131338004D01*
X137249500Y-131364362D01*
X137249500Y-132406517D01*
X137255844Y-132446569D01*
X137264354Y-132500304D01*
X137321950Y-132613342D01*
X137321952Y-132613344D01*
X137321954Y-132613347D01*
X137411652Y-132703045D01*
X137411654Y-132703046D01*
X137411658Y-132703050D01*
X137524694Y-132760645D01*
X137524698Y-132760647D01*
X137618475Y-132775499D01*
X137618481Y-132775500D01*
X137765735Y-132775499D01*
X137832772Y-132795183D01*
X137878527Y-132847987D01*
X137888471Y-132917145D01*
X137859446Y-132980701D01*
X137838619Y-132999816D01*
X137685360Y-133111167D01*
X137685351Y-133111174D01*
X137546174Y-133250351D01*
X137546174Y-133250352D01*
X137546172Y-133250354D01*
X137496485Y-133318741D01*
X137430476Y-133409594D01*
X137341117Y-133584970D01*
X137280290Y-133772173D01*
X137249500Y-133966577D01*
X137249500Y-134163422D01*
X137280290Y-134357826D01*
X137341117Y-134545029D01*
X137408268Y-134676819D01*
X137430476Y-134720405D01*
X137546172Y-134879646D01*
X137546174Y-134879648D01*
X137563181Y-134896655D01*
X137596666Y-134957978D01*
X137599500Y-134984336D01*
X137599500Y-136415252D01*
X137579815Y-136482291D01*
X137531795Y-136525737D01*
X137524696Y-136529353D01*
X137524696Y-136529354D01*
X137411658Y-136586950D01*
X137411657Y-136586951D01*
X137411652Y-136586954D01*
X137321954Y-136676652D01*
X137321951Y-136676657D01*
X137264352Y-136789698D01*
X137249500Y-136883475D01*
X137249500Y-138646517D01*
X137260292Y-138714657D01*
X137264354Y-138740304D01*
X137321950Y-138853342D01*
X137321952Y-138853344D01*
X137321954Y-138853347D01*
X137411652Y-138943045D01*
X137411654Y-138943046D01*
X137411658Y-138943050D01*
X137524694Y-139000645D01*
X137524698Y-139000647D01*
X137618477Y-139015500D01*
X137623331Y-139015882D01*
X137623236Y-139017087D01*
X137684867Y-139035168D01*
X137730634Y-139087961D01*
X137741470Y-139149229D01*
X137738282Y-139189728D01*
X138370591Y-139822037D01*
X138307007Y-139839075D01*
X138192993Y-139904901D01*
X138099901Y-139997993D01*
X138034075Y-140112007D01*
X138017037Y-140175591D01*
X137384728Y-139543282D01*
X137384727Y-139543282D01*
X137345380Y-139597439D01*
X137248904Y-139786782D01*
X137183242Y-139988869D01*
X137183242Y-139988872D01*
X137150000Y-140198753D01*
X137150000Y-140411246D01*
X137183242Y-140621127D01*
X137183242Y-140621130D01*
X137248904Y-140823217D01*
X137345375Y-141012550D01*
X137384728Y-141066716D01*
X138017037Y-140434408D01*
X138034075Y-140497993D01*
X138099901Y-140612007D01*
X138192993Y-140705099D01*
X138307007Y-140770925D01*
X138370590Y-140787962D01*
X137738282Y-141420269D01*
X137738282Y-141420270D01*
X137792449Y-141459624D01*
X137981782Y-141556095D01*
X138183870Y-141621757D01*
X138393754Y-141655000D01*
X138606246Y-141655000D01*
X138816127Y-141621757D01*
X138816130Y-141621757D01*
X139018217Y-141556095D01*
X139120236Y-141504114D01*
X139207554Y-141459622D01*
X139261716Y-141420270D01*
X139261717Y-141420270D01*
X138629408Y-140787962D01*
X138692993Y-140770925D01*
X138807007Y-140705099D01*
X138900099Y-140612007D01*
X138965925Y-140497993D01*
X138982962Y-140434408D01*
X139615270Y-141066717D01*
X139615270Y-141066716D01*
X139654622Y-141012554D01*
X139751095Y-140823217D01*
X139816757Y-140621130D01*
X139816757Y-140621127D01*
X139850000Y-140411246D01*
X139850000Y-140198753D01*
X139816757Y-139988872D01*
X139816757Y-139988869D01*
X139751095Y-139786782D01*
X139654624Y-139597449D01*
X139615270Y-139543282D01*
X139615269Y-139543282D01*
X138982962Y-140175590D01*
X138965925Y-140112007D01*
X138900099Y-139997993D01*
X138807007Y-139904901D01*
X138692993Y-139839075D01*
X138629409Y-139822037D01*
X139261716Y-139189728D01*
X139258529Y-139149229D01*
X139272893Y-139080851D01*
X139321944Y-139031094D01*
X139376746Y-139016897D01*
X139376667Y-139015881D01*
X139381510Y-139015499D01*
X139381518Y-139015499D01*
X139475304Y-139000646D01*
X139588342Y-138943050D01*
X139678050Y-138853342D01*
X139735646Y-138740304D01*
X139735646Y-138740302D01*
X139735647Y-138740301D01*
X139750499Y-138646524D01*
X139750500Y-138646519D01*
X139750499Y-136883482D01*
X139735646Y-136789696D01*
X139678050Y-136676658D01*
X139678046Y-136676654D01*
X139678045Y-136676652D01*
X139588347Y-136586954D01*
X139588344Y-136586952D01*
X139588342Y-136586950D01*
X139475304Y-136529354D01*
X139475303Y-136529353D01*
X139468205Y-136525737D01*
X139457140Y-136515287D01*
X139443297Y-136508965D01*
X139432255Y-136491784D01*
X139417409Y-136477762D01*
X139413167Y-136462082D01*
X139405523Y-136450187D01*
X139400500Y-136415252D01*
X139400500Y-136171947D01*
X147950000Y-136171947D01*
X147950000Y-136408052D01*
X147986934Y-136641247D01*
X148059897Y-136865802D01*
X148167087Y-137076174D01*
X148227338Y-137159104D01*
X148227340Y-137159105D01*
X148926212Y-136460233D01*
X148937482Y-136502292D01*
X149009890Y-136627708D01*
X149112292Y-136730110D01*
X149237708Y-136802518D01*
X149279765Y-136813787D01*
X148580893Y-137512658D01*
X148663828Y-137572914D01*
X148874197Y-137680102D01*
X149098752Y-137753065D01*
X149098751Y-137753065D01*
X149331948Y-137790000D01*
X149568052Y-137790000D01*
X149801247Y-137753065D01*
X150025802Y-137680102D01*
X150236163Y-137572918D01*
X150236169Y-137572914D01*
X150319104Y-137512658D01*
X150319105Y-137512658D01*
X149620233Y-136813787D01*
X149662292Y-136802518D01*
X149787708Y-136730110D01*
X149890110Y-136627708D01*
X149962518Y-136502292D01*
X149973787Y-136460233D01*
X150672658Y-137159105D01*
X150672658Y-137159104D01*
X150732914Y-137076169D01*
X150732918Y-137076163D01*
X150840102Y-136865802D01*
X150913065Y-136641247D01*
X150950000Y-136408052D01*
X150950000Y-136171947D01*
X150913065Y-135938752D01*
X150840102Y-135714197D01*
X150732914Y-135503828D01*
X150672658Y-135420894D01*
X150672658Y-135420893D01*
X149973787Y-136119765D01*
X149962518Y-136077708D01*
X149890110Y-135952292D01*
X149787708Y-135849890D01*
X149662292Y-135777482D01*
X149620234Y-135766212D01*
X150319105Y-135067340D01*
X150319104Y-135067338D01*
X150236174Y-135007087D01*
X150025802Y-134899897D01*
X149801247Y-134826934D01*
X149801248Y-134826934D01*
X149568052Y-134790000D01*
X149331948Y-134790000D01*
X149098752Y-134826934D01*
X148874197Y-134899897D01*
X148663830Y-135007084D01*
X148580894Y-135067340D01*
X149279766Y-135766212D01*
X149237708Y-135777482D01*
X149112292Y-135849890D01*
X149009890Y-135952292D01*
X148937482Y-136077708D01*
X148926212Y-136119766D01*
X148227340Y-135420894D01*
X148167084Y-135503830D01*
X148059897Y-135714197D01*
X147986934Y-135938752D01*
X147950000Y-136171947D01*
X139400500Y-136171947D01*
X139400500Y-134984336D01*
X139420185Y-134917297D01*
X139436819Y-134896655D01*
X139443974Y-134889500D01*
X139453828Y-134879646D01*
X139569524Y-134720405D01*
X139658884Y-134545025D01*
X139719709Y-134357826D01*
X139721836Y-134344394D01*
X139750500Y-134163422D01*
X139750500Y-133966577D01*
X139719709Y-133772173D01*
X139658882Y-133584970D01*
X139584761Y-133439500D01*
X139569524Y-133409595D01*
X139453828Y-133250354D01*
X139314646Y-133111172D01*
X139161377Y-132999815D01*
X139118714Y-132944487D01*
X139112735Y-132874873D01*
X139145341Y-132813078D01*
X139206180Y-132778721D01*
X139234264Y-132775499D01*
X139381518Y-132775499D01*
X139475304Y-132760646D01*
X139588342Y-132703050D01*
X139678050Y-132613342D01*
X139735646Y-132500304D01*
X139735646Y-132500303D01*
X139739263Y-132493205D01*
X139787238Y-132442409D01*
X139849748Y-132425500D01*
X142987368Y-132425500D01*
X143054407Y-132445185D01*
X143081654Y-132468964D01*
X143084307Y-132472070D01*
X143084310Y-132472073D01*
X143217927Y-132605690D01*
X143370801Y-132716760D01*
X143456932Y-132760646D01*
X143482511Y-132773679D01*
X143533307Y-132821654D01*
X143550102Y-132889475D01*
X143527565Y-132955609D01*
X143482511Y-132994649D01*
X143318644Y-133078143D01*
X143274077Y-133110523D01*
X143274077Y-133110524D01*
X143953554Y-133790000D01*
X143947339Y-133790000D01*
X143845606Y-133817259D01*
X143754394Y-133869920D01*
X143679920Y-133944394D01*
X143627259Y-134035606D01*
X143600000Y-134137339D01*
X143600000Y-134143553D01*
X142920524Y-133464077D01*
X142920523Y-133464077D01*
X142888143Y-133508644D01*
X142795244Y-133690968D01*
X142732009Y-133885582D01*
X142700000Y-134087682D01*
X142700000Y-134292317D01*
X142732009Y-134494417D01*
X142795244Y-134689031D01*
X142888141Y-134871350D01*
X142888147Y-134871359D01*
X142920523Y-134915921D01*
X142920524Y-134915922D01*
X143600000Y-134236446D01*
X143600000Y-134242661D01*
X143627259Y-134344394D01*
X143679920Y-134435606D01*
X143754394Y-134510080D01*
X143845606Y-134562741D01*
X143947339Y-134590000D01*
X143953553Y-134590000D01*
X143274076Y-135269474D01*
X143318650Y-135301859D01*
X143500968Y-135394755D01*
X143695582Y-135457990D01*
X143897683Y-135490000D01*
X144102317Y-135490000D01*
X144304417Y-135457990D01*
X144499031Y-135394755D01*
X144681349Y-135301859D01*
X144725921Y-135269474D01*
X144725922Y-135269474D01*
X144658728Y-135202280D01*
X144046447Y-134590000D01*
X144052661Y-134590000D01*
X144154394Y-134562741D01*
X144245606Y-134510080D01*
X144320080Y-134435606D01*
X144372741Y-134344394D01*
X144400000Y-134242661D01*
X144400000Y-134236447D01*
X145079474Y-134915921D01*
X145111859Y-134871349D01*
X145204755Y-134689031D01*
X145267990Y-134494417D01*
X145300000Y-134292317D01*
X145300000Y-134087682D01*
X145267990Y-133885582D01*
X145204755Y-133690968D01*
X145111859Y-133508650D01*
X145079474Y-133464077D01*
X145079474Y-133464076D01*
X144400000Y-134143551D01*
X144400000Y-134137339D01*
X144372741Y-134035606D01*
X144320080Y-133944394D01*
X144245606Y-133869920D01*
X144154394Y-133817259D01*
X144052661Y-133790000D01*
X144046446Y-133790000D01*
X144725922Y-133110524D01*
X144725921Y-133110523D01*
X144681359Y-133078147D01*
X144681350Y-133078141D01*
X144517488Y-132994649D01*
X144466692Y-132946674D01*
X144449897Y-132878853D01*
X144472434Y-132812718D01*
X144517489Y-132773679D01*
X144629197Y-132716761D01*
X144629196Y-132716761D01*
X144629199Y-132716760D01*
X144782073Y-132605690D01*
X144910944Y-132476819D01*
X144972267Y-132443334D01*
X144998625Y-132440500D01*
X149044005Y-132440500D01*
X149082323Y-132446569D01*
X149218882Y-132490940D01*
X149278005Y-132500304D01*
X149405514Y-132520500D01*
X149405519Y-132520500D01*
X149594486Y-132520500D01*
X149781118Y-132490940D01*
X149960832Y-132432547D01*
X150129199Y-132346760D01*
X150282073Y-132235690D01*
X150415690Y-132102073D01*
X150526760Y-131949199D01*
X150612547Y-131780832D01*
X150670940Y-131601118D01*
X150700500Y-131414486D01*
X150700500Y-131225513D01*
X150670940Y-131038881D01*
X150612545Y-130859163D01*
X150541383Y-130719500D01*
X150526760Y-130690801D01*
X150415690Y-130537927D01*
X150282073Y-130404310D01*
X150129199Y-130293240D01*
X150092420Y-130274500D01*
X149960836Y-130207454D01*
X149886472Y-130183291D01*
X149839195Y-130167930D01*
X149781521Y-130128493D01*
X149754323Y-130064134D01*
X149766238Y-129995288D01*
X149813482Y-129943812D01*
X149839194Y-129932069D01*
X149960832Y-129892547D01*
X150129199Y-129806760D01*
X150282073Y-129695690D01*
X150415690Y-129562073D01*
X150526760Y-129409199D01*
X150612547Y-129240832D01*
X150670940Y-129061118D01*
X150684143Y-128977757D01*
X150700500Y-128874486D01*
X150700500Y-128685513D01*
X150675274Y-128526246D01*
X150684228Y-128456953D01*
X150710063Y-128419170D01*
X152187820Y-126941413D01*
X152249142Y-126907930D01*
X152318834Y-126912914D01*
X152374767Y-126954786D01*
X152399184Y-127020250D01*
X152399500Y-127029096D01*
X152399500Y-129353330D01*
X152399499Y-129353348D01*
X152399499Y-129519054D01*
X152399498Y-129519054D01*
X152440423Y-129671786D01*
X152454223Y-129695686D01*
X152454224Y-129695691D01*
X152454226Y-129695691D01*
X152519479Y-129808714D01*
X152519481Y-129808717D01*
X152638349Y-129927585D01*
X152638355Y-129927590D01*
X154395139Y-131684374D01*
X154395149Y-131684385D01*
X154399479Y-131688715D01*
X154399480Y-131688716D01*
X154511284Y-131800520D01*
X154511286Y-131800521D01*
X154511290Y-131800524D01*
X154648209Y-131879573D01*
X154648216Y-131879577D01*
X154760019Y-131909534D01*
X154800942Y-131920500D01*
X154800943Y-131920500D01*
X156009208Y-131920500D01*
X156076247Y-131940185D01*
X156109524Y-131971612D01*
X156204310Y-132102073D01*
X156337927Y-132235690D01*
X156490801Y-132346760D01*
X156570347Y-132387290D01*
X156659163Y-132432545D01*
X156659165Y-132432545D01*
X156659168Y-132432547D01*
X156755497Y-132463846D01*
X156838881Y-132490940D01*
X157025514Y-132520500D01*
X157025519Y-132520500D01*
X157214486Y-132520500D01*
X157401118Y-132490940D01*
X157580832Y-132432547D01*
X157749199Y-132346760D01*
X157902073Y-132235690D01*
X158035690Y-132102073D01*
X158146760Y-131949199D01*
X158232547Y-131780832D01*
X158290940Y-131601118D01*
X158320500Y-131414486D01*
X158320500Y-131225513D01*
X158290940Y-131038881D01*
X158232545Y-130859163D01*
X158161383Y-130719500D01*
X158146760Y-130690801D01*
X158035690Y-130537927D01*
X157902073Y-130404310D01*
X157749199Y-130293240D01*
X157712420Y-130274500D01*
X157580836Y-130207454D01*
X157506472Y-130183291D01*
X157459195Y-130167930D01*
X157401521Y-130128493D01*
X157374323Y-130064134D01*
X157386238Y-129995288D01*
X157433482Y-129943812D01*
X157459194Y-129932069D01*
X157580832Y-129892547D01*
X157749199Y-129806760D01*
X157902073Y-129695690D01*
X158035690Y-129562073D01*
X158146760Y-129409199D01*
X158232547Y-129240832D01*
X158290940Y-129061118D01*
X158304143Y-128977757D01*
X158320500Y-128874486D01*
X158320500Y-128685513D01*
X158290940Y-128498881D01*
X158232545Y-128319163D01*
X158181099Y-128218196D01*
X158146760Y-128150801D01*
X158035690Y-127997927D01*
X157902073Y-127864310D01*
X157749199Y-127753240D01*
X157743821Y-127750500D01*
X157580836Y-127667454D01*
X157503823Y-127642431D01*
X157459195Y-127627930D01*
X157401521Y-127588493D01*
X157374323Y-127524134D01*
X157386238Y-127455288D01*
X157433482Y-127403812D01*
X157459194Y-127392069D01*
X157580832Y-127352547D01*
X157749199Y-127266760D01*
X157890385Y-127164181D01*
X157956190Y-127140702D01*
X157963270Y-127140500D01*
X161288693Y-127140500D01*
X161288694Y-127140499D01*
X161462666Y-127105895D01*
X161544606Y-127071953D01*
X161626547Y-127038013D01*
X161714959Y-126978936D01*
X161774036Y-126939464D01*
X162699464Y-126014036D01*
X162798013Y-125866547D01*
X162865895Y-125702666D01*
X162900500Y-125528692D01*
X162900500Y-125351308D01*
X162900500Y-124709336D01*
X162920185Y-124642297D01*
X162936819Y-124621655D01*
X162943069Y-124615405D01*
X162953828Y-124604646D01*
X163069524Y-124445405D01*
X163158884Y-124270025D01*
X163219709Y-124082826D01*
X163234029Y-123992415D01*
X163250500Y-123888422D01*
X163250500Y-123691577D01*
X163219709Y-123497173D01*
X163191487Y-123410317D01*
X163158884Y-123309975D01*
X163158882Y-123309972D01*
X163158882Y-123309970D01*
X163105238Y-123204689D01*
X163069524Y-123134595D01*
X162953828Y-122975354D01*
X162814646Y-122836172D01*
X162661377Y-122724815D01*
X162618714Y-122669487D01*
X162612735Y-122599873D01*
X162645341Y-122538078D01*
X162706180Y-122503721D01*
X162734264Y-122500499D01*
X162881518Y-122500499D01*
X162975304Y-122485646D01*
X163088342Y-122428050D01*
X163178050Y-122338342D01*
X163235646Y-122225304D01*
X163235646Y-122225302D01*
X163235647Y-122225301D01*
X163246942Y-122153983D01*
X163250500Y-122131519D01*
X163250499Y-120368482D01*
X163235646Y-120274696D01*
X163178050Y-120161658D01*
X163178046Y-120161654D01*
X163178045Y-120161652D01*
X163088347Y-120071954D01*
X163088344Y-120071952D01*
X163088342Y-120071950D01*
X163005083Y-120029527D01*
X162975301Y-120014352D01*
X162964815Y-120012692D01*
X162955260Y-120008162D01*
X162944696Y-120007753D01*
X162924237Y-119993455D01*
X162901680Y-119982762D01*
X162894574Y-119972725D01*
X162887426Y-119967730D01*
X162876925Y-119947797D01*
X162869509Y-119937322D01*
X162866351Y-119929631D01*
X162865894Y-119927334D01*
X162809398Y-119790940D01*
X162805204Y-119780815D01*
X162798016Y-119763460D01*
X162798015Y-119763459D01*
X162798013Y-119763453D01*
X162772348Y-119725043D01*
X162699465Y-119615966D01*
X162640318Y-119556819D01*
X162574035Y-119490536D01*
X162272234Y-119188735D01*
X161004041Y-117920540D01*
X161004040Y-117920539D01*
X161004036Y-117920536D01*
X160944959Y-117881063D01*
X160856547Y-117821987D01*
X160774606Y-117788046D01*
X160692666Y-117754105D01*
X160692658Y-117754103D01*
X160518696Y-117719500D01*
X160518692Y-117719500D01*
X160518691Y-117719500D01*
X157963270Y-117719500D01*
X157896231Y-117699815D01*
X157890397Y-117695827D01*
X157749199Y-117593240D01*
X157742840Y-117590000D01*
X157580836Y-117507454D01*
X157506472Y-117483291D01*
X157459195Y-117467930D01*
X157433155Y-117450124D01*
X157406160Y-117433846D01*
X157404544Y-117430560D01*
X157401521Y-117428493D01*
X157389243Y-117399441D01*
X157375331Y-117371145D01*
X157375748Y-117367506D01*
X157374323Y-117364134D01*
X157379699Y-117333065D01*
X157383295Y-117301731D01*
X157385613Y-117298895D01*
X157386238Y-117295288D01*
X157407564Y-117272051D01*
X157427524Y-117247642D01*
X157431975Y-117245453D01*
X157433482Y-117243812D01*
X157459194Y-117232069D01*
X157580832Y-117192547D01*
X157749199Y-117106760D01*
X157902073Y-116995690D01*
X158035690Y-116862073D01*
X158146760Y-116709199D01*
X158232547Y-116540832D01*
X158290940Y-116361118D01*
X158299690Y-116305871D01*
X158320499Y-116174489D01*
X158320500Y-116174483D01*
X158320500Y-115985513D01*
X158290940Y-115798881D01*
X158263846Y-115715497D01*
X158232547Y-115619168D01*
X158232545Y-115619165D01*
X158232545Y-115619163D01*
X158187290Y-115530347D01*
X158146760Y-115450801D01*
X158035690Y-115297927D01*
X157902073Y-115164310D01*
X157749199Y-115053240D01*
X157580836Y-114967454D01*
X157506472Y-114943291D01*
X157459195Y-114927930D01*
X157401521Y-114888493D01*
X157374323Y-114824134D01*
X157386238Y-114755288D01*
X157433482Y-114703812D01*
X157459194Y-114692069D01*
X157580832Y-114652547D01*
X157749199Y-114566760D01*
X157752746Y-114564183D01*
X157818552Y-114540702D01*
X157825633Y-114540500D01*
X161001375Y-114540500D01*
X161068414Y-114560185D01*
X161089056Y-114576819D01*
X161217927Y-114705690D01*
X161370801Y-114816760D01*
X161454073Y-114859189D01*
X161482511Y-114873679D01*
X161533307Y-114921654D01*
X161550102Y-114989475D01*
X161527565Y-115055609D01*
X161482511Y-115094649D01*
X161318644Y-115178143D01*
X161274077Y-115210523D01*
X161274077Y-115210524D01*
X161953554Y-115890000D01*
X161947339Y-115890000D01*
X161845606Y-115917259D01*
X161754394Y-115969920D01*
X161679920Y-116044394D01*
X161627259Y-116135606D01*
X161600000Y-116237339D01*
X161600000Y-116243553D01*
X160920524Y-115564077D01*
X160920523Y-115564077D01*
X160888143Y-115608644D01*
X160795244Y-115790968D01*
X160732009Y-115985582D01*
X160700000Y-116187682D01*
X160700000Y-116392317D01*
X160732009Y-116594417D01*
X160795244Y-116789031D01*
X160888141Y-116971350D01*
X160888147Y-116971359D01*
X160920523Y-117015921D01*
X160920524Y-117015922D01*
X161600000Y-116336446D01*
X161600000Y-116342661D01*
X161627259Y-116444394D01*
X161679920Y-116535606D01*
X161754394Y-116610080D01*
X161845606Y-116662741D01*
X161947339Y-116690000D01*
X161953553Y-116690000D01*
X161274076Y-117369474D01*
X161318650Y-117401859D01*
X161500968Y-117494755D01*
X161695582Y-117557990D01*
X161897683Y-117590000D01*
X162102317Y-117590000D01*
X162304417Y-117557990D01*
X162499031Y-117494755D01*
X162681349Y-117401859D01*
X162725921Y-117369474D01*
X162046447Y-116690000D01*
X162052661Y-116690000D01*
X162154394Y-116662741D01*
X162245606Y-116610080D01*
X162320080Y-116535606D01*
X162372741Y-116444394D01*
X162400000Y-116342661D01*
X162400000Y-116336447D01*
X163079474Y-117015921D01*
X163111859Y-116971349D01*
X163204755Y-116789031D01*
X163267990Y-116594417D01*
X163300000Y-116392317D01*
X163300000Y-116187682D01*
X163267990Y-115985582D01*
X163204755Y-115790968D01*
X163111859Y-115608650D01*
X163079474Y-115564077D01*
X163079474Y-115564076D01*
X162400000Y-116243551D01*
X162400000Y-116237339D01*
X162372741Y-116135606D01*
X162320080Y-116044394D01*
X162245606Y-115969920D01*
X162154394Y-115917259D01*
X162052661Y-115890000D01*
X162046446Y-115890000D01*
X162725922Y-115210524D01*
X162725921Y-115210523D01*
X162681359Y-115178147D01*
X162681350Y-115178141D01*
X162517488Y-115094649D01*
X162466692Y-115046674D01*
X162449897Y-114978853D01*
X162472434Y-114912718D01*
X162517489Y-114873679D01*
X162629197Y-114816761D01*
X162629196Y-114816761D01*
X162629199Y-114816760D01*
X162782073Y-114705690D01*
X162905519Y-114582243D01*
X162966838Y-114548761D01*
X163036530Y-114553745D01*
X163080878Y-114582246D01*
X164743181Y-116244548D01*
X164776666Y-116305871D01*
X164779500Y-116332229D01*
X164779500Y-119936473D01*
X164759815Y-120003512D01*
X164728386Y-120036791D01*
X164607925Y-120124311D01*
X164474312Y-120257924D01*
X164474312Y-120257925D01*
X164474310Y-120257927D01*
X164445823Y-120297136D01*
X164363240Y-120410800D01*
X164277454Y-120579163D01*
X164219059Y-120758881D01*
X164189500Y-120945513D01*
X164189500Y-121134486D01*
X164219059Y-121321118D01*
X164277454Y-121500836D01*
X164346156Y-121635670D01*
X164363240Y-121669199D01*
X164474310Y-121822073D01*
X164607927Y-121955690D01*
X164607930Y-121955692D01*
X164728385Y-122043208D01*
X164771051Y-122098538D01*
X164779500Y-122143526D01*
X164779500Y-122972800D01*
X164759815Y-123039839D01*
X164728386Y-123073117D01*
X164657933Y-123124305D01*
X164657924Y-123124312D01*
X164524312Y-123257924D01*
X164524312Y-123257925D01*
X164524310Y-123257927D01*
X164501162Y-123289788D01*
X164413240Y-123410800D01*
X164327454Y-123579163D01*
X164269059Y-123758881D01*
X164239500Y-123945513D01*
X164239500Y-124134486D01*
X164269059Y-124321118D01*
X164327454Y-124500836D01*
X164389015Y-124621655D01*
X164413240Y-124669199D01*
X164524310Y-124822073D01*
X164657927Y-124955690D01*
X164728388Y-125006883D01*
X164771051Y-125062209D01*
X164779500Y-125107198D01*
X164779500Y-126041374D01*
X164759815Y-126108413D01*
X164743182Y-126129055D01*
X164614309Y-126257928D01*
X164503240Y-126410800D01*
X164417454Y-126579163D01*
X164359059Y-126758881D01*
X164329500Y-126945513D01*
X164329500Y-127134486D01*
X164359059Y-127321118D01*
X164417454Y-127500836D01*
X164482603Y-127628696D01*
X164503240Y-127669199D01*
X164614310Y-127822073D01*
X164747924Y-127955687D01*
X164751372Y-127959135D01*
X164750613Y-127959893D01*
X164776486Y-127992973D01*
X165426952Y-129293905D01*
X165439327Y-129362670D01*
X165412559Y-129427209D01*
X165403724Y-129437040D01*
X161437584Y-133403181D01*
X161376261Y-133436666D01*
X161349903Y-133439500D01*
X156286670Y-133439500D01*
X156286654Y-133439499D01*
X156279058Y-133439499D01*
X156120943Y-133439499D01*
X156044579Y-133459961D01*
X155968214Y-133480423D01*
X155968209Y-133480426D01*
X155831290Y-133559475D01*
X155831282Y-133559481D01*
X154537584Y-134853181D01*
X154476261Y-134886666D01*
X154449903Y-134889500D01*
X153339778Y-134889500D01*
X153274134Y-134899897D01*
X153122047Y-134923985D01*
X152912396Y-134992103D01*
X152912393Y-134992104D01*
X152715974Y-135092187D01*
X152537641Y-135221752D01*
X152537636Y-135221756D01*
X152381756Y-135377636D01*
X152381752Y-135377641D01*
X152252187Y-135555974D01*
X152152104Y-135752393D01*
X152152103Y-135752396D01*
X152083985Y-135962047D01*
X152083985Y-135962049D01*
X152049500Y-136179778D01*
X152049500Y-136400222D01*
X152064002Y-136491784D01*
X152083985Y-136617952D01*
X152152103Y-136827603D01*
X152152104Y-136827606D01*
X152252187Y-137024025D01*
X152381752Y-137202358D01*
X152381756Y-137202363D01*
X152537636Y-137358243D01*
X152537641Y-137358247D01*
X152693192Y-137471260D01*
X152715978Y-137487815D01*
X152844375Y-137553237D01*
X152912393Y-137587895D01*
X152912396Y-137587896D01*
X153122048Y-137656015D01*
X153166825Y-137663106D01*
X153244897Y-137675472D01*
X153308032Y-137705401D01*
X153344964Y-137764712D01*
X153349500Y-137797945D01*
X153349500Y-141282054D01*
X153329815Y-141349093D01*
X153277011Y-141394848D01*
X153244898Y-141404527D01*
X153122047Y-141423985D01*
X152912396Y-141492103D01*
X152912393Y-141492104D01*
X152715974Y-141592187D01*
X152537641Y-141721752D01*
X152537636Y-141721756D01*
X152381756Y-141877636D01*
X152381752Y-141877641D01*
X152252187Y-142055974D01*
X152152104Y-142252393D01*
X152152103Y-142252396D01*
X152083985Y-142462047D01*
X152083985Y-142462049D01*
X152049500Y-142679778D01*
X152049500Y-142900222D01*
X152063717Y-142989984D01*
X152083985Y-143117952D01*
X152152103Y-143327603D01*
X152152104Y-143327606D01*
X152252187Y-143524025D01*
X152381752Y-143702358D01*
X152381756Y-143702363D01*
X152537636Y-143858243D01*
X152537641Y-143858247D01*
X152693192Y-143971260D01*
X152715978Y-143987815D01*
X152844375Y-144053237D01*
X152912393Y-144087895D01*
X152912396Y-144087896D01*
X153017221Y-144121955D01*
X153122049Y-144156015D01*
X153339778Y-144190500D01*
X153339779Y-144190500D01*
X154560221Y-144190500D01*
X154560222Y-144190500D01*
X154777951Y-144156015D01*
X154987606Y-144087895D01*
X155184022Y-143987815D01*
X155268376Y-143926528D01*
X155352953Y-143865081D01*
X155352954Y-143865080D01*
X155362361Y-143858245D01*
X155362361Y-143858244D01*
X155362365Y-143858242D01*
X155518242Y-143702365D01*
X155647815Y-143524022D01*
X155747895Y-143327606D01*
X155816015Y-143117951D01*
X155850500Y-142900222D01*
X155850500Y-142679778D01*
X155849260Y-142671947D01*
X156500000Y-142671947D01*
X156500000Y-142908052D01*
X156536934Y-143141247D01*
X156609897Y-143365802D01*
X156717087Y-143576174D01*
X156777338Y-143659104D01*
X156777340Y-143659105D01*
X157476212Y-142960233D01*
X157487482Y-143002292D01*
X157559890Y-143127708D01*
X157662292Y-143230110D01*
X157787708Y-143302518D01*
X157829765Y-143313787D01*
X157130893Y-144012658D01*
X157213828Y-144072914D01*
X157424197Y-144180102D01*
X157648752Y-144253065D01*
X157648751Y-144253065D01*
X157881948Y-144290000D01*
X158118052Y-144290000D01*
X158351247Y-144253065D01*
X158575802Y-144180102D01*
X158786163Y-144072918D01*
X158786169Y-144072914D01*
X158869104Y-144012658D01*
X158869105Y-144012658D01*
X158170233Y-143313787D01*
X158212292Y-143302518D01*
X158337708Y-143230110D01*
X158440110Y-143127708D01*
X158512518Y-143002292D01*
X158523787Y-142960234D01*
X159222658Y-143659105D01*
X159222658Y-143659104D01*
X159282914Y-143576169D01*
X159282918Y-143576163D01*
X159390102Y-143365802D01*
X159463065Y-143141247D01*
X159500000Y-142908052D01*
X159500000Y-142671947D01*
X159463065Y-142438752D01*
X159390102Y-142214197D01*
X159282914Y-142003828D01*
X159222658Y-141920894D01*
X159222658Y-141920893D01*
X158523787Y-142619765D01*
X158512518Y-142577708D01*
X158440110Y-142452292D01*
X158337708Y-142349890D01*
X158212292Y-142277482D01*
X158170234Y-142266212D01*
X158869105Y-141567340D01*
X158869104Y-141567338D01*
X158786174Y-141507087D01*
X158575802Y-141399897D01*
X158351247Y-141326934D01*
X158351248Y-141326934D01*
X158118052Y-141290000D01*
X157881948Y-141290000D01*
X157648752Y-141326934D01*
X157424197Y-141399897D01*
X157213830Y-141507084D01*
X157130894Y-141567340D01*
X157829766Y-142266212D01*
X157787708Y-142277482D01*
X157662292Y-142349890D01*
X157559890Y-142452292D01*
X157487482Y-142577708D01*
X157476212Y-142619766D01*
X156777340Y-141920894D01*
X156717084Y-142003830D01*
X156609897Y-142214197D01*
X156536934Y-142438752D01*
X156500000Y-142671947D01*
X155849260Y-142671947D01*
X155816015Y-142462049D01*
X155779573Y-142349890D01*
X155747896Y-142252396D01*
X155747895Y-142252393D01*
X155694994Y-142148572D01*
X155647815Y-142055978D01*
X155629041Y-142030137D01*
X155518247Y-141877641D01*
X155518243Y-141877636D01*
X155362363Y-141721756D01*
X155362364Y-141721756D01*
X155352952Y-141714919D01*
X155352951Y-141714917D01*
X155184025Y-141592187D01*
X155184024Y-141592186D01*
X155184022Y-141592185D01*
X155113192Y-141556095D01*
X154987606Y-141492104D01*
X154987603Y-141492103D01*
X154777952Y-141423985D01*
X154655102Y-141404527D01*
X154591967Y-141374598D01*
X154555036Y-141315286D01*
X154550500Y-141282054D01*
X154550500Y-137797945D01*
X154570185Y-137730906D01*
X154622989Y-137685151D01*
X154655101Y-137675472D01*
X154777951Y-137656015D01*
X154987606Y-137587895D01*
X155184022Y-137487815D01*
X155268376Y-137426528D01*
X155352953Y-137365081D01*
X155352954Y-137365080D01*
X155362361Y-137358245D01*
X155362361Y-137358244D01*
X155362365Y-137358242D01*
X155518242Y-137202365D01*
X155647815Y-137024022D01*
X155747895Y-136827606D01*
X155816015Y-136617951D01*
X155850500Y-136400222D01*
X155850500Y-136179778D01*
X155816015Y-135962049D01*
X155779573Y-135849890D01*
X155747896Y-135752396D01*
X155747890Y-135752383D01*
X155650048Y-135560359D01*
X155637151Y-135491690D01*
X155663427Y-135426950D01*
X155672842Y-135416393D01*
X156412417Y-134676819D01*
X156473740Y-134643334D01*
X156500098Y-134640500D01*
X157439634Y-134640500D01*
X157506673Y-134660185D01*
X157552428Y-134712989D01*
X157562372Y-134782147D01*
X157533347Y-134845703D01*
X157477953Y-134882431D01*
X157424195Y-134899897D01*
X157213830Y-135007084D01*
X157130894Y-135067340D01*
X157829766Y-135766212D01*
X157787708Y-135777482D01*
X157662292Y-135849890D01*
X157559890Y-135952292D01*
X157487482Y-136077708D01*
X157476212Y-136119766D01*
X156777340Y-135420894D01*
X156717084Y-135503830D01*
X156609897Y-135714197D01*
X156536934Y-135938752D01*
X156500000Y-136171947D01*
X156500000Y-136408052D01*
X156536934Y-136641247D01*
X156609897Y-136865802D01*
X156717087Y-137076174D01*
X156777338Y-137159104D01*
X156777340Y-137159105D01*
X157476212Y-136460233D01*
X157487482Y-136502292D01*
X157559890Y-136627708D01*
X157662292Y-136730110D01*
X157787708Y-136802518D01*
X157829765Y-136813787D01*
X157130893Y-137512658D01*
X157213828Y-137572914D01*
X157424197Y-137680102D01*
X157648752Y-137753065D01*
X157648751Y-137753065D01*
X157881948Y-137790000D01*
X158118052Y-137790000D01*
X158351247Y-137753065D01*
X158575802Y-137680102D01*
X158786163Y-137572918D01*
X158786169Y-137572914D01*
X158869104Y-137512658D01*
X158869105Y-137512658D01*
X158170233Y-136813787D01*
X158212292Y-136802518D01*
X158337708Y-136730110D01*
X158440110Y-136627708D01*
X158512518Y-136502292D01*
X158523787Y-136460234D01*
X159222658Y-137159105D01*
X159222658Y-137159104D01*
X159282914Y-137076169D01*
X159282918Y-137076163D01*
X159390102Y-136865802D01*
X159463065Y-136641247D01*
X159500000Y-136408052D01*
X159500000Y-136171947D01*
X159463065Y-135938752D01*
X159390102Y-135714197D01*
X159282914Y-135503828D01*
X159222658Y-135420894D01*
X159222658Y-135420893D01*
X158523787Y-136119765D01*
X158512518Y-136077708D01*
X158440110Y-135952292D01*
X158337708Y-135849890D01*
X158212292Y-135777482D01*
X158170234Y-135766212D01*
X158869105Y-135067340D01*
X158869104Y-135067338D01*
X158786174Y-135007087D01*
X158575804Y-134899898D01*
X158522047Y-134882431D01*
X158464372Y-134842993D01*
X158437174Y-134778634D01*
X158449089Y-134709788D01*
X158496333Y-134658312D01*
X158560366Y-134640500D01*
X161563331Y-134640500D01*
X161563347Y-134640501D01*
X161570943Y-134640501D01*
X161729055Y-134640501D01*
X161729057Y-134640501D01*
X161793407Y-134623258D01*
X161818399Y-134623852D01*
X161843147Y-134620294D01*
X161852726Y-134624668D01*
X161863255Y-134624919D01*
X161883961Y-134638933D01*
X161906703Y-134649319D01*
X161912396Y-134658178D01*
X161921118Y-134664081D01*
X161930960Y-134687064D01*
X161944477Y-134708097D01*
X161946756Y-134723950D01*
X161948623Y-134728309D01*
X161949500Y-134743032D01*
X161949500Y-134774135D01*
X161929815Y-134841174D01*
X161877011Y-134886929D01*
X161844898Y-134896608D01*
X161672047Y-134923985D01*
X161462396Y-134992103D01*
X161462393Y-134992104D01*
X161265974Y-135092187D01*
X161087641Y-135221752D01*
X161087636Y-135221756D01*
X160931756Y-135377636D01*
X160931752Y-135377641D01*
X160802187Y-135555974D01*
X160702104Y-135752393D01*
X160702103Y-135752396D01*
X160633985Y-135962047D01*
X160633985Y-135962049D01*
X160599500Y-136179778D01*
X160599500Y-136400222D01*
X160614002Y-136491784D01*
X160633985Y-136617952D01*
X160702103Y-136827603D01*
X160702104Y-136827606D01*
X160802187Y-137024025D01*
X160931752Y-137202358D01*
X160931756Y-137202363D01*
X161087636Y-137358243D01*
X161087641Y-137358247D01*
X161243192Y-137471260D01*
X161265978Y-137487815D01*
X161394375Y-137553237D01*
X161462393Y-137587895D01*
X161462396Y-137587896D01*
X161672048Y-137656015D01*
X161716825Y-137663106D01*
X161794897Y-137675472D01*
X161858032Y-137705401D01*
X161894964Y-137764712D01*
X161899500Y-137797945D01*
X161899500Y-141282054D01*
X161879815Y-141349093D01*
X161827011Y-141394848D01*
X161794898Y-141404527D01*
X161672047Y-141423985D01*
X161462396Y-141492103D01*
X161462393Y-141492104D01*
X161265974Y-141592187D01*
X161087641Y-141721752D01*
X161087636Y-141721756D01*
X160931756Y-141877636D01*
X160931752Y-141877641D01*
X160802187Y-142055974D01*
X160702104Y-142252393D01*
X160702103Y-142252396D01*
X160633985Y-142462047D01*
X160633985Y-142462049D01*
X160599500Y-142679778D01*
X160599500Y-142900222D01*
X160613717Y-142989984D01*
X160633985Y-143117952D01*
X160702103Y-143327603D01*
X160702104Y-143327606D01*
X160802187Y-143524025D01*
X160931752Y-143702358D01*
X160931756Y-143702363D01*
X161087636Y-143858243D01*
X161087641Y-143858247D01*
X161243192Y-143971260D01*
X161265978Y-143987815D01*
X161394375Y-144053237D01*
X161462393Y-144087895D01*
X161462396Y-144087896D01*
X161567221Y-144121955D01*
X161672049Y-144156015D01*
X161889778Y-144190500D01*
X161889779Y-144190500D01*
X163110221Y-144190500D01*
X163110222Y-144190500D01*
X163327951Y-144156015D01*
X163537606Y-144087895D01*
X163734022Y-143987815D01*
X163818376Y-143926528D01*
X163902953Y-143865081D01*
X163902954Y-143865080D01*
X163912361Y-143858245D01*
X163912361Y-143858244D01*
X163912365Y-143858242D01*
X164068242Y-143702365D01*
X164197815Y-143524022D01*
X164297895Y-143327606D01*
X164366015Y-143117951D01*
X164400500Y-142900222D01*
X164400500Y-142679778D01*
X164399260Y-142671947D01*
X165050000Y-142671947D01*
X165050000Y-142908052D01*
X165086934Y-143141247D01*
X165159897Y-143365802D01*
X165267087Y-143576174D01*
X165327338Y-143659104D01*
X165327340Y-143659105D01*
X166026212Y-142960233D01*
X166037482Y-143002292D01*
X166109890Y-143127708D01*
X166212292Y-143230110D01*
X166337708Y-143302518D01*
X166379765Y-143313787D01*
X165680893Y-144012658D01*
X165763828Y-144072914D01*
X165974197Y-144180102D01*
X166198752Y-144253065D01*
X166198751Y-144253065D01*
X166431948Y-144290000D01*
X166668052Y-144290000D01*
X166901247Y-144253065D01*
X167125802Y-144180102D01*
X167336163Y-144072918D01*
X167336169Y-144072914D01*
X167419104Y-144012658D01*
X167419105Y-144012658D01*
X166720233Y-143313787D01*
X166762292Y-143302518D01*
X166887708Y-143230110D01*
X166990110Y-143127708D01*
X167062518Y-143002292D01*
X167073787Y-142960233D01*
X167772658Y-143659105D01*
X167772658Y-143659104D01*
X167832914Y-143576169D01*
X167832918Y-143576163D01*
X167940102Y-143365802D01*
X168013065Y-143141247D01*
X168050000Y-142908052D01*
X168050000Y-142671947D01*
X168013065Y-142438752D01*
X167940102Y-142214197D01*
X167832914Y-142003828D01*
X167772658Y-141920894D01*
X167772658Y-141920893D01*
X167073787Y-142619765D01*
X167062518Y-142577708D01*
X166990110Y-142452292D01*
X166887708Y-142349890D01*
X166762292Y-142277482D01*
X166720234Y-142266212D01*
X167419105Y-141567340D01*
X167419104Y-141567338D01*
X167336174Y-141507087D01*
X167125802Y-141399897D01*
X166901247Y-141326934D01*
X166901248Y-141326934D01*
X166668052Y-141290000D01*
X166431948Y-141290000D01*
X166198752Y-141326934D01*
X165974197Y-141399897D01*
X165763830Y-141507084D01*
X165680894Y-141567340D01*
X166379766Y-142266212D01*
X166337708Y-142277482D01*
X166212292Y-142349890D01*
X166109890Y-142452292D01*
X166037482Y-142577708D01*
X166026212Y-142619766D01*
X165327340Y-141920894D01*
X165267084Y-142003830D01*
X165159897Y-142214197D01*
X165086934Y-142438752D01*
X165050000Y-142671947D01*
X164399260Y-142671947D01*
X164366015Y-142462049D01*
X164329573Y-142349890D01*
X164297896Y-142252396D01*
X164297895Y-142252393D01*
X164244994Y-142148572D01*
X164197815Y-142055978D01*
X164179041Y-142030137D01*
X164068247Y-141877641D01*
X164068243Y-141877636D01*
X163912363Y-141721756D01*
X163912364Y-141721756D01*
X163902952Y-141714919D01*
X163902951Y-141714917D01*
X163734025Y-141592187D01*
X163734024Y-141592186D01*
X163734022Y-141592185D01*
X163663192Y-141556095D01*
X163537606Y-141492104D01*
X163537603Y-141492103D01*
X163327952Y-141423985D01*
X163205102Y-141404527D01*
X163141967Y-141374598D01*
X163105036Y-141315286D01*
X163100500Y-141282054D01*
X163100500Y-137797945D01*
X163120185Y-137730906D01*
X163172989Y-137685151D01*
X163205101Y-137675472D01*
X163327951Y-137656015D01*
X163537606Y-137587895D01*
X163734022Y-137487815D01*
X163818376Y-137426528D01*
X163902953Y-137365081D01*
X163902954Y-137365080D01*
X163912361Y-137358245D01*
X163912361Y-137358244D01*
X163912365Y-137358242D01*
X164068242Y-137202365D01*
X164197815Y-137024022D01*
X164297895Y-136827606D01*
X164366015Y-136617951D01*
X164400500Y-136400222D01*
X164400500Y-136179778D01*
X164399260Y-136171947D01*
X165050000Y-136171947D01*
X165050000Y-136408052D01*
X165086934Y-136641247D01*
X165159897Y-136865802D01*
X165267087Y-137076174D01*
X165327338Y-137159104D01*
X165327340Y-137159105D01*
X166026212Y-136460233D01*
X166037482Y-136502292D01*
X166109890Y-136627708D01*
X166212292Y-136730110D01*
X166337708Y-136802518D01*
X166379765Y-136813787D01*
X165680893Y-137512658D01*
X165763828Y-137572914D01*
X165974197Y-137680102D01*
X166198752Y-137753065D01*
X166198751Y-137753065D01*
X166431948Y-137790000D01*
X166668052Y-137790000D01*
X166901247Y-137753065D01*
X167125802Y-137680102D01*
X167336163Y-137572918D01*
X167336169Y-137572914D01*
X167419104Y-137512658D01*
X167419105Y-137512658D01*
X166720233Y-136813787D01*
X166762292Y-136802518D01*
X166887708Y-136730110D01*
X166990110Y-136627708D01*
X167062518Y-136502292D01*
X167073787Y-136460233D01*
X167772658Y-137159105D01*
X167772658Y-137159104D01*
X167832914Y-137076169D01*
X167832918Y-137076163D01*
X167940102Y-136865802D01*
X168013065Y-136641247D01*
X168050000Y-136408052D01*
X168050000Y-136171947D01*
X168013065Y-135938752D01*
X167940102Y-135714197D01*
X167832914Y-135503828D01*
X167772658Y-135420894D01*
X167772658Y-135420893D01*
X167073787Y-136119765D01*
X167062518Y-136077708D01*
X166990110Y-135952292D01*
X166887708Y-135849890D01*
X166762292Y-135777482D01*
X166720234Y-135766212D01*
X167419105Y-135067340D01*
X167419104Y-135067338D01*
X167336174Y-135007087D01*
X167125802Y-134899897D01*
X166901247Y-134826934D01*
X166901248Y-134826934D01*
X166668052Y-134790000D01*
X166431948Y-134790000D01*
X166198752Y-134826934D01*
X165974197Y-134899897D01*
X165763830Y-135007084D01*
X165680894Y-135067340D01*
X166379766Y-135766212D01*
X166337708Y-135777482D01*
X166212292Y-135849890D01*
X166109890Y-135952292D01*
X166037482Y-136077708D01*
X166026212Y-136119766D01*
X165327340Y-135420894D01*
X165267084Y-135503830D01*
X165159897Y-135714197D01*
X165086934Y-135938752D01*
X165050000Y-136171947D01*
X164399260Y-136171947D01*
X164366015Y-135962049D01*
X164329573Y-135849890D01*
X164297896Y-135752396D01*
X164297895Y-135752393D01*
X164263237Y-135684375D01*
X164197815Y-135555978D01*
X164181260Y-135533192D01*
X164068247Y-135377641D01*
X164068243Y-135377636D01*
X163912363Y-135221756D01*
X163912364Y-135221756D01*
X163902952Y-135214919D01*
X163902951Y-135214917D01*
X163734025Y-135092187D01*
X163734024Y-135092186D01*
X163734022Y-135092185D01*
X163671096Y-135060122D01*
X163537606Y-134992104D01*
X163537603Y-134992103D01*
X163327953Y-134923985D01*
X163323647Y-134923303D01*
X163260515Y-134893368D01*
X163223588Y-134834054D01*
X163224592Y-134764191D01*
X163255372Y-134713152D01*
X169451191Y-128517332D01*
X169512512Y-128483849D01*
X169582204Y-128488833D01*
X169638137Y-128530705D01*
X169649779Y-128549560D01*
X170249999Y-129749999D01*
X170250000Y-129750000D01*
X170250000Y-129749998D01*
X170261969Y-129748686D01*
X170330756Y-129760937D01*
X170382000Y-129808433D01*
X170399500Y-129871945D01*
X170399500Y-134789973D01*
X170379815Y-134857012D01*
X170327011Y-134902767D01*
X170294899Y-134912446D01*
X170222047Y-134923985D01*
X170012396Y-134992103D01*
X170012393Y-134992104D01*
X169815974Y-135092187D01*
X169637641Y-135221752D01*
X169637636Y-135221756D01*
X169481756Y-135377636D01*
X169481752Y-135377641D01*
X169352187Y-135555974D01*
X169252104Y-135752393D01*
X169252103Y-135752396D01*
X169183985Y-135962047D01*
X169183985Y-135962049D01*
X169149500Y-136179778D01*
X169149500Y-136400222D01*
X169164002Y-136491784D01*
X169183985Y-136617952D01*
X169252103Y-136827603D01*
X169252104Y-136827606D01*
X169352187Y-137024025D01*
X169481752Y-137202358D01*
X169481756Y-137202363D01*
X169637636Y-137358243D01*
X169637641Y-137358247D01*
X169793192Y-137471260D01*
X169815978Y-137487815D01*
X169944375Y-137553237D01*
X170012393Y-137587895D01*
X170012396Y-137587896D01*
X170222048Y-137656015D01*
X170266825Y-137663106D01*
X170344897Y-137675472D01*
X170408032Y-137705401D01*
X170444964Y-137764712D01*
X170449500Y-137797945D01*
X170449500Y-141282054D01*
X170429815Y-141349093D01*
X170377011Y-141394848D01*
X170344898Y-141404527D01*
X170222047Y-141423985D01*
X170012396Y-141492103D01*
X170012393Y-141492104D01*
X169815974Y-141592187D01*
X169637641Y-141721752D01*
X169637636Y-141721756D01*
X169481756Y-141877636D01*
X169481752Y-141877641D01*
X169352187Y-142055974D01*
X169252104Y-142252393D01*
X169252103Y-142252396D01*
X169183985Y-142462047D01*
X169183985Y-142462049D01*
X169149500Y-142679778D01*
X169149500Y-142900222D01*
X169163717Y-142989984D01*
X169183985Y-143117952D01*
X169252103Y-143327603D01*
X169252104Y-143327606D01*
X169352187Y-143524025D01*
X169481752Y-143702358D01*
X169481756Y-143702363D01*
X169637636Y-143858243D01*
X169637641Y-143858247D01*
X169793192Y-143971260D01*
X169815978Y-143987815D01*
X169944375Y-144053237D01*
X170012393Y-144087895D01*
X170012396Y-144087896D01*
X170117221Y-144121955D01*
X170222049Y-144156015D01*
X170439778Y-144190500D01*
X170439779Y-144190500D01*
X171660221Y-144190500D01*
X171660222Y-144190500D01*
X171877951Y-144156015D01*
X172087606Y-144087895D01*
X172284022Y-143987815D01*
X172462365Y-143858242D01*
X172618242Y-143702365D01*
X172747815Y-143524022D01*
X172847895Y-143327606D01*
X172916015Y-143117951D01*
X172950500Y-142900222D01*
X172950500Y-142679778D01*
X172916015Y-142462049D01*
X172879573Y-142349890D01*
X172847896Y-142252396D01*
X172847895Y-142252393D01*
X172794994Y-142148572D01*
X172747815Y-142055978D01*
X172729041Y-142030137D01*
X172618247Y-141877641D01*
X172618243Y-141877636D01*
X172462363Y-141721756D01*
X172462358Y-141721752D01*
X172284025Y-141592187D01*
X172284024Y-141592186D01*
X172284022Y-141592185D01*
X172213192Y-141556095D01*
X172087606Y-141492104D01*
X172087603Y-141492103D01*
X171877952Y-141423985D01*
X171755102Y-141404527D01*
X171691967Y-141374598D01*
X171655036Y-141315286D01*
X171650500Y-141282054D01*
X171650500Y-137797945D01*
X171670185Y-137730906D01*
X171722989Y-137685151D01*
X171755101Y-137675472D01*
X171877951Y-137656015D01*
X172087606Y-137587895D01*
X172284022Y-137487815D01*
X172462365Y-137358242D01*
X172618242Y-137202365D01*
X172747815Y-137024022D01*
X172847895Y-136827606D01*
X172916015Y-136617951D01*
X172950500Y-136400222D01*
X172950500Y-136179778D01*
X172916015Y-135962049D01*
X172879573Y-135849890D01*
X172847896Y-135752396D01*
X172847895Y-135752393D01*
X172813237Y-135684375D01*
X172747815Y-135555978D01*
X172731260Y-135533192D01*
X172618247Y-135377641D01*
X172618243Y-135377636D01*
X172462363Y-135221756D01*
X172462358Y-135221752D01*
X172284025Y-135092187D01*
X172284024Y-135092186D01*
X172284022Y-135092185D01*
X172221096Y-135060122D01*
X172087606Y-134992104D01*
X172087603Y-134992103D01*
X171877952Y-134923985D01*
X171705102Y-134896608D01*
X171641967Y-134866679D01*
X171605036Y-134807367D01*
X171600500Y-134774135D01*
X171600500Y-128800097D01*
X171620185Y-128733058D01*
X171636819Y-128712416D01*
X171953552Y-128395683D01*
X172307879Y-128041355D01*
X172369200Y-128007872D01*
X172438891Y-128012856D01*
X172468443Y-128028719D01*
X172520801Y-128066760D01*
X172600347Y-128107290D01*
X172689163Y-128152545D01*
X172689165Y-128152545D01*
X172689168Y-128152547D01*
X172785497Y-128183846D01*
X172868881Y-128210940D01*
X173055514Y-128240500D01*
X173055519Y-128240500D01*
X173244486Y-128240500D01*
X173431118Y-128210940D01*
X173461128Y-128201189D01*
X173610832Y-128152547D01*
X173779199Y-128066760D01*
X173932073Y-127955690D01*
X174065690Y-127822073D01*
X174176760Y-127669199D01*
X174262547Y-127500832D01*
X174320940Y-127321118D01*
X174329186Y-127269057D01*
X174350500Y-127134486D01*
X174350500Y-126945513D01*
X174325274Y-126786246D01*
X174334228Y-126716953D01*
X174360063Y-126679170D01*
X176118713Y-124920521D01*
X176118716Y-124920520D01*
X176230520Y-124808716D01*
X176280639Y-124721904D01*
X176309577Y-124671785D01*
X176350500Y-124519058D01*
X176350500Y-124360943D01*
X176350500Y-119029059D01*
X176350501Y-119029046D01*
X176350501Y-118860945D01*
X176350501Y-118860943D01*
X176309577Y-118708215D01*
X176280639Y-118658095D01*
X176230520Y-118571284D01*
X176118716Y-118459480D01*
X176118715Y-118459479D01*
X176114385Y-118455149D01*
X176114374Y-118455139D01*
X170636819Y-112977584D01*
X170603334Y-112916261D01*
X170600500Y-112889903D01*
X170600500Y-110659778D01*
X172049500Y-110659778D01*
X172049500Y-110880222D01*
X172055883Y-110920520D01*
X172083985Y-111097952D01*
X172152103Y-111307603D01*
X172152104Y-111307606D01*
X172220122Y-111441096D01*
X172249471Y-111498696D01*
X172252187Y-111504025D01*
X172381752Y-111682358D01*
X172381756Y-111682363D01*
X172537636Y-111838243D01*
X172537641Y-111838247D01*
X172640422Y-111912922D01*
X172683088Y-111968252D01*
X172689067Y-112037865D01*
X172666804Y-112087551D01*
X172606647Y-112167910D01*
X172606645Y-112167913D01*
X172556403Y-112302620D01*
X172556401Y-112302627D01*
X172550000Y-112362155D01*
X172550000Y-113060000D01*
X173574722Y-113060000D01*
X173530667Y-113136306D01*
X173500000Y-113250756D01*
X173500000Y-113369244D01*
X173530667Y-113483694D01*
X173574722Y-113560000D01*
X172550000Y-113560000D01*
X172550000Y-114257844D01*
X172556401Y-114317372D01*
X172556403Y-114317379D01*
X172606645Y-114452086D01*
X172606649Y-114452093D01*
X172692809Y-114567187D01*
X172692812Y-114567190D01*
X172807906Y-114653350D01*
X172807913Y-114653354D01*
X172942620Y-114703596D01*
X172942627Y-114703598D01*
X173002155Y-114709999D01*
X173002172Y-114710000D01*
X173700000Y-114710000D01*
X173700000Y-113685277D01*
X173776306Y-113729333D01*
X173890756Y-113760000D01*
X174009244Y-113760000D01*
X174123694Y-113729333D01*
X174200000Y-113685277D01*
X174200000Y-114710000D01*
X174897828Y-114710000D01*
X174897844Y-114709999D01*
X174957372Y-114703598D01*
X174957379Y-114703596D01*
X175092086Y-114653354D01*
X175092093Y-114653350D01*
X175207187Y-114567190D01*
X175207190Y-114567187D01*
X175293350Y-114452093D01*
X175293354Y-114452086D01*
X175343596Y-114317379D01*
X175343598Y-114317372D01*
X175349999Y-114257844D01*
X175350000Y-114257827D01*
X175350000Y-113560000D01*
X174325278Y-113560000D01*
X174369333Y-113483694D01*
X174400000Y-113369244D01*
X174400000Y-113250756D01*
X174369333Y-113136306D01*
X174325278Y-113060000D01*
X175350000Y-113060000D01*
X175350000Y-112362172D01*
X175349999Y-112362155D01*
X175343598Y-112302627D01*
X175343596Y-112302620D01*
X175293354Y-112167913D01*
X175293352Y-112167910D01*
X175233195Y-112087551D01*
X175208777Y-112022086D01*
X175223628Y-111953813D01*
X175259573Y-111912923D01*
X175362365Y-111838242D01*
X175518242Y-111682365D01*
X175647815Y-111504022D01*
X175747895Y-111307606D01*
X175816015Y-111097951D01*
X175850500Y-110880222D01*
X175850500Y-110659778D01*
X175816015Y-110442049D01*
X175747895Y-110232394D01*
X175747895Y-110232393D01*
X175711273Y-110160520D01*
X175647815Y-110035978D01*
X175631260Y-110013192D01*
X175518247Y-109857641D01*
X175518243Y-109857636D01*
X175362363Y-109701756D01*
X175362358Y-109701752D01*
X175184025Y-109572187D01*
X175184024Y-109572186D01*
X175184022Y-109572185D01*
X175114302Y-109536660D01*
X175063508Y-109488687D01*
X175046713Y-109420866D01*
X175060114Y-109369883D01*
X175147895Y-109197606D01*
X175216015Y-108987951D01*
X175250500Y-108770222D01*
X175250500Y-107549778D01*
X175216015Y-107332049D01*
X175147895Y-107122394D01*
X175147895Y-107122393D01*
X175113237Y-107054375D01*
X175047815Y-106925978D01*
X174920121Y-106750221D01*
X174918247Y-106747641D01*
X174918243Y-106747636D01*
X174762363Y-106591756D01*
X174762358Y-106591752D01*
X174584025Y-106462187D01*
X174584024Y-106462186D01*
X174584022Y-106462185D01*
X174521096Y-106430122D01*
X174387606Y-106362104D01*
X174387603Y-106362103D01*
X174177952Y-106293985D01*
X174069086Y-106276742D01*
X173960222Y-106259500D01*
X173739778Y-106259500D01*
X173667201Y-106270995D01*
X173522047Y-106293985D01*
X173312396Y-106362103D01*
X173312393Y-106362104D01*
X173115974Y-106462187D01*
X172937641Y-106591752D01*
X172937636Y-106591756D01*
X172781756Y-106747636D01*
X172781752Y-106747641D01*
X172652187Y-106925974D01*
X172552104Y-107122393D01*
X172552103Y-107122396D01*
X172483985Y-107332047D01*
X172449500Y-107549778D01*
X172449500Y-108770221D01*
X172483985Y-108987952D01*
X172552103Y-109197603D01*
X172552104Y-109197606D01*
X172586290Y-109264698D01*
X172639884Y-109369881D01*
X172652187Y-109394025D01*
X172686060Y-109440648D01*
X172709540Y-109506454D01*
X172693714Y-109574508D01*
X172658627Y-109613851D01*
X172537641Y-109701752D01*
X172537636Y-109701756D01*
X172381756Y-109857636D01*
X172381752Y-109857641D01*
X172252187Y-110035974D01*
X172152104Y-110232393D01*
X172152103Y-110232396D01*
X172083985Y-110442047D01*
X172081224Y-110459480D01*
X172049500Y-110659778D01*
X170600500Y-110659778D01*
X170600500Y-108990096D01*
X170620185Y-108923057D01*
X170636815Y-108902419D01*
X171168506Y-108370727D01*
X171168511Y-108370724D01*
X171178714Y-108360520D01*
X171178716Y-108360520D01*
X171290520Y-108248716D01*
X171358816Y-108130423D01*
X171369577Y-108111785D01*
X171410501Y-107959057D01*
X171410501Y-107957215D01*
X171414199Y-107945516D01*
X171427836Y-107925225D01*
X171437714Y-107902861D01*
X171448741Y-107894120D01*
X171453173Y-107887526D01*
X171461718Y-107883833D01*
X171476137Y-107872404D01*
X171544022Y-107837815D01*
X171722365Y-107708242D01*
X171878242Y-107552365D01*
X172007815Y-107374022D01*
X172107895Y-107177606D01*
X172176015Y-106967951D01*
X172210500Y-106750222D01*
X172210500Y-105529778D01*
X172176015Y-105312049D01*
X172107895Y-105102394D01*
X172107895Y-105102393D01*
X172073237Y-105034375D01*
X172007815Y-104905978D01*
X171918187Y-104782615D01*
X171878247Y-104727641D01*
X171878243Y-104727636D01*
X171722363Y-104571756D01*
X171722358Y-104571752D01*
X171544025Y-104442187D01*
X171544024Y-104442186D01*
X171544022Y-104442185D01*
X171457696Y-104398199D01*
X171347606Y-104342104D01*
X171347603Y-104342103D01*
X171137952Y-104273985D01*
X171029086Y-104256742D01*
X170920222Y-104239500D01*
X170699778Y-104239500D01*
X170634134Y-104249897D01*
X170482047Y-104273985D01*
X170272396Y-104342103D01*
X170272393Y-104342104D01*
X170075974Y-104442187D01*
X169897641Y-104571752D01*
X169897636Y-104571756D01*
X169741756Y-104727636D01*
X169741752Y-104727641D01*
X169640318Y-104867254D01*
X169584988Y-104909920D01*
X169515375Y-104915899D01*
X169453580Y-104883293D01*
X169439682Y-104867254D01*
X169338247Y-104727641D01*
X169338243Y-104727636D01*
X169182363Y-104571756D01*
X169182358Y-104571752D01*
X169004025Y-104442187D01*
X169004024Y-104442186D01*
X169004022Y-104442185D01*
X168917696Y-104398199D01*
X168807606Y-104342104D01*
X168807603Y-104342103D01*
X168597952Y-104273985D01*
X168489086Y-104256742D01*
X168380222Y-104239500D01*
X168159778Y-104239500D01*
X168094134Y-104249897D01*
X167942047Y-104273985D01*
X167732396Y-104342103D01*
X167732393Y-104342104D01*
X167535974Y-104442187D01*
X167357641Y-104571752D01*
X167357636Y-104571756D01*
X167201756Y-104727636D01*
X167201752Y-104727641D01*
X167100318Y-104867254D01*
X167044988Y-104909920D01*
X166975375Y-104915899D01*
X166913580Y-104883293D01*
X166899682Y-104867254D01*
X166798247Y-104727641D01*
X166798243Y-104727636D01*
X166642363Y-104571756D01*
X166642358Y-104571752D01*
X166464025Y-104442187D01*
X166464024Y-104442186D01*
X166464022Y-104442185D01*
X166377696Y-104398199D01*
X166267606Y-104342104D01*
X166267603Y-104342103D01*
X166057952Y-104273985D01*
X165949086Y-104256742D01*
X165840222Y-104239500D01*
X165619778Y-104239500D01*
X165554134Y-104249897D01*
X165402047Y-104273985D01*
X165192396Y-104342103D01*
X165192393Y-104342104D01*
X164995974Y-104442187D01*
X164817641Y-104571752D01*
X164817636Y-104571756D01*
X164661756Y-104727636D01*
X164661752Y-104727641D01*
X164560318Y-104867254D01*
X164504988Y-104909920D01*
X164435375Y-104915899D01*
X164373580Y-104883293D01*
X164359682Y-104867254D01*
X164258247Y-104727641D01*
X164258243Y-104727636D01*
X164102363Y-104571756D01*
X164102358Y-104571752D01*
X163924025Y-104442187D01*
X163924024Y-104442186D01*
X163924022Y-104442185D01*
X163837696Y-104398199D01*
X163727606Y-104342104D01*
X163727603Y-104342103D01*
X163517952Y-104273985D01*
X163409086Y-104256742D01*
X163300222Y-104239500D01*
X163079778Y-104239500D01*
X163014134Y-104249897D01*
X162862047Y-104273985D01*
X162652396Y-104342103D01*
X162652393Y-104342104D01*
X162455974Y-104442187D01*
X162277641Y-104571752D01*
X162277636Y-104571756D01*
X162121756Y-104727636D01*
X162121752Y-104727641D01*
X162020318Y-104867254D01*
X161964988Y-104909920D01*
X161895375Y-104915899D01*
X161833580Y-104883293D01*
X161819682Y-104867254D01*
X161718247Y-104727641D01*
X161718243Y-104727636D01*
X161562363Y-104571756D01*
X161562358Y-104571752D01*
X161384025Y-104442187D01*
X161384024Y-104442186D01*
X161384022Y-104442185D01*
X161297696Y-104398199D01*
X161187606Y-104342104D01*
X161187603Y-104342103D01*
X160977952Y-104273985D01*
X160869086Y-104256742D01*
X160760222Y-104239500D01*
X160539778Y-104239500D01*
X160474134Y-104249897D01*
X160322047Y-104273985D01*
X160112396Y-104342103D01*
X160112393Y-104342104D01*
X159915974Y-104442187D01*
X159737641Y-104571752D01*
X159737636Y-104571756D01*
X159581756Y-104727636D01*
X159581752Y-104727641D01*
X159480318Y-104867254D01*
X159424988Y-104909920D01*
X159355375Y-104915899D01*
X159293580Y-104883293D01*
X159279682Y-104867254D01*
X159178247Y-104727641D01*
X159178243Y-104727636D01*
X159022363Y-104571756D01*
X159022358Y-104571752D01*
X158844023Y-104442185D01*
X158778204Y-104408648D01*
X158767140Y-104398199D01*
X158753297Y-104391877D01*
X158742255Y-104374696D01*
X158727409Y-104360674D01*
X158723167Y-104344994D01*
X158715523Y-104333099D01*
X158710500Y-104298164D01*
X158710500Y-104080097D01*
X158730185Y-104013058D01*
X158746819Y-103992416D01*
X161772417Y-100966819D01*
X161833740Y-100933334D01*
X161860098Y-100930500D01*
X172325500Y-100930500D01*
X172392539Y-100950185D01*
X172438294Y-101002989D01*
X172449500Y-101054500D01*
X172449500Y-101150221D01*
X172483985Y-101367952D01*
X172552103Y-101577603D01*
X172552104Y-101577606D01*
X172652187Y-101774025D01*
X172781752Y-101952358D01*
X172781756Y-101952363D01*
X172937636Y-102108243D01*
X172937641Y-102108247D01*
X173093192Y-102221260D01*
X173115978Y-102237815D01*
X173244375Y-102303237D01*
X173312393Y-102337895D01*
X173312396Y-102337896D01*
X173417221Y-102371955D01*
X173522049Y-102406015D01*
X173739778Y-102440500D01*
X173739779Y-102440500D01*
X173960221Y-102440500D01*
X173960222Y-102440500D01*
X174177951Y-102406015D01*
X174387606Y-102337895D01*
X174584022Y-102237815D01*
X174762365Y-102108242D01*
X174918242Y-101952365D01*
X175047815Y-101774022D01*
X175147895Y-101577606D01*
X175216015Y-101367951D01*
X175250500Y-101150222D01*
X175250500Y-99929778D01*
X175216015Y-99712049D01*
X175147895Y-99502394D01*
X175147895Y-99502393D01*
X175113237Y-99434375D01*
X175047815Y-99305978D01*
X175031260Y-99283192D01*
X174918247Y-99127641D01*
X174918243Y-99127636D01*
X174762363Y-98971756D01*
X174762358Y-98971752D01*
X174584025Y-98842187D01*
X174584024Y-98842186D01*
X174584022Y-98842185D01*
X174521096Y-98810122D01*
X174387606Y-98742104D01*
X174387603Y-98742103D01*
X174177952Y-98673985D01*
X174069086Y-98656742D01*
X173960222Y-98639500D01*
X173739778Y-98639500D01*
X173667201Y-98650995D01*
X173522047Y-98673985D01*
X173312396Y-98742103D01*
X173312393Y-98742104D01*
X173115974Y-98842187D01*
X172937641Y-98971752D01*
X172937636Y-98971756D01*
X172781756Y-99127636D01*
X172781752Y-99127641D01*
X172652187Y-99305974D01*
X172552104Y-99502393D01*
X172552103Y-99502396D01*
X172506154Y-99643818D01*
X172466717Y-99701493D01*
X172402359Y-99728692D01*
X172388223Y-99729500D01*
X161646670Y-99729500D01*
X161646654Y-99729499D01*
X161639058Y-99729499D01*
X161480943Y-99729499D01*
X161328215Y-99770423D01*
X161328213Y-99770423D01*
X161328213Y-99770424D01*
X161191281Y-99849482D01*
X157629481Y-103411282D01*
X157629479Y-103411285D01*
X157579361Y-103498094D01*
X157579359Y-103498096D01*
X157550425Y-103548209D01*
X157550424Y-103548210D01*
X157550423Y-103548215D01*
X157509499Y-103700943D01*
X157509499Y-103700945D01*
X157509499Y-103869046D01*
X157509500Y-103869059D01*
X157509500Y-104298164D01*
X157489815Y-104365203D01*
X157441796Y-104408648D01*
X157375976Y-104442185D01*
X157197641Y-104571752D01*
X157197636Y-104571756D01*
X157041756Y-104727636D01*
X157041752Y-104727641D01*
X156940318Y-104867254D01*
X156884988Y-104909920D01*
X156815375Y-104915899D01*
X156753580Y-104883293D01*
X156739682Y-104867254D01*
X156638247Y-104727641D01*
X156638243Y-104727636D01*
X156482363Y-104571756D01*
X156482358Y-104571752D01*
X156304025Y-104442187D01*
X156304024Y-104442186D01*
X156304022Y-104442185D01*
X156217696Y-104398199D01*
X156107606Y-104342104D01*
X156107603Y-104342103D01*
X155897952Y-104273985D01*
X155789086Y-104256742D01*
X155680222Y-104239500D01*
X155459778Y-104239500D01*
X155394134Y-104249897D01*
X155242047Y-104273985D01*
X155032396Y-104342103D01*
X155032393Y-104342104D01*
X154835974Y-104442187D01*
X154657641Y-104571752D01*
X154657636Y-104571756D01*
X154501756Y-104727636D01*
X154501752Y-104727641D01*
X154400318Y-104867254D01*
X154344988Y-104909920D01*
X154275375Y-104915899D01*
X154213580Y-104883293D01*
X154199682Y-104867254D01*
X154098247Y-104727641D01*
X154098243Y-104727636D01*
X153942363Y-104571756D01*
X153942358Y-104571752D01*
X153764025Y-104442187D01*
X153764024Y-104442186D01*
X153764022Y-104442185D01*
X153677696Y-104398199D01*
X153567606Y-104342104D01*
X153567603Y-104342103D01*
X153357952Y-104273985D01*
X153249086Y-104256742D01*
X153140222Y-104239500D01*
X152919778Y-104239500D01*
X152854134Y-104249897D01*
X152702047Y-104273985D01*
X152492396Y-104342103D01*
X152492393Y-104342104D01*
X152295974Y-104442187D01*
X152117641Y-104571752D01*
X152117636Y-104571756D01*
X151961756Y-104727636D01*
X151961752Y-104727641D01*
X151860318Y-104867254D01*
X151804988Y-104909920D01*
X151735375Y-104915899D01*
X151673580Y-104883293D01*
X151659682Y-104867254D01*
X151558247Y-104727641D01*
X151558243Y-104727636D01*
X151402363Y-104571756D01*
X151402358Y-104571752D01*
X151224025Y-104442187D01*
X151224024Y-104442186D01*
X151224022Y-104442185D01*
X151137696Y-104398199D01*
X151027606Y-104342104D01*
X151027603Y-104342103D01*
X150817952Y-104273985D01*
X150709086Y-104256742D01*
X150600222Y-104239500D01*
X150379778Y-104239500D01*
X150314134Y-104249897D01*
X150162047Y-104273985D01*
X149952396Y-104342103D01*
X149952393Y-104342104D01*
X149755974Y-104442187D01*
X149577641Y-104571752D01*
X149577636Y-104571756D01*
X149421756Y-104727636D01*
X149421752Y-104727641D01*
X149320318Y-104867254D01*
X149264988Y-104909920D01*
X149195375Y-104915899D01*
X149133580Y-104883293D01*
X149119682Y-104867254D01*
X149018247Y-104727641D01*
X149018243Y-104727636D01*
X148862363Y-104571756D01*
X148862358Y-104571752D01*
X148684025Y-104442187D01*
X148684024Y-104442186D01*
X148684022Y-104442185D01*
X148597696Y-104398199D01*
X148487606Y-104342104D01*
X148487603Y-104342103D01*
X148277952Y-104273985D01*
X148169086Y-104256742D01*
X148060222Y-104239500D01*
X147839778Y-104239500D01*
X147774134Y-104249897D01*
X147622047Y-104273985D01*
X147412396Y-104342103D01*
X147412393Y-104342104D01*
X147215974Y-104442187D01*
X147037641Y-104571752D01*
X147037636Y-104571756D01*
X146881756Y-104727636D01*
X146881752Y-104727641D01*
X146780318Y-104867254D01*
X146724988Y-104909920D01*
X146655375Y-104915899D01*
X146593580Y-104883293D01*
X146579682Y-104867254D01*
X146478247Y-104727641D01*
X146478243Y-104727636D01*
X146322363Y-104571756D01*
X146322358Y-104571752D01*
X146144025Y-104442187D01*
X146144024Y-104442186D01*
X146144022Y-104442185D01*
X146057696Y-104398199D01*
X145947606Y-104342104D01*
X145947603Y-104342103D01*
X145737952Y-104273985D01*
X145629086Y-104256742D01*
X145520222Y-104239500D01*
X145299778Y-104239500D01*
X145234134Y-104249897D01*
X145082047Y-104273985D01*
X144872396Y-104342103D01*
X144872393Y-104342104D01*
X144675974Y-104442187D01*
X144497641Y-104571752D01*
X144497636Y-104571756D01*
X144341756Y-104727636D01*
X144301811Y-104782616D01*
X144246480Y-104825281D01*
X144176867Y-104831260D01*
X144115072Y-104798654D01*
X144101175Y-104782615D01*
X144014138Y-104662819D01*
X144014133Y-104662813D01*
X143847186Y-104495866D01*
X143656171Y-104357085D01*
X143445802Y-104249897D01*
X143221247Y-104176934D01*
X143120000Y-104160897D01*
X143120000Y-105706988D01*
X143062993Y-105674075D01*
X142935826Y-105640000D01*
X142804174Y-105640000D01*
X142677007Y-105674075D01*
X142620000Y-105706988D01*
X142620000Y-104160897D01*
X142518752Y-104176934D01*
X142294197Y-104249897D01*
X142083828Y-104357085D01*
X141892813Y-104495866D01*
X141725866Y-104662813D01*
X141725866Y-104662814D01*
X141638824Y-104782616D01*
X141583494Y-104825281D01*
X141513880Y-104831260D01*
X141452085Y-104798654D01*
X141438188Y-104782615D01*
X141398247Y-104727641D01*
X141398243Y-104727636D01*
X141242363Y-104571756D01*
X141242358Y-104571752D01*
X141064025Y-104442187D01*
X141064024Y-104442186D01*
X141064022Y-104442185D01*
X140977696Y-104398199D01*
X140867606Y-104342104D01*
X140867603Y-104342103D01*
X140657952Y-104273985D01*
X140549086Y-104256742D01*
X140440222Y-104239500D01*
X140219778Y-104239500D01*
X140154134Y-104249897D01*
X140002047Y-104273985D01*
X139792396Y-104342103D01*
X139792393Y-104342104D01*
X139595974Y-104442187D01*
X139417641Y-104571752D01*
X139417636Y-104571756D01*
X139261756Y-104727636D01*
X139261752Y-104727641D01*
X139160318Y-104867254D01*
X139104988Y-104909920D01*
X139035375Y-104915899D01*
X138973580Y-104883293D01*
X138959682Y-104867254D01*
X138858247Y-104727641D01*
X138858243Y-104727636D01*
X138702363Y-104571756D01*
X138702358Y-104571752D01*
X138524025Y-104442187D01*
X138524024Y-104442186D01*
X138524022Y-104442185D01*
X138437696Y-104398199D01*
X138327606Y-104342104D01*
X138327603Y-104342103D01*
X138117952Y-104273985D01*
X138009086Y-104256742D01*
X137900222Y-104239500D01*
X137679778Y-104239500D01*
X137614134Y-104249897D01*
X137462047Y-104273985D01*
X137252396Y-104342103D01*
X137252393Y-104342104D01*
X137055974Y-104442187D01*
X136877641Y-104571752D01*
X136877636Y-104571756D01*
X136721756Y-104727636D01*
X136721752Y-104727641D01*
X136620318Y-104867254D01*
X136564988Y-104909920D01*
X136495375Y-104915899D01*
X136433580Y-104883293D01*
X136419682Y-104867254D01*
X136318247Y-104727641D01*
X136318243Y-104727636D01*
X136162363Y-104571756D01*
X136162358Y-104571752D01*
X135984025Y-104442187D01*
X135984024Y-104442186D01*
X135984022Y-104442185D01*
X135897696Y-104398199D01*
X135787606Y-104342104D01*
X135787603Y-104342103D01*
X135577952Y-104273985D01*
X135469086Y-104256742D01*
X135360222Y-104239500D01*
X135139778Y-104239500D01*
X135074134Y-104249897D01*
X134922047Y-104273985D01*
X134712396Y-104342103D01*
X134712393Y-104342104D01*
X134515974Y-104442187D01*
X134337641Y-104571752D01*
X134337636Y-104571756D01*
X134181756Y-104727636D01*
X134181752Y-104727641D01*
X134052187Y-104905974D01*
X133952104Y-105102393D01*
X133952103Y-105102396D01*
X133883985Y-105312047D01*
X133849500Y-105529778D01*
X133849500Y-106750221D01*
X133883985Y-106967952D01*
X133952103Y-107177603D01*
X133952104Y-107177606D01*
X134020122Y-107311096D01*
X134050175Y-107370078D01*
X134052187Y-107374025D01*
X134181752Y-107552358D01*
X134181756Y-107552363D01*
X134337636Y-107708243D01*
X134337641Y-107708247D01*
X134467888Y-107802876D01*
X134515978Y-107837815D01*
X134626482Y-107894120D01*
X134712393Y-107937895D01*
X134712396Y-107937896D01*
X134777525Y-107959057D01*
X134922049Y-108006015D01*
X135139778Y-108040500D01*
X135139779Y-108040500D01*
X135360221Y-108040500D01*
X135360222Y-108040500D01*
X135577951Y-108006015D01*
X135787606Y-107937895D01*
X135984022Y-107837815D01*
X136162365Y-107708242D01*
X136318242Y-107552365D01*
X136336488Y-107527252D01*
X136419682Y-107412745D01*
X136475011Y-107370079D01*
X136544625Y-107364100D01*
X136606420Y-107396705D01*
X136620318Y-107412745D01*
X136721752Y-107552358D01*
X136721756Y-107552363D01*
X136877636Y-107708243D01*
X136877641Y-107708247D01*
X137007888Y-107802876D01*
X137055978Y-107837815D01*
X137166482Y-107894120D01*
X137252393Y-107937895D01*
X137252396Y-107937896D01*
X137317525Y-107959057D01*
X137462049Y-108006015D01*
X137679778Y-108040500D01*
X137679779Y-108040500D01*
X137900221Y-108040500D01*
X137900222Y-108040500D01*
X138117951Y-108006015D01*
X138327606Y-107937895D01*
X138524022Y-107837815D01*
X138702365Y-107708242D01*
X138858242Y-107552365D01*
X138876488Y-107527252D01*
X138959682Y-107412745D01*
X139015011Y-107370079D01*
X139084625Y-107364100D01*
X139146420Y-107396705D01*
X139160318Y-107412745D01*
X139261752Y-107552358D01*
X139261756Y-107552363D01*
X139417636Y-107708243D01*
X139417641Y-107708247D01*
X139547888Y-107802876D01*
X139595978Y-107837815D01*
X139706482Y-107894120D01*
X139792393Y-107937895D01*
X139792396Y-107937896D01*
X139857525Y-107959057D01*
X140002049Y-108006015D01*
X140219778Y-108040500D01*
X140219779Y-108040500D01*
X140440221Y-108040500D01*
X140440222Y-108040500D01*
X140657951Y-108006015D01*
X140867606Y-107937895D01*
X141064022Y-107837815D01*
X141242365Y-107708242D01*
X141398242Y-107552365D01*
X141438187Y-107497384D01*
X141493516Y-107454718D01*
X141563130Y-107448738D01*
X141624925Y-107481344D01*
X141638824Y-107497384D01*
X141725861Y-107617180D01*
X141725866Y-107617186D01*
X141892813Y-107784133D01*
X142083828Y-107922914D01*
X142294195Y-108030102D01*
X142518744Y-108103063D01*
X142518750Y-108103065D01*
X142620000Y-108119101D01*
X142620000Y-106573012D01*
X142677007Y-106605925D01*
X142804174Y-106640000D01*
X142935826Y-106640000D01*
X143062993Y-106605925D01*
X143120000Y-106573012D01*
X143120000Y-108119100D01*
X143221249Y-108103065D01*
X143221255Y-108103063D01*
X143445804Y-108030102D01*
X143656171Y-107922914D01*
X143847186Y-107784133D01*
X144014133Y-107617186D01*
X144014138Y-107617180D01*
X144101175Y-107497384D01*
X144156504Y-107454718D01*
X144226118Y-107448739D01*
X144287913Y-107481344D01*
X144301811Y-107497384D01*
X144341752Y-107552358D01*
X144341756Y-107552363D01*
X144497636Y-107708243D01*
X144497641Y-107708247D01*
X144675976Y-107837814D01*
X144741794Y-107871350D01*
X144752858Y-107881799D01*
X144766703Y-107888122D01*
X144777743Y-107905301D01*
X144792591Y-107919324D01*
X144796832Y-107935005D01*
X144804477Y-107946900D01*
X144809500Y-107981835D01*
X144809500Y-108039902D01*
X144789815Y-108106941D01*
X144773181Y-108127583D01*
X143297584Y-109603181D01*
X143236261Y-109636666D01*
X143209903Y-109639500D01*
X142874499Y-109639500D01*
X142807460Y-109619815D01*
X142761705Y-109567011D01*
X142750499Y-109515500D01*
X142750499Y-109358482D01*
X142742617Y-109308716D01*
X142735646Y-109264696D01*
X142678050Y-109151658D01*
X142678046Y-109151654D01*
X142678045Y-109151652D01*
X142588347Y-109061954D01*
X142588344Y-109061952D01*
X142588342Y-109061950D01*
X142511517Y-109022805D01*
X142475301Y-109004352D01*
X142381524Y-108989500D01*
X140618482Y-108989500D01*
X140537519Y-109002323D01*
X140524696Y-109004354D01*
X140411658Y-109061950D01*
X140411657Y-109061951D01*
X140411652Y-109061954D01*
X140321954Y-109151652D01*
X140321951Y-109151657D01*
X140264352Y-109264698D01*
X140249500Y-109358475D01*
X140249500Y-111121517D01*
X140260146Y-111188735D01*
X140264354Y-111215304D01*
X140321950Y-111328342D01*
X140321952Y-111328344D01*
X140321954Y-111328347D01*
X140411652Y-111418045D01*
X140411654Y-111418046D01*
X140411658Y-111418050D01*
X140492969Y-111459480D01*
X140524698Y-111475647D01*
X140618475Y-111490499D01*
X140618481Y-111490500D01*
X142381518Y-111490499D01*
X142475304Y-111475646D01*
X142588342Y-111418050D01*
X142678050Y-111328342D01*
X142735646Y-111215304D01*
X142735646Y-111215302D01*
X142735647Y-111215301D01*
X142750500Y-111121524D01*
X142750500Y-110964500D01*
X142770185Y-110897461D01*
X142822989Y-110851706D01*
X142874500Y-110840500D01*
X143423331Y-110840500D01*
X143423347Y-110840501D01*
X143430943Y-110840501D01*
X143589054Y-110840501D01*
X143589057Y-110840501D01*
X143741785Y-110799577D01*
X143791904Y-110770639D01*
X143878716Y-110720520D01*
X143990520Y-110608716D01*
X143990520Y-110608714D01*
X144000728Y-110598507D01*
X144000729Y-110598504D01*
X145890520Y-108708716D01*
X145969577Y-108571784D01*
X146010501Y-108419057D01*
X146010501Y-108260942D01*
X146010501Y-108253347D01*
X146010500Y-108253329D01*
X146010500Y-107981835D01*
X146030185Y-107914796D01*
X146078206Y-107871350D01*
X146078547Y-107871175D01*
X146144022Y-107837815D01*
X146322365Y-107708242D01*
X146478242Y-107552365D01*
X146496488Y-107527252D01*
X146579682Y-107412745D01*
X146635011Y-107370079D01*
X146704625Y-107364100D01*
X146766420Y-107396705D01*
X146780318Y-107412745D01*
X146881752Y-107552358D01*
X146881756Y-107552363D01*
X147037636Y-107708243D01*
X147037641Y-107708247D01*
X147215976Y-107837814D01*
X147281794Y-107871350D01*
X147332591Y-107919324D01*
X147349500Y-107981835D01*
X147349500Y-111903330D01*
X147349499Y-111903348D01*
X147349499Y-112069054D01*
X147349498Y-112069054D01*
X147390423Y-112221785D01*
X147419358Y-112271900D01*
X147419359Y-112271904D01*
X147419360Y-112271904D01*
X147437417Y-112303181D01*
X147469479Y-112358714D01*
X147469481Y-112358717D01*
X147588349Y-112477585D01*
X147588355Y-112477590D01*
X148263181Y-113152416D01*
X148296666Y-113213739D01*
X148299500Y-113240097D01*
X148299500Y-114155701D01*
X148302401Y-114192567D01*
X148302402Y-114192573D01*
X148348254Y-114350393D01*
X148348255Y-114350396D01*
X148431917Y-114491862D01*
X148431923Y-114491870D01*
X148548129Y-114608076D01*
X148548133Y-114608079D01*
X148548135Y-114608081D01*
X148689602Y-114691744D01*
X148690721Y-114692069D01*
X148847426Y-114737597D01*
X148847429Y-114737597D01*
X148847431Y-114737598D01*
X148884306Y-114740500D01*
X148884314Y-114740500D01*
X148968090Y-114740500D01*
X149035129Y-114760185D01*
X149080884Y-114812989D01*
X149090828Y-114882147D01*
X149061803Y-114945703D01*
X149024385Y-114974985D01*
X148870800Y-115053240D01*
X148783579Y-115116610D01*
X148717927Y-115164310D01*
X148717925Y-115164312D01*
X148717924Y-115164312D01*
X148584312Y-115297924D01*
X148584312Y-115297925D01*
X148584310Y-115297927D01*
X148543679Y-115353851D01*
X148473240Y-115450800D01*
X148387454Y-115619163D01*
X148329059Y-115798881D01*
X148299500Y-115985513D01*
X148299500Y-116174486D01*
X148329059Y-116361118D01*
X148387454Y-116540836D01*
X148455098Y-116673593D01*
X148473240Y-116709199D01*
X148584310Y-116862073D01*
X148717927Y-116995690D01*
X148870801Y-117106760D01*
X148921684Y-117132686D01*
X149039163Y-117192545D01*
X149039165Y-117192545D01*
X149039168Y-117192547D01*
X149075291Y-117204284D01*
X149160803Y-117232069D01*
X149218478Y-117271507D01*
X149245676Y-117335866D01*
X149233761Y-117404712D01*
X149186516Y-117456188D01*
X149160803Y-117467931D01*
X149039163Y-117507454D01*
X148870800Y-117593240D01*
X148793281Y-117649561D01*
X148729614Y-117695818D01*
X148663810Y-117719298D01*
X148656730Y-117719500D01*
X146481304Y-117719500D01*
X146307339Y-117754103D01*
X146307323Y-117754108D01*
X146191453Y-117802102D01*
X146191454Y-117802103D01*
X146143454Y-117821986D01*
X146024773Y-117901287D01*
X146024772Y-117901288D01*
X145995962Y-117920537D01*
X145995961Y-117920538D01*
X144050540Y-119865958D01*
X144050537Y-119865961D01*
X144023134Y-119906974D01*
X144013238Y-119921785D01*
X143992075Y-119953458D01*
X143951987Y-120013452D01*
X143933238Y-120058717D01*
X143890598Y-120161658D01*
X143884105Y-120177334D01*
X143855983Y-120318716D01*
X143855983Y-120318717D01*
X143849500Y-120351307D01*
X143849500Y-122823731D01*
X143829815Y-122890770D01*
X143798386Y-122924049D01*
X143685352Y-123006173D01*
X143546174Y-123145351D01*
X143546174Y-123145352D01*
X143546172Y-123145354D01*
X143527888Y-123170520D01*
X143430476Y-123304594D01*
X143341117Y-123479970D01*
X143280290Y-123667173D01*
X143249500Y-123861577D01*
X143249500Y-124058422D01*
X143280290Y-124252826D01*
X143341117Y-124440029D01*
X143424995Y-124604648D01*
X143430476Y-124615405D01*
X143546172Y-124774646D01*
X143685354Y-124913828D01*
X143838621Y-125025184D01*
X143881285Y-125080512D01*
X143887264Y-125150125D01*
X143854658Y-125211920D01*
X143793819Y-125246278D01*
X143765735Y-125249500D01*
X143618482Y-125249500D01*
X143537519Y-125262323D01*
X143524696Y-125264354D01*
X143411658Y-125321950D01*
X143411657Y-125321951D01*
X143411652Y-125321954D01*
X143321954Y-125411652D01*
X143321951Y-125411657D01*
X143264352Y-125524698D01*
X143249500Y-125618475D01*
X143249500Y-127381517D01*
X143258842Y-127440500D01*
X143264354Y-127475304D01*
X143321950Y-127588342D01*
X143321952Y-127588344D01*
X143321954Y-127588347D01*
X143411652Y-127678045D01*
X143411654Y-127678046D01*
X143411658Y-127678050D01*
X143524694Y-127735645D01*
X143524698Y-127735647D01*
X143618475Y-127750499D01*
X143618481Y-127750500D01*
X145381518Y-127750499D01*
X145475304Y-127735646D01*
X145588342Y-127678050D01*
X145678050Y-127588342D01*
X145735646Y-127475304D01*
X145735646Y-127475303D01*
X145739263Y-127468205D01*
X145787238Y-127417409D01*
X145849748Y-127400500D01*
X149077859Y-127400500D01*
X149144898Y-127420185D01*
X149190653Y-127472989D01*
X149200597Y-127542147D01*
X149171572Y-127605703D01*
X149116178Y-127642430D01*
X149095492Y-127649152D01*
X149039163Y-127667454D01*
X148870800Y-127753240D01*
X148802783Y-127802658D01*
X148717927Y-127864310D01*
X148717925Y-127864312D01*
X148717924Y-127864312D01*
X148584312Y-127997924D01*
X148584312Y-127997925D01*
X148584310Y-127997927D01*
X148552756Y-128041357D01*
X148473240Y-128150800D01*
X148387454Y-128319163D01*
X148329059Y-128498881D01*
X148299500Y-128685513D01*
X148299500Y-128874486D01*
X148329059Y-129061118D01*
X148387454Y-129240836D01*
X148448650Y-129360939D01*
X148473240Y-129409199D01*
X148584310Y-129562073D01*
X148717927Y-129695690D01*
X148870801Y-129806760D01*
X148950347Y-129847290D01*
X149039163Y-129892545D01*
X149039165Y-129892545D01*
X149039168Y-129892547D01*
X149125263Y-129920521D01*
X149160803Y-129932069D01*
X149218478Y-129971507D01*
X149245676Y-130035866D01*
X149233761Y-130104712D01*
X149186516Y-130156188D01*
X149160803Y-130167931D01*
X149039163Y-130207454D01*
X148870800Y-130293240D01*
X148796870Y-130346954D01*
X148717927Y-130404310D01*
X148717925Y-130404312D01*
X148717924Y-130404312D01*
X148584312Y-130537924D01*
X148584307Y-130537930D01*
X148547650Y-130588385D01*
X148492320Y-130631051D01*
X148447332Y-130639500D01*
X144612376Y-130639500D01*
X144556081Y-130625985D01*
X144460836Y-130577454D01*
X144281118Y-130519059D01*
X144094486Y-130489500D01*
X144094481Y-130489500D01*
X143905519Y-130489500D01*
X143905514Y-130489500D01*
X143718881Y-130519059D01*
X143539163Y-130577454D01*
X143473358Y-130610985D01*
X143417063Y-130624500D01*
X139849747Y-130624500D01*
X139782708Y-130604815D01*
X139739262Y-130556795D01*
X139735646Y-130549699D01*
X139735646Y-130549696D01*
X139678050Y-130436658D01*
X139678048Y-130436656D01*
X139678045Y-130436652D01*
X139588347Y-130346954D01*
X139588344Y-130346952D01*
X139588342Y-130346950D01*
X139482931Y-130293240D01*
X139475301Y-130289352D01*
X139381524Y-130274500D01*
X139381519Y-130274500D01*
X138809362Y-130274500D01*
X138742323Y-130254815D01*
X138721681Y-130238181D01*
X135686819Y-127203319D01*
X135653334Y-127141996D01*
X135650500Y-127115638D01*
X135650500Y-123419754D01*
X135670185Y-123352715D01*
X135686819Y-123332072D01*
X135690839Y-123328051D01*
X135690842Y-123328050D01*
X135780550Y-123238342D01*
X135836784Y-123127976D01*
X135884756Y-123077183D01*
X135952577Y-123060388D01*
X136018712Y-123082925D01*
X136034948Y-123096593D01*
X136093757Y-123155402D01*
X136278723Y-123289788D01*
X136482429Y-123393582D01*
X136699871Y-123464234D01*
X136790000Y-123478509D01*
X136790000Y-122490747D01*
X136827708Y-122512518D01*
X136967591Y-122550000D01*
X137112409Y-122550000D01*
X137252292Y-122512518D01*
X137290000Y-122490747D01*
X137290000Y-123478508D01*
X137380128Y-123464234D01*
X137597570Y-123393582D01*
X137801276Y-123289788D01*
X137986242Y-123155402D01*
X138147902Y-122993742D01*
X138147907Y-122993736D01*
X138271175Y-122824072D01*
X138326504Y-122781406D01*
X138396118Y-122775427D01*
X138457913Y-122808032D01*
X138471810Y-122824070D01*
X138547989Y-122928921D01*
X138698579Y-123079511D01*
X138870873Y-123204690D01*
X138936919Y-123238342D01*
X139060627Y-123301375D01*
X139060630Y-123301376D01*
X139140291Y-123327259D01*
X139263172Y-123367185D01*
X139343579Y-123379920D01*
X139473512Y-123400500D01*
X139473517Y-123400500D01*
X139686488Y-123400500D01*
X139788458Y-123384348D01*
X139896828Y-123367185D01*
X140099372Y-123301375D01*
X140289127Y-123204690D01*
X140461421Y-123079511D01*
X140612011Y-122928921D01*
X140737190Y-122756627D01*
X140833875Y-122566872D01*
X140899685Y-122364328D01*
X140921704Y-122225304D01*
X140933000Y-122153988D01*
X140933000Y-121846011D01*
X140903901Y-121662292D01*
X140899685Y-121635672D01*
X140866241Y-121532741D01*
X140833876Y-121433130D01*
X140833875Y-121433127D01*
X140746842Y-121262317D01*
X140737190Y-121243373D01*
X140612011Y-121071079D01*
X140461421Y-120920489D01*
X140289127Y-120795310D01*
X140252564Y-120776680D01*
X140099372Y-120698624D01*
X140099369Y-120698623D01*
X139896829Y-120632815D01*
X139686488Y-120599500D01*
X139686483Y-120599500D01*
X139473517Y-120599500D01*
X139473512Y-120599500D01*
X139263170Y-120632815D01*
X139060630Y-120698623D01*
X139060627Y-120698624D01*
X138870872Y-120795310D01*
X138774346Y-120865441D01*
X138698579Y-120920489D01*
X138698577Y-120920491D01*
X138698576Y-120920491D01*
X138547991Y-121071076D01*
X138547984Y-121071085D01*
X138471810Y-121175928D01*
X138416480Y-121218594D01*
X138346867Y-121224572D01*
X138285072Y-121191966D01*
X138271175Y-121175927D01*
X138147907Y-121006263D01*
X138147902Y-121006257D01*
X137986242Y-120844597D01*
X137801276Y-120710211D01*
X137597568Y-120606417D01*
X137380124Y-120535765D01*
X137290000Y-120521490D01*
X137290000Y-121509252D01*
X137252292Y-121487482D01*
X137112409Y-121450000D01*
X136967591Y-121450000D01*
X136827708Y-121487482D01*
X136790000Y-121509252D01*
X136790000Y-120521490D01*
X136789999Y-120521490D01*
X136699875Y-120535765D01*
X136482431Y-120606417D01*
X136278720Y-120710213D01*
X136097385Y-120841961D01*
X136031579Y-120865441D01*
X135963525Y-120849616D01*
X135914830Y-120799510D01*
X135900500Y-120741643D01*
X135900500Y-115364464D01*
X135902041Y-115359213D01*
X135900955Y-115353851D01*
X135911780Y-115326046D01*
X135920185Y-115297425D01*
X135924846Y-115292489D01*
X135926305Y-115288743D01*
X135951616Y-115264145D01*
X136009763Y-115221899D01*
X136009767Y-115221896D01*
X136032073Y-115205690D01*
X136165690Y-115072073D01*
X136276760Y-114919199D01*
X136333679Y-114807489D01*
X136381653Y-114756692D01*
X136449474Y-114739897D01*
X136515609Y-114762434D01*
X136554649Y-114807488D01*
X136638141Y-114971350D01*
X136638147Y-114971359D01*
X136670523Y-115015921D01*
X136670524Y-115015922D01*
X137350000Y-114336446D01*
X137350000Y-114342661D01*
X137377259Y-114444394D01*
X137429920Y-114535606D01*
X137504394Y-114610080D01*
X137595606Y-114662741D01*
X137697339Y-114690000D01*
X137703553Y-114690000D01*
X137024076Y-115369474D01*
X137068650Y-115401859D01*
X137250968Y-115494755D01*
X137445582Y-115557990D01*
X137647683Y-115590000D01*
X137852317Y-115590000D01*
X138054417Y-115557990D01*
X138249031Y-115494755D01*
X138431349Y-115401859D01*
X138475921Y-115369474D01*
X137796447Y-114690000D01*
X137802661Y-114690000D01*
X137904394Y-114662741D01*
X137995606Y-114610080D01*
X138070080Y-114535606D01*
X138122741Y-114444394D01*
X138150000Y-114342661D01*
X138150000Y-114336448D01*
X138829474Y-115015922D01*
X138829474Y-115015921D01*
X138861859Y-114971349D01*
X138954755Y-114789031D01*
X139017990Y-114594417D01*
X139050000Y-114392317D01*
X139050000Y-114187682D01*
X139017990Y-113985582D01*
X138954755Y-113790968D01*
X138861859Y-113608650D01*
X138829474Y-113564077D01*
X138829474Y-113564076D01*
X138150000Y-114243551D01*
X138150000Y-114237339D01*
X138122741Y-114135606D01*
X138070080Y-114044394D01*
X137995606Y-113969920D01*
X137904394Y-113917259D01*
X137802661Y-113890000D01*
X137796446Y-113890000D01*
X138475922Y-113210524D01*
X138475921Y-113210523D01*
X138431359Y-113178147D01*
X138431350Y-113178141D01*
X138249031Y-113085244D01*
X138054417Y-113022009D01*
X137852317Y-112990000D01*
X137647683Y-112990000D01*
X137445582Y-113022009D01*
X137250968Y-113085244D01*
X137068644Y-113178143D01*
X137024077Y-113210523D01*
X137024077Y-113210524D01*
X137703554Y-113890000D01*
X137697339Y-113890000D01*
X137595606Y-113917259D01*
X137504394Y-113969920D01*
X137429920Y-114044394D01*
X137377259Y-114135606D01*
X137350000Y-114237339D01*
X137350000Y-114243553D01*
X136670524Y-113564077D01*
X136670523Y-113564077D01*
X136638143Y-113608644D01*
X136554649Y-113772511D01*
X136506674Y-113823307D01*
X136438853Y-113840102D01*
X136372718Y-113817564D01*
X136333679Y-113772511D01*
X136291903Y-113690521D01*
X136276760Y-113660801D01*
X136165690Y-113507927D01*
X136032073Y-113374310D01*
X136025100Y-113369244D01*
X136009762Y-113358100D01*
X135879199Y-113263240D01*
X135710834Y-113177454D01*
X135710833Y-113177453D01*
X135710832Y-113177453D01*
X135531118Y-113119060D01*
X135531116Y-113119059D01*
X135406276Y-113099286D01*
X135343142Y-113069356D01*
X135337994Y-113064494D01*
X133346819Y-111073319D01*
X133313334Y-111011996D01*
X133310500Y-110985638D01*
X133310500Y-94064361D01*
X133330185Y-93997322D01*
X133346814Y-93976685D01*
X134593158Y-92730340D01*
X134654479Y-92696857D01*
X134719155Y-92700092D01*
X134803952Y-92727643D01*
X134922049Y-92766015D01*
X135139778Y-92800500D01*
X135139779Y-92800500D01*
X135360221Y-92800500D01*
X135360222Y-92800500D01*
X135577951Y-92766015D01*
X135787606Y-92697895D01*
X135984022Y-92597815D01*
X136162365Y-92468242D01*
X136318242Y-92312365D01*
X136358187Y-92257384D01*
X136413516Y-92214718D01*
X136483130Y-92208738D01*
X136544925Y-92241344D01*
X136558824Y-92257384D01*
X136645861Y-92377180D01*
X136645866Y-92377186D01*
X136812813Y-92544133D01*
X137003828Y-92682914D01*
X137214195Y-92790102D01*
X137438744Y-92863063D01*
X137438750Y-92863065D01*
X137540000Y-92879101D01*
X137540000Y-91333012D01*
X137597007Y-91365925D01*
X137724174Y-91400000D01*
X137855826Y-91400000D01*
X137982993Y-91365925D01*
X138040000Y-91333012D01*
X138040000Y-92879100D01*
X138141249Y-92863065D01*
X138141255Y-92863063D01*
X138365804Y-92790102D01*
X138576171Y-92682914D01*
X138767186Y-92544133D01*
X138934133Y-92377186D01*
X138934138Y-92377180D01*
X139021175Y-92257384D01*
X139076504Y-92214718D01*
X139146118Y-92208739D01*
X139207913Y-92241344D01*
X139221811Y-92257384D01*
X139261752Y-92312358D01*
X139261756Y-92312363D01*
X139417636Y-92468243D01*
X139417641Y-92468247D01*
X139573192Y-92581260D01*
X139595978Y-92597815D01*
X139709076Y-92655442D01*
X139792393Y-92697895D01*
X139792396Y-92697896D01*
X139892257Y-92730342D01*
X140002049Y-92766015D01*
X140219778Y-92800500D01*
X140219779Y-92800500D01*
X140440221Y-92800500D01*
X140440222Y-92800500D01*
X140657951Y-92766015D01*
X140867606Y-92697895D01*
X141064022Y-92597815D01*
X141242365Y-92468242D01*
X141398242Y-92312365D01*
X141438188Y-92257384D01*
X141499682Y-92172745D01*
X141555011Y-92130079D01*
X141624625Y-92124100D01*
X141686420Y-92156705D01*
X141700318Y-92172745D01*
X141801752Y-92312358D01*
X141801756Y-92312363D01*
X141957636Y-92468243D01*
X141957641Y-92468247D01*
X142113192Y-92581260D01*
X142135978Y-92597815D01*
X142249076Y-92655442D01*
X142332393Y-92697895D01*
X142332396Y-92697896D01*
X142432257Y-92730342D01*
X142542049Y-92766015D01*
X142759778Y-92800500D01*
X142759779Y-92800500D01*
X142980221Y-92800500D01*
X142980222Y-92800500D01*
X143197951Y-92766015D01*
X143407606Y-92697895D01*
X143604022Y-92597815D01*
X143782365Y-92468242D01*
X143938242Y-92312365D01*
X143978188Y-92257384D01*
X144039682Y-92172745D01*
X144095011Y-92130079D01*
X144164625Y-92124100D01*
X144226420Y-92156705D01*
X144240318Y-92172745D01*
X144341752Y-92312358D01*
X144341756Y-92312363D01*
X144497636Y-92468243D01*
X144497641Y-92468247D01*
X144653192Y-92581260D01*
X144675978Y-92597815D01*
X144789076Y-92655442D01*
X144872393Y-92697895D01*
X144872396Y-92697896D01*
X144972257Y-92730342D01*
X145082049Y-92766015D01*
X145299778Y-92800500D01*
X145299779Y-92800500D01*
X145520221Y-92800500D01*
X145520222Y-92800500D01*
X145737951Y-92766015D01*
X145947606Y-92697895D01*
X146144022Y-92597815D01*
X146322365Y-92468242D01*
X146478242Y-92312365D01*
X146518188Y-92257384D01*
X146579682Y-92172745D01*
X146635011Y-92130079D01*
X146704625Y-92124100D01*
X146766420Y-92156705D01*
X146780318Y-92172745D01*
X146881752Y-92312358D01*
X146881756Y-92312363D01*
X147037636Y-92468243D01*
X147037641Y-92468247D01*
X147193192Y-92581260D01*
X147215978Y-92597815D01*
X147329076Y-92655442D01*
X147412393Y-92697895D01*
X147412396Y-92697896D01*
X147512257Y-92730342D01*
X147622049Y-92766015D01*
X147839778Y-92800500D01*
X147839779Y-92800500D01*
X148060221Y-92800500D01*
X148060222Y-92800500D01*
X148277951Y-92766015D01*
X148487606Y-92697895D01*
X148684022Y-92597815D01*
X148862365Y-92468242D01*
X149018242Y-92312365D01*
X149058188Y-92257384D01*
X149119682Y-92172745D01*
X149175011Y-92130079D01*
X149244625Y-92124100D01*
X149306420Y-92156705D01*
X149320318Y-92172745D01*
X149421752Y-92312358D01*
X149421756Y-92312363D01*
X149577636Y-92468243D01*
X149577641Y-92468247D01*
X149733192Y-92581260D01*
X149755978Y-92597815D01*
X149869076Y-92655442D01*
X149952393Y-92697895D01*
X149952396Y-92697896D01*
X150052257Y-92730342D01*
X150162049Y-92766015D01*
X150379778Y-92800500D01*
X150379779Y-92800500D01*
X150600221Y-92800500D01*
X150600222Y-92800500D01*
X150817951Y-92766015D01*
X151027606Y-92697895D01*
X151224022Y-92597815D01*
X151402365Y-92468242D01*
X151558242Y-92312365D01*
X151598188Y-92257384D01*
X151659682Y-92172745D01*
X151715011Y-92130079D01*
X151784625Y-92124100D01*
X151846420Y-92156705D01*
X151860318Y-92172745D01*
X151961752Y-92312358D01*
X151961756Y-92312363D01*
X152117636Y-92468243D01*
X152117641Y-92468247D01*
X152273192Y-92581260D01*
X152295978Y-92597815D01*
X152409076Y-92655442D01*
X152492393Y-92697895D01*
X152492396Y-92697896D01*
X152592257Y-92730342D01*
X152702049Y-92766015D01*
X152919778Y-92800500D01*
X152919779Y-92800500D01*
X153140221Y-92800500D01*
X153140222Y-92800500D01*
X153357951Y-92766015D01*
X153567606Y-92697895D01*
X153764022Y-92597815D01*
X153942365Y-92468242D01*
X154098242Y-92312365D01*
X154138188Y-92257384D01*
X154199682Y-92172745D01*
X154255011Y-92130079D01*
X154324625Y-92124100D01*
X154386420Y-92156705D01*
X154400318Y-92172745D01*
X154501752Y-92312358D01*
X154501756Y-92312363D01*
X154657636Y-92468243D01*
X154657641Y-92468247D01*
X154813192Y-92581260D01*
X154835978Y-92597815D01*
X154949076Y-92655442D01*
X155032393Y-92697895D01*
X155032396Y-92697896D01*
X155132257Y-92730342D01*
X155242049Y-92766015D01*
X155459778Y-92800500D01*
X155459779Y-92800500D01*
X155680221Y-92800500D01*
X155680222Y-92800500D01*
X155897951Y-92766015D01*
X156107606Y-92697895D01*
X156304022Y-92597815D01*
X156482365Y-92468242D01*
X156638242Y-92312365D01*
X156678188Y-92257384D01*
X156739682Y-92172745D01*
X156795011Y-92130079D01*
X156864625Y-92124100D01*
X156926420Y-92156705D01*
X156940318Y-92172745D01*
X157041752Y-92312358D01*
X157041756Y-92312363D01*
X157197636Y-92468243D01*
X157197641Y-92468247D01*
X157353192Y-92581260D01*
X157375978Y-92597815D01*
X157489076Y-92655442D01*
X157572393Y-92697895D01*
X157572396Y-92697896D01*
X157672257Y-92730342D01*
X157782049Y-92766015D01*
X157999778Y-92800500D01*
X157999779Y-92800500D01*
X158220221Y-92800500D01*
X158220222Y-92800500D01*
X158437951Y-92766015D01*
X158647606Y-92697895D01*
X158844022Y-92597815D01*
X159022365Y-92468242D01*
X159178242Y-92312365D01*
X159218188Y-92257384D01*
X159279682Y-92172745D01*
X159335011Y-92130079D01*
X159404625Y-92124100D01*
X159466420Y-92156705D01*
X159480318Y-92172745D01*
X159581752Y-92312358D01*
X159581756Y-92312363D01*
X159737636Y-92468243D01*
X159737641Y-92468247D01*
X159893192Y-92581260D01*
X159915978Y-92597815D01*
X160029076Y-92655442D01*
X160112393Y-92697895D01*
X160112396Y-92697896D01*
X160212257Y-92730342D01*
X160322049Y-92766015D01*
X160539778Y-92800500D01*
X160539779Y-92800500D01*
X160760221Y-92800500D01*
X160760222Y-92800500D01*
X160977951Y-92766015D01*
X161187606Y-92697895D01*
X161384022Y-92597815D01*
X161562365Y-92468242D01*
X161718242Y-92312365D01*
X161758188Y-92257384D01*
X161819682Y-92172745D01*
X161875011Y-92130079D01*
X161944625Y-92124100D01*
X162006420Y-92156705D01*
X162020318Y-92172745D01*
X162121752Y-92312358D01*
X162121756Y-92312363D01*
X162277636Y-92468243D01*
X162277641Y-92468247D01*
X162433192Y-92581260D01*
X162455978Y-92597815D01*
X162569076Y-92655442D01*
X162652393Y-92697895D01*
X162652396Y-92697896D01*
X162752257Y-92730342D01*
X162862049Y-92766015D01*
X163079778Y-92800500D01*
X163079779Y-92800500D01*
X163300221Y-92800500D01*
X163300222Y-92800500D01*
X163517951Y-92766015D01*
X163727606Y-92697895D01*
X163924022Y-92597815D01*
X164102365Y-92468242D01*
X164258242Y-92312365D01*
X164298188Y-92257384D01*
X164359682Y-92172745D01*
X164415011Y-92130079D01*
X164484625Y-92124100D01*
X164546420Y-92156705D01*
X164560318Y-92172745D01*
X164661752Y-92312358D01*
X164661756Y-92312363D01*
X164817636Y-92468243D01*
X164817641Y-92468247D01*
X164973192Y-92581260D01*
X164995978Y-92597815D01*
X165109076Y-92655442D01*
X165192393Y-92697895D01*
X165192396Y-92697896D01*
X165292257Y-92730342D01*
X165402049Y-92766015D01*
X165619778Y-92800500D01*
X165619779Y-92800500D01*
X165840221Y-92800500D01*
X165840222Y-92800500D01*
X166057951Y-92766015D01*
X166267606Y-92697895D01*
X166464022Y-92597815D01*
X166642365Y-92468242D01*
X166798242Y-92312365D01*
X166838188Y-92257384D01*
X166899682Y-92172745D01*
X166955011Y-92130079D01*
X167024625Y-92124100D01*
X167086420Y-92156705D01*
X167100318Y-92172745D01*
X167201752Y-92312358D01*
X167201756Y-92312363D01*
X167357636Y-92468243D01*
X167357641Y-92468247D01*
X167513192Y-92581260D01*
X167535978Y-92597815D01*
X167649076Y-92655442D01*
X167732393Y-92697895D01*
X167732396Y-92697896D01*
X167832257Y-92730342D01*
X167942049Y-92766015D01*
X168159778Y-92800500D01*
X168159779Y-92800500D01*
X168380221Y-92800500D01*
X168380222Y-92800500D01*
X168597951Y-92766015D01*
X168807606Y-92697895D01*
X169004022Y-92597815D01*
X169182365Y-92468242D01*
X169338242Y-92312365D01*
X169378188Y-92257384D01*
X169439682Y-92172745D01*
X169495011Y-92130079D01*
X169564625Y-92124100D01*
X169626420Y-92156705D01*
X169640318Y-92172745D01*
X169741752Y-92312358D01*
X169741756Y-92312363D01*
X169897636Y-92468243D01*
X169897641Y-92468247D01*
X170053192Y-92581260D01*
X170075978Y-92597815D01*
X170189076Y-92655442D01*
X170272393Y-92697895D01*
X170272396Y-92697896D01*
X170372257Y-92730342D01*
X170482049Y-92766015D01*
X170699778Y-92800500D01*
X170699779Y-92800500D01*
X170920221Y-92800500D01*
X170920222Y-92800500D01*
X171137951Y-92766015D01*
X171347606Y-92697895D01*
X171544022Y-92597815D01*
X171722365Y-92468242D01*
X171878242Y-92312365D01*
X172007815Y-92134022D01*
X172107895Y-91937606D01*
X172176015Y-91727951D01*
X172210500Y-91510222D01*
X172210500Y-90289778D01*
X172176015Y-90072049D01*
X172107895Y-89862394D01*
X172107895Y-89862393D01*
X172073237Y-89794375D01*
X172007815Y-89665978D01*
X171953530Y-89591260D01*
X171878247Y-89487641D01*
X171878243Y-89487636D01*
X171722363Y-89331756D01*
X171722358Y-89331752D01*
X171544025Y-89202187D01*
X171544024Y-89202186D01*
X171544022Y-89202185D01*
X171465976Y-89162418D01*
X171430066Y-89134844D01*
X171424116Y-89128227D01*
X171392951Y-89081584D01*
X171288416Y-88977049D01*
X169186819Y-86875451D01*
X169153334Y-86814128D01*
X169150500Y-86787770D01*
X169150500Y-86139778D01*
X169122350Y-85962049D01*
X169116015Y-85922049D01*
X169047895Y-85712394D01*
X169047895Y-85712393D01*
X169013237Y-85644375D01*
X168947815Y-85515978D01*
X168898902Y-85448654D01*
X168818247Y-85337641D01*
X168818243Y-85337636D01*
X168662363Y-85181756D01*
X168662358Y-85181752D01*
X168484025Y-85052187D01*
X168484024Y-85052186D01*
X168484022Y-85052185D01*
X168421096Y-85020122D01*
X168287606Y-84952104D01*
X168287603Y-84952103D01*
X168077952Y-84883985D01*
X167969086Y-84866742D01*
X167860222Y-84849500D01*
X167639778Y-84849500D01*
X167567201Y-84860995D01*
X167422047Y-84883985D01*
X167212396Y-84952103D01*
X167212393Y-84952104D01*
X167015974Y-85052187D01*
X166837641Y-85181752D01*
X166837636Y-85181756D01*
X166681756Y-85337636D01*
X166681752Y-85337641D01*
X166552185Y-85515976D01*
X166547825Y-85524534D01*
X166499850Y-85575329D01*
X166432029Y-85592124D01*
X166365895Y-85569586D01*
X166337023Y-85541123D01*
X166218247Y-85377641D01*
X166218243Y-85377636D01*
X166062365Y-85221758D01*
X166022367Y-85192698D01*
X165936988Y-85130666D01*
X165894324Y-85075339D01*
X165888261Y-85054555D01*
X165871658Y-84971087D01*
X165871656Y-84971082D01*
X165815087Y-84834511D01*
X165815080Y-84834498D01*
X165732952Y-84711585D01*
X165732951Y-84711584D01*
X165628416Y-84607049D01*
X165009166Y-83987798D01*
X164748029Y-83726660D01*
X164714544Y-83665337D01*
X164719528Y-83595645D01*
X164761400Y-83539712D01*
X164826864Y-83515295D01*
X164834969Y-83514981D01*
X177386930Y-83441970D01*
X177454081Y-83461264D01*
G37*
%TD.AperFunction*%
%TA.AperFunction,Conductor*%
G36*
X155055703Y-116095385D02*
G01*
X155062181Y-116101417D01*
X155381284Y-116420520D01*
X155381286Y-116420521D01*
X155381290Y-116420524D01*
X155422635Y-116444394D01*
X155518216Y-116499577D01*
X155670943Y-116540501D01*
X155670945Y-116540501D01*
X155836654Y-116540501D01*
X155836670Y-116540500D01*
X155931296Y-116540500D01*
X155998335Y-116560185D01*
X156041781Y-116608205D01*
X156075098Y-116673593D01*
X156093240Y-116709199D01*
X156204310Y-116862073D01*
X156337927Y-116995690D01*
X156490801Y-117106760D01*
X156541684Y-117132686D01*
X156659163Y-117192545D01*
X156659165Y-117192545D01*
X156659168Y-117192547D01*
X156695291Y-117204284D01*
X156780803Y-117232069D01*
X156838478Y-117271507D01*
X156865676Y-117335866D01*
X156853761Y-117404712D01*
X156806516Y-117456188D01*
X156780803Y-117467931D01*
X156659163Y-117507454D01*
X156490800Y-117593240D01*
X156403579Y-117656610D01*
X156337927Y-117704310D01*
X156337925Y-117704312D01*
X156337924Y-117704312D01*
X156204312Y-117837924D01*
X156204312Y-117837925D01*
X156204310Y-117837927D01*
X156176176Y-117876650D01*
X156093240Y-117990800D01*
X156007454Y-118159163D01*
X155949059Y-118338881D01*
X155919500Y-118525513D01*
X155919500Y-118714486D01*
X155949059Y-118901118D01*
X156007454Y-119080836D01*
X156062432Y-119188735D01*
X156093240Y-119249199D01*
X156204310Y-119402073D01*
X156337927Y-119535690D01*
X156490801Y-119646760D01*
X156562990Y-119683542D01*
X156644440Y-119725043D01*
X156695236Y-119773018D01*
X156712031Y-119840839D01*
X156689494Y-119906974D01*
X156634778Y-119950425D01*
X156626469Y-119953457D01*
X156620971Y-119955243D01*
X156438644Y-120048143D01*
X156394077Y-120080523D01*
X156394077Y-120080524D01*
X157073554Y-120760000D01*
X157067339Y-120760000D01*
X156965606Y-120787259D01*
X156874394Y-120839920D01*
X156799920Y-120914394D01*
X156747259Y-121005606D01*
X156720000Y-121107339D01*
X156720000Y-121113553D01*
X156040524Y-120434077D01*
X156040523Y-120434077D01*
X156008143Y-120478644D01*
X155915244Y-120660968D01*
X155852009Y-120855582D01*
X155820000Y-121057682D01*
X155820000Y-121262317D01*
X155852009Y-121464417D01*
X155915244Y-121659031D01*
X156008141Y-121841350D01*
X156008147Y-121841359D01*
X156040523Y-121885921D01*
X156040524Y-121885922D01*
X156720000Y-121206446D01*
X156720000Y-121212661D01*
X156747259Y-121314394D01*
X156799920Y-121405606D01*
X156874394Y-121480080D01*
X156965606Y-121532741D01*
X157067339Y-121560000D01*
X157073553Y-121560000D01*
X156394076Y-122239474D01*
X156438650Y-122271859D01*
X156532180Y-122319515D01*
X156582976Y-122367489D01*
X156599771Y-122435310D01*
X156577234Y-122501445D01*
X156532180Y-122540485D01*
X156438644Y-122588143D01*
X156394077Y-122620523D01*
X156394077Y-122620524D01*
X157073554Y-123300000D01*
X157067339Y-123300000D01*
X156965606Y-123327259D01*
X156874394Y-123379920D01*
X156799920Y-123454394D01*
X156747259Y-123545606D01*
X156720000Y-123647339D01*
X156720000Y-123653553D01*
X156040524Y-122974077D01*
X156040523Y-122974077D01*
X156008143Y-123018644D01*
X155915244Y-123200968D01*
X155852009Y-123395582D01*
X155820000Y-123597682D01*
X155820000Y-123802317D01*
X155852009Y-124004417D01*
X155915244Y-124199031D01*
X156008141Y-124381350D01*
X156008147Y-124381359D01*
X156040523Y-124425921D01*
X156040524Y-124425922D01*
X156720000Y-123746446D01*
X156720000Y-123752661D01*
X156747259Y-123854394D01*
X156799920Y-123945606D01*
X156874394Y-124020080D01*
X156965606Y-124072741D01*
X157067339Y-124100000D01*
X157073553Y-124100000D01*
X156394076Y-124779474D01*
X156438650Y-124811859D01*
X156620967Y-124904754D01*
X156626458Y-124906538D01*
X156684135Y-124945973D01*
X156711336Y-125010331D01*
X156699425Y-125079178D01*
X156652183Y-125130655D01*
X156644440Y-125134955D01*
X156490805Y-125213236D01*
X156388885Y-125287286D01*
X156337927Y-125324310D01*
X156337925Y-125324312D01*
X156337924Y-125324312D01*
X156204312Y-125457924D01*
X156204312Y-125457925D01*
X156204310Y-125457927D01*
X156156610Y-125523579D01*
X156093240Y-125610800D01*
X156007454Y-125779163D01*
X155949059Y-125958881D01*
X155919500Y-126145513D01*
X155919500Y-126334487D01*
X155934281Y-126427814D01*
X155925326Y-126497107D01*
X155880330Y-126550559D01*
X155813578Y-126571198D01*
X155746264Y-126552473D01*
X155724127Y-126534892D01*
X154886819Y-125697584D01*
X154853334Y-125636261D01*
X154850500Y-125609903D01*
X154850500Y-116189098D01*
X154870185Y-116122059D01*
X154922989Y-116076304D01*
X154992147Y-116066360D01*
X155055703Y-116095385D01*
G37*
%TD.AperFunction*%
%TA.AperFunction,Conductor*%
G36*
X151369834Y-116271914D02*
G01*
X151425767Y-116313786D01*
X151450184Y-116379250D01*
X151450500Y-116388096D01*
X151450500Y-125928901D01*
X151430815Y-125995940D01*
X151414181Y-126016582D01*
X150895872Y-126534890D01*
X150834549Y-126568375D01*
X150764857Y-126563391D01*
X150708924Y-126521519D01*
X150684507Y-126456055D01*
X150685718Y-126427810D01*
X150700500Y-126334485D01*
X150700500Y-126145513D01*
X150670940Y-125958881D01*
X150629370Y-125830943D01*
X150612547Y-125779168D01*
X150612545Y-125779165D01*
X150612545Y-125779163D01*
X150567290Y-125690347D01*
X150526760Y-125610801D01*
X150415690Y-125457927D01*
X150282073Y-125324310D01*
X150129199Y-125213240D01*
X150123821Y-125210500D01*
X149975559Y-125134956D01*
X149924763Y-125086981D01*
X149907968Y-125019160D01*
X149930506Y-124953025D01*
X149985221Y-124909574D01*
X149993544Y-124906537D01*
X149999033Y-124904753D01*
X150181349Y-124811859D01*
X150225921Y-124779474D01*
X149546447Y-124100000D01*
X149552661Y-124100000D01*
X149654394Y-124072741D01*
X149745606Y-124020080D01*
X149820080Y-123945606D01*
X149872741Y-123854394D01*
X149900000Y-123752661D01*
X149900000Y-123746448D01*
X150579474Y-124425922D01*
X150579474Y-124425921D01*
X150611859Y-124381349D01*
X150704755Y-124199031D01*
X150767990Y-124004417D01*
X150800000Y-123802317D01*
X150800000Y-123597682D01*
X150767990Y-123395582D01*
X150704755Y-123200968D01*
X150611859Y-123018650D01*
X150579474Y-122974077D01*
X150579474Y-122974076D01*
X149900000Y-123653551D01*
X149900000Y-123647339D01*
X149872741Y-123545606D01*
X149820080Y-123454394D01*
X149745606Y-123379920D01*
X149654394Y-123327259D01*
X149552661Y-123300000D01*
X149546446Y-123300000D01*
X150225922Y-122620524D01*
X150225921Y-122620523D01*
X150181359Y-122588147D01*
X150181350Y-122588141D01*
X150087819Y-122540485D01*
X150037023Y-122492511D01*
X150020228Y-122424690D01*
X150042765Y-122358555D01*
X150087820Y-122319515D01*
X150181346Y-122271861D01*
X150181347Y-122271861D01*
X150225921Y-122239474D01*
X149546447Y-121560000D01*
X149552661Y-121560000D01*
X149654394Y-121532741D01*
X149745606Y-121480080D01*
X149820080Y-121405606D01*
X149872741Y-121314394D01*
X149900000Y-121212661D01*
X149900000Y-121206448D01*
X150579474Y-121885922D01*
X150579474Y-121885921D01*
X150611859Y-121841349D01*
X150704755Y-121659031D01*
X150767990Y-121464417D01*
X150800000Y-121262317D01*
X150800000Y-121057682D01*
X150767990Y-120855582D01*
X150704755Y-120660968D01*
X150611859Y-120478650D01*
X150579474Y-120434077D01*
X150579474Y-120434076D01*
X149900000Y-121113551D01*
X149900000Y-121107339D01*
X149872741Y-121005606D01*
X149820080Y-120914394D01*
X149745606Y-120839920D01*
X149654394Y-120787259D01*
X149552661Y-120760000D01*
X149546446Y-120760000D01*
X150225922Y-120080524D01*
X150225921Y-120080523D01*
X150181359Y-120048147D01*
X150181350Y-120048141D01*
X149999027Y-119955242D01*
X149993534Y-119953458D01*
X149935859Y-119914020D01*
X149908662Y-119849661D01*
X149920578Y-119780815D01*
X149967822Y-119729340D01*
X149975559Y-119725043D01*
X149988964Y-119718213D01*
X150129199Y-119646760D01*
X150282073Y-119535690D01*
X150415690Y-119402073D01*
X150526760Y-119249199D01*
X150612547Y-119080832D01*
X150670940Y-118901118D01*
X150677303Y-118860943D01*
X150700500Y-118714486D01*
X150700500Y-118525513D01*
X150670940Y-118338881D01*
X150612545Y-118159163D01*
X150526759Y-117990800D01*
X150415690Y-117837927D01*
X150282073Y-117704310D01*
X150129199Y-117593240D01*
X150122840Y-117590000D01*
X149960836Y-117507454D01*
X149886472Y-117483291D01*
X149839195Y-117467930D01*
X149781521Y-117428493D01*
X149754323Y-117364134D01*
X149766238Y-117295288D01*
X149813482Y-117243812D01*
X149839194Y-117232069D01*
X149960832Y-117192547D01*
X150129199Y-117106760D01*
X150282073Y-116995690D01*
X150415690Y-116862073D01*
X150510474Y-116731615D01*
X150565805Y-116688950D01*
X150610792Y-116680501D01*
X150689054Y-116680501D01*
X150689057Y-116680501D01*
X150841785Y-116639577D01*
X150891904Y-116610639D01*
X150978716Y-116560520D01*
X151090520Y-116448716D01*
X151090521Y-116448713D01*
X151238822Y-116300412D01*
X151300142Y-116266930D01*
X151369834Y-116271914D01*
G37*
%TD.AperFunction*%
%TA.AperFunction,Conductor*%
G36*
X148723769Y-119540185D02*
G01*
X148729602Y-119544172D01*
X148870801Y-119646760D01*
X148942990Y-119683542D01*
X149024440Y-119725043D01*
X149075236Y-119773018D01*
X149092031Y-119840839D01*
X149069494Y-119906974D01*
X149014778Y-119950425D01*
X149006469Y-119953457D01*
X149000971Y-119955243D01*
X148818644Y-120048143D01*
X148774077Y-120080523D01*
X148774077Y-120080524D01*
X149453554Y-120760000D01*
X149447339Y-120760000D01*
X149345606Y-120787259D01*
X149254394Y-120839920D01*
X149179920Y-120914394D01*
X149127259Y-121005606D01*
X149100000Y-121107339D01*
X149100000Y-121113553D01*
X148420524Y-120434077D01*
X148420523Y-120434077D01*
X148388143Y-120478644D01*
X148295244Y-120660968D01*
X148232009Y-120855582D01*
X148200000Y-121057682D01*
X148200000Y-121262317D01*
X148232009Y-121464417D01*
X148295244Y-121659031D01*
X148388141Y-121841350D01*
X148388147Y-121841359D01*
X148420523Y-121885921D01*
X148420524Y-121885922D01*
X149100000Y-121206446D01*
X149100000Y-121212661D01*
X149127259Y-121314394D01*
X149179920Y-121405606D01*
X149254394Y-121480080D01*
X149345606Y-121532741D01*
X149447339Y-121560000D01*
X149453553Y-121560000D01*
X148774076Y-122239474D01*
X148818650Y-122271859D01*
X148912180Y-122319515D01*
X148962976Y-122367489D01*
X148979771Y-122435310D01*
X148957234Y-122501445D01*
X148912180Y-122540485D01*
X148818644Y-122588143D01*
X148774077Y-122620523D01*
X148774077Y-122620524D01*
X149453554Y-123300000D01*
X149447339Y-123300000D01*
X149345606Y-123327259D01*
X149254394Y-123379920D01*
X149179920Y-123454394D01*
X149127259Y-123545606D01*
X149100000Y-123647339D01*
X149100000Y-123653553D01*
X148420524Y-122974077D01*
X148420523Y-122974077D01*
X148388143Y-123018644D01*
X148295244Y-123200968D01*
X148232009Y-123395582D01*
X148200000Y-123597682D01*
X148200000Y-123802317D01*
X148232009Y-124004417D01*
X148295244Y-124199031D01*
X148388141Y-124381350D01*
X148388147Y-124381359D01*
X148420523Y-124425921D01*
X148420524Y-124425922D01*
X149100000Y-123746446D01*
X149100000Y-123752661D01*
X149127259Y-123854394D01*
X149179920Y-123945606D01*
X149254394Y-124020080D01*
X149345606Y-124072741D01*
X149447339Y-124100000D01*
X149453553Y-124100000D01*
X148774076Y-124779474D01*
X148818650Y-124811859D01*
X149000967Y-124904754D01*
X149006458Y-124906538D01*
X149064135Y-124945973D01*
X149091336Y-125010331D01*
X149079425Y-125079178D01*
X149032183Y-125130655D01*
X149024440Y-125134955D01*
X148870805Y-125213236D01*
X148768885Y-125287286D01*
X148717927Y-125324310D01*
X148717925Y-125324312D01*
X148717924Y-125324312D01*
X148584312Y-125457924D01*
X148584312Y-125457925D01*
X148584310Y-125457927D01*
X148530642Y-125531795D01*
X148518588Y-125548386D01*
X148463258Y-125591051D01*
X148418270Y-125599500D01*
X145849747Y-125599500D01*
X145782708Y-125579815D01*
X145739262Y-125531795D01*
X145735646Y-125524698D01*
X145735646Y-125524696D01*
X145678050Y-125411658D01*
X145678048Y-125411656D01*
X145678045Y-125411652D01*
X145588347Y-125321954D01*
X145588344Y-125321952D01*
X145588342Y-125321950D01*
X145482878Y-125268213D01*
X145475301Y-125264352D01*
X145381524Y-125249500D01*
X145234266Y-125249500D01*
X145167227Y-125229815D01*
X145121472Y-125177011D01*
X145111528Y-125107853D01*
X145140553Y-125044297D01*
X145161375Y-125025186D01*
X145314646Y-124913828D01*
X145453828Y-124774646D01*
X145569524Y-124615405D01*
X145658884Y-124440025D01*
X145719709Y-124252826D01*
X145723707Y-124227583D01*
X145750500Y-124058422D01*
X145750500Y-123861577D01*
X145719709Y-123667175D01*
X145719709Y-123667174D01*
X145658884Y-123479975D01*
X145658419Y-123479063D01*
X145656607Y-123473504D01*
X145656338Y-123464426D01*
X145650500Y-123435068D01*
X145650500Y-120864361D01*
X145670185Y-120797322D01*
X145686819Y-120776680D01*
X146906680Y-119556819D01*
X146968003Y-119523334D01*
X146994361Y-119520500D01*
X148656730Y-119520500D01*
X148723769Y-119540185D01*
G37*
%TD.AperFunction*%
%TA.AperFunction,Conductor*%
G36*
X160072677Y-119540185D02*
G01*
X160093319Y-119556819D01*
X160726082Y-120189581D01*
X160759567Y-120250904D01*
X160760874Y-120296659D01*
X160749500Y-120368474D01*
X160749500Y-122131517D01*
X160758561Y-122188724D01*
X160764354Y-122225304D01*
X160821950Y-122338342D01*
X160821952Y-122338344D01*
X160821954Y-122338347D01*
X160911652Y-122428045D01*
X160911654Y-122428046D01*
X160911658Y-122428050D01*
X161008872Y-122477583D01*
X161024698Y-122485647D01*
X161118475Y-122500499D01*
X161118481Y-122500500D01*
X161265735Y-122500499D01*
X161332772Y-122520183D01*
X161378527Y-122572987D01*
X161388471Y-122642145D01*
X161359446Y-122705701D01*
X161338619Y-122724816D01*
X161185360Y-122836167D01*
X161185351Y-122836174D01*
X161046174Y-122975351D01*
X161046174Y-122975352D01*
X161046172Y-122975354D01*
X161005367Y-123031517D01*
X160930476Y-123134594D01*
X160841117Y-123309970D01*
X160780290Y-123497173D01*
X160749500Y-123691577D01*
X160749500Y-123888422D01*
X160780290Y-124082826D01*
X160841117Y-124270029D01*
X160920548Y-124425921D01*
X160930476Y-124445405D01*
X161046172Y-124604646D01*
X161046174Y-124604648D01*
X161063181Y-124621655D01*
X161096666Y-124682978D01*
X161099500Y-124709336D01*
X161099500Y-125015638D01*
X161079815Y-125082677D01*
X161063181Y-125103319D01*
X160863319Y-125303181D01*
X160801996Y-125336666D01*
X160775638Y-125339500D01*
X157963270Y-125339500D01*
X157896231Y-125319815D01*
X157890397Y-125315827D01*
X157749199Y-125213240D01*
X157743821Y-125210500D01*
X157595559Y-125134956D01*
X157544763Y-125086981D01*
X157527968Y-125019160D01*
X157550506Y-124953025D01*
X157605221Y-124909574D01*
X157613544Y-124906537D01*
X157619033Y-124904753D01*
X157801349Y-124811859D01*
X157845921Y-124779474D01*
X157166447Y-124100000D01*
X157172661Y-124100000D01*
X157274394Y-124072741D01*
X157365606Y-124020080D01*
X157440080Y-123945606D01*
X157492741Y-123854394D01*
X157520000Y-123752661D01*
X157520000Y-123746448D01*
X158199474Y-124425922D01*
X158199474Y-124425921D01*
X158231859Y-124381349D01*
X158324755Y-124199031D01*
X158387990Y-124004417D01*
X158420000Y-123802317D01*
X158420000Y-123597682D01*
X158387990Y-123395582D01*
X158324755Y-123200968D01*
X158231859Y-123018650D01*
X158199474Y-122974077D01*
X158199474Y-122974076D01*
X157520000Y-123653551D01*
X157520000Y-123647339D01*
X157492741Y-123545606D01*
X157440080Y-123454394D01*
X157365606Y-123379920D01*
X157274394Y-123327259D01*
X157172661Y-123300000D01*
X157166446Y-123300000D01*
X157845922Y-122620524D01*
X157845921Y-122620523D01*
X157801359Y-122588147D01*
X157801350Y-122588141D01*
X157707819Y-122540485D01*
X157657023Y-122492511D01*
X157640228Y-122424690D01*
X157662765Y-122358555D01*
X157707820Y-122319515D01*
X157801346Y-122271861D01*
X157801347Y-122271861D01*
X157845921Y-122239474D01*
X157166447Y-121560000D01*
X157172661Y-121560000D01*
X157274394Y-121532741D01*
X157365606Y-121480080D01*
X157440080Y-121405606D01*
X157492741Y-121314394D01*
X157520000Y-121212661D01*
X157520000Y-121206448D01*
X158199474Y-121885922D01*
X158199474Y-121885921D01*
X158231859Y-121841349D01*
X158324755Y-121659031D01*
X158387990Y-121464417D01*
X158420000Y-121262317D01*
X158420000Y-121057682D01*
X158387990Y-120855582D01*
X158324755Y-120660968D01*
X158231859Y-120478650D01*
X158199474Y-120434077D01*
X158199474Y-120434076D01*
X157520000Y-121113551D01*
X157520000Y-121107339D01*
X157492741Y-121005606D01*
X157440080Y-120914394D01*
X157365606Y-120839920D01*
X157274394Y-120787259D01*
X157172661Y-120760000D01*
X157166446Y-120760000D01*
X157845922Y-120080524D01*
X157845921Y-120080523D01*
X157801359Y-120048147D01*
X157801350Y-120048141D01*
X157619027Y-119955242D01*
X157613534Y-119953458D01*
X157555859Y-119914020D01*
X157528662Y-119849661D01*
X157540578Y-119780815D01*
X157587822Y-119729340D01*
X157595559Y-119725043D01*
X157608964Y-119718213D01*
X157749199Y-119646760D01*
X157890385Y-119544181D01*
X157956190Y-119520702D01*
X157963270Y-119520500D01*
X160005638Y-119520500D01*
X160072677Y-119540185D01*
G37*
%TD.AperFunction*%
%TA.AperFunction,Conductor*%
G36*
X142601002Y-83663994D02*
G01*
X142647063Y-83716531D01*
X142657408Y-83785631D01*
X142628754Y-83849354D01*
X142622251Y-83856379D01*
X141707050Y-84771580D01*
X141707044Y-84771588D01*
X141657812Y-84845268D01*
X141657813Y-84845269D01*
X141624921Y-84894496D01*
X141624914Y-84894508D01*
X141568341Y-85031088D01*
X141568340Y-85031093D01*
X141565690Y-85044412D01*
X141533301Y-85106322D01*
X141516959Y-85120532D01*
X141377641Y-85221752D01*
X141377636Y-85221756D01*
X141221756Y-85377636D01*
X141181811Y-85432616D01*
X141126480Y-85475281D01*
X141056867Y-85481260D01*
X140995072Y-85448654D01*
X140981175Y-85432615D01*
X140894138Y-85312819D01*
X140894133Y-85312813D01*
X140727186Y-85145866D01*
X140536171Y-85007085D01*
X140325802Y-84899897D01*
X140101247Y-84826934D01*
X140000000Y-84810897D01*
X140000000Y-86356988D01*
X139942993Y-86324075D01*
X139815826Y-86290000D01*
X139684174Y-86290000D01*
X139557007Y-86324075D01*
X139500000Y-86356988D01*
X139500000Y-84810897D01*
X139398752Y-84826934D01*
X139174197Y-84899897D01*
X138963828Y-85007085D01*
X138772813Y-85145866D01*
X138605866Y-85312813D01*
X138467085Y-85503828D01*
X138359897Y-85714197D01*
X138286934Y-85938752D01*
X138250000Y-86171947D01*
X138250000Y-86540000D01*
X139316988Y-86540000D01*
X139284075Y-86597007D01*
X139250000Y-86724174D01*
X139250000Y-86855826D01*
X139284075Y-86982993D01*
X139316988Y-87040000D01*
X138250000Y-87040000D01*
X138250000Y-87408052D01*
X138286934Y-87641247D01*
X138359897Y-87865802D01*
X138467085Y-88076171D01*
X138605866Y-88267186D01*
X138772813Y-88434133D01*
X138963828Y-88572914D01*
X139174195Y-88680102D01*
X139398744Y-88753063D01*
X139398750Y-88753065D01*
X139500000Y-88769101D01*
X139500000Y-87223012D01*
X139557007Y-87255925D01*
X139684174Y-87290000D01*
X139815826Y-87290000D01*
X139942993Y-87255925D01*
X140000000Y-87223012D01*
X140000000Y-88769100D01*
X140101249Y-88753065D01*
X140101255Y-88753063D01*
X140325804Y-88680102D01*
X140536171Y-88572914D01*
X140727186Y-88434133D01*
X140894133Y-88267186D01*
X140894138Y-88267180D01*
X140981175Y-88147384D01*
X141036504Y-88104718D01*
X141106118Y-88098739D01*
X141167913Y-88131344D01*
X141181811Y-88147384D01*
X141221752Y-88202358D01*
X141221756Y-88202363D01*
X141377636Y-88358243D01*
X141377641Y-88358247D01*
X141515710Y-88458559D01*
X141555978Y-88487815D01*
X141684375Y-88553237D01*
X141752393Y-88587895D01*
X141752396Y-88587896D01*
X141838940Y-88616015D01*
X141962049Y-88656015D01*
X142179778Y-88690500D01*
X142179779Y-88690500D01*
X142400221Y-88690500D01*
X142400222Y-88690500D01*
X142617951Y-88656015D01*
X142827606Y-88587895D01*
X143024022Y-88487815D01*
X143202365Y-88358242D01*
X143358242Y-88202365D01*
X143398188Y-88147384D01*
X143459682Y-88062745D01*
X143515011Y-88020079D01*
X143584625Y-88014100D01*
X143646420Y-88046705D01*
X143660318Y-88062745D01*
X143761752Y-88202358D01*
X143761756Y-88202363D01*
X143761758Y-88202365D01*
X143917635Y-88358242D01*
X144095978Y-88487815D01*
X144095981Y-88487816D01*
X144098385Y-88489563D01*
X144141051Y-88544893D01*
X144149500Y-88589882D01*
X144149500Y-89360939D01*
X144149499Y-89360943D01*
X144149499Y-89397317D01*
X144149499Y-89399533D01*
X144129813Y-89466572D01*
X144090511Y-89500625D01*
X144077010Y-89512324D01*
X144077008Y-89512324D01*
X144077008Y-89512325D01*
X144054024Y-89515628D01*
X144007852Y-89522268D01*
X144007849Y-89522266D01*
X144007849Y-89522267D01*
X143991703Y-89514893D01*
X143944296Y-89493243D01*
X143937818Y-89487211D01*
X143782363Y-89331756D01*
X143782358Y-89331752D01*
X143604025Y-89202187D01*
X143604024Y-89202186D01*
X143604022Y-89202185D01*
X143525978Y-89162419D01*
X143407606Y-89102104D01*
X143407603Y-89102103D01*
X143197952Y-89033985D01*
X143081046Y-89015469D01*
X142980222Y-88999500D01*
X142759778Y-88999500D01*
X142709502Y-89007463D01*
X142542047Y-89033985D01*
X142332396Y-89102103D01*
X142332393Y-89102104D01*
X142135974Y-89202187D01*
X141957641Y-89331752D01*
X141957636Y-89331756D01*
X141801756Y-89487636D01*
X141801752Y-89487641D01*
X141700318Y-89627254D01*
X141644988Y-89669920D01*
X141575375Y-89675899D01*
X141513580Y-89643293D01*
X141499682Y-89627254D01*
X141398247Y-89487641D01*
X141398243Y-89487636D01*
X141242363Y-89331756D01*
X141242358Y-89331752D01*
X141064025Y-89202187D01*
X141064024Y-89202186D01*
X141064022Y-89202185D01*
X140985978Y-89162419D01*
X140867606Y-89102104D01*
X140867603Y-89102103D01*
X140657952Y-89033985D01*
X140541046Y-89015469D01*
X140440222Y-88999500D01*
X140219778Y-88999500D01*
X140169502Y-89007463D01*
X140002047Y-89033985D01*
X139792396Y-89102103D01*
X139792393Y-89102104D01*
X139595974Y-89202187D01*
X139417641Y-89331752D01*
X139417636Y-89331756D01*
X139261756Y-89487636D01*
X139221811Y-89542616D01*
X139166480Y-89585281D01*
X139096867Y-89591260D01*
X139035072Y-89558654D01*
X139021175Y-89542615D01*
X138934138Y-89422819D01*
X138934133Y-89422813D01*
X138767186Y-89255866D01*
X138576171Y-89117085D01*
X138365802Y-89009897D01*
X138141247Y-88936934D01*
X138040000Y-88920897D01*
X138040000Y-90466988D01*
X137982993Y-90434075D01*
X137855826Y-90400000D01*
X137724174Y-90400000D01*
X137597007Y-90434075D01*
X137540000Y-90466988D01*
X137540000Y-88920897D01*
X137438752Y-88936934D01*
X137214197Y-89009897D01*
X137003828Y-89117085D01*
X136812813Y-89255866D01*
X136645866Y-89422813D01*
X136645866Y-89422814D01*
X136558824Y-89542616D01*
X136503494Y-89585281D01*
X136433880Y-89591260D01*
X136372085Y-89558654D01*
X136358188Y-89542615D01*
X136318247Y-89487641D01*
X136318243Y-89487636D01*
X136162363Y-89331756D01*
X136162358Y-89331752D01*
X135984025Y-89202187D01*
X135984024Y-89202186D01*
X135984022Y-89202185D01*
X135905978Y-89162419D01*
X135787606Y-89102104D01*
X135787603Y-89102103D01*
X135577952Y-89033985D01*
X135461046Y-89015469D01*
X135360222Y-88999500D01*
X135139778Y-88999500D01*
X135089502Y-89007463D01*
X134922047Y-89033985D01*
X134712396Y-89102103D01*
X134712393Y-89102104D01*
X134515974Y-89202187D01*
X134337641Y-89331752D01*
X134337636Y-89331756D01*
X134181756Y-89487636D01*
X134181752Y-89487641D01*
X134052187Y-89665974D01*
X133952104Y-89862393D01*
X133952103Y-89862396D01*
X133883985Y-90072047D01*
X133849500Y-90289778D01*
X133849500Y-90875638D01*
X133829815Y-90942677D01*
X133813181Y-90963319D01*
X132121057Y-92655442D01*
X132059734Y-92688927D01*
X131990042Y-92683943D01*
X131934109Y-92642071D01*
X131909692Y-92576607D01*
X131913078Y-92537686D01*
X131919655Y-92511379D01*
X132000000Y-92190000D01*
X131999998Y-92189999D01*
X131999999Y-92189999D01*
X131251832Y-91815916D01*
X131200673Y-91768329D01*
X131183291Y-91703930D01*
X131249882Y-84058034D01*
X131250456Y-84055895D01*
X131250456Y-83992155D01*
X131251011Y-83928470D01*
X131251010Y-83928469D01*
X131251034Y-83925807D01*
X131250456Y-83916363D01*
X131250456Y-83849354D01*
X131250456Y-83833610D01*
X131270141Y-83766573D01*
X131322945Y-83720818D01*
X131373727Y-83709615D01*
X142533851Y-83644700D01*
X142601002Y-83663994D01*
G37*
%TD.AperFunction*%
%TD*%
M02*
