%TF.GenerationSoftware,KiCad,Pcbnew,9.0.4*%
%TF.CreationDate,2025-09-25T10:49:37+05:45*%
%TF.ProjectId,micro_mouse_prashant,6d696372-6f5f-46d6-9f75-73655f707261,rev?*%
%TF.SameCoordinates,Original*%
%TF.FileFunction,Soldermask,Top*%
%TF.FilePolarity,Negative*%
%FSLAX46Y46*%
G04 Gerber Fmt 4.6, Leading zero omitted, Abs format (unit mm)*
G04 Created by KiCad (PCBNEW 9.0.4) date 2025-09-25 10:49:37*
%MOMM*%
%LPD*%
G01*
G04 APERTURE LIST*
G04 Aperture macros list*
%AMRoundRect*
0 Rectangle with rounded corners*
0 $1 Rounding radius*
0 $2 $3 $4 $5 $6 $7 $8 $9 X,Y pos of 4 corners*
0 Add a 4 corners polygon primitive as box body*
4,1,4,$2,$3,$4,$5,$6,$7,$8,$9,$2,$3,0*
0 Add four circle primitives for the rounded corners*
1,1,$1+$1,$2,$3*
1,1,$1+$1,$4,$5*
1,1,$1+$1,$6,$7*
1,1,$1+$1,$8,$9*
0 Add four rect primitives between the rounded corners*
20,1,$1+$1,$2,$3,$4,$5,0*
20,1,$1+$1,$4,$5,$6,$7,0*
20,1,$1+$1,$6,$7,$8,$9,0*
20,1,$1+$1,$8,$9,$2,$3,0*%
G04 Aperture macros list end*
%ADD10O,2.000000X3.000000*%
%ADD11RoundRect,0.250000X-0.550000X-0.550000X0.550000X-0.550000X0.550000X0.550000X-0.550000X0.550000X0*%
%ADD12C,1.600000*%
%ADD13R,1.700000X1.700000*%
%ADD14C,1.700000*%
%ADD15C,2.500000*%
%ADD16C,2.000000*%
%ADD17O,3.000000X2.000000*%
%ADD18C,3.000000*%
%ADD19R,1.800000X1.800000*%
%ADD20R,1.905000X2.000000*%
%ADD21O,1.905000X2.000000*%
G04 APERTURE END LIST*
D10*
%TO.C,J7*%
X139750000Y-86790000D03*
X142290000Y-86790000D03*
X144830000Y-86790000D03*
X147370000Y-86790000D03*
X149910000Y-86790000D03*
X152450000Y-86790000D03*
X154990000Y-86790000D03*
X157530000Y-86790000D03*
X160070000Y-86790000D03*
X162610000Y-86790000D03*
X165150000Y-86790000D03*
%TD*%
D11*
%TO.C,U1*%
X149500000Y-113540000D03*
D12*
X149500000Y-116080000D03*
X149500000Y-118620000D03*
X149500000Y-121160000D03*
X149500000Y-123700000D03*
X149500000Y-126240000D03*
X149500000Y-128780000D03*
X149500000Y-131320000D03*
X157120000Y-131320000D03*
X157120000Y-128780000D03*
X157120000Y-126240000D03*
X157120000Y-123700000D03*
X157120000Y-121160000D03*
X157120000Y-118620000D03*
X157120000Y-116080000D03*
X157120000Y-113540000D03*
%TD*%
D13*
%TO.C,J5*%
X138500000Y-131525000D03*
D14*
X138500000Y-134065000D03*
%TD*%
D15*
%TO.C,H2*%
X136250000Y-78500000D03*
%TD*%
D16*
%TO.C,SW3*%
X166550000Y-142790000D03*
X166550000Y-136290000D03*
D17*
X171050000Y-142790000D03*
X171050000Y-136290000D03*
%TD*%
D10*
%TO.C,A1*%
X135250000Y-106140000D03*
X137790000Y-106140000D03*
X140330000Y-106140000D03*
X142870000Y-106140000D03*
X145410000Y-106140000D03*
X147950000Y-106140000D03*
X150490000Y-106140000D03*
X153030000Y-106140000D03*
X155570000Y-106140000D03*
X158110000Y-106140000D03*
X160650000Y-106140000D03*
X163190000Y-106140000D03*
X165730000Y-106140000D03*
X168270000Y-106140000D03*
X170810000Y-106140000D03*
X170810000Y-90900000D03*
X168270000Y-90900000D03*
X165730000Y-90900000D03*
X163190000Y-90900000D03*
X160650000Y-90900000D03*
X158110000Y-90900000D03*
X155570000Y-90900000D03*
X153030000Y-90900000D03*
X150490000Y-90900000D03*
X147950000Y-90900000D03*
X145410000Y-90900000D03*
X142870000Y-90900000D03*
X140330000Y-90900000D03*
X137790000Y-90900000D03*
X135250000Y-90900000D03*
%TD*%
D13*
%TO.C,J6*%
X138500000Y-137765000D03*
D14*
X138500000Y-140305000D03*
%TD*%
D12*
%TO.C,C4*%
X162000000Y-113790000D03*
X162000000Y-116290000D03*
%TD*%
D16*
%TO.C,SW2*%
X158000000Y-142790000D03*
X158000000Y-136290000D03*
D17*
X162500000Y-142790000D03*
X162500000Y-136290000D03*
%TD*%
D18*
%TO.C,REF\u002A\u002A*%
X136250000Y-78500000D03*
X172250000Y-78500000D03*
%TD*%
D10*
%TO.C,R1*%
X173850000Y-100540000D03*
X173850000Y-108160000D03*
%TD*%
D18*
%TO.C,REF\u002A\u002A*%
X112250000Y-138940000D03*
X112000000Y-120940000D03*
%TD*%
D12*
%TO.C,C1*%
X135250000Y-114290000D03*
X137750000Y-114290000D03*
%TD*%
D16*
%TO.C,SW1*%
X149450000Y-142790000D03*
X149450000Y-136290000D03*
D17*
X153950000Y-142790000D03*
X153950000Y-136290000D03*
%TD*%
D19*
%TO.C,D1*%
X173950000Y-113310000D03*
D17*
X173950000Y-110770000D03*
%TD*%
D12*
%TO.C,R2*%
X173060000Y-124040000D03*
X165440000Y-124040000D03*
%TD*%
%TO.C,R4*%
X173010000Y-121040000D03*
X165390000Y-121040000D03*
%TD*%
%TO.C,R3*%
X173150000Y-127040000D03*
X165530000Y-127040000D03*
%TD*%
%TO.C,C3*%
X144000000Y-134190000D03*
X144000000Y-131690000D03*
%TD*%
D13*
%TO.C,J3*%
X162000000Y-121250000D03*
D14*
X162000000Y-123790000D03*
%TD*%
D13*
%TO.C,J1*%
X141500000Y-110240000D03*
%TD*%
D10*
%TO.C,J2*%
X167750000Y-86750000D03*
%TD*%
D20*
%TO.C,U2*%
X135460000Y-121740000D03*
D21*
X138000000Y-121740000D03*
X140540000Y-121740000D03*
%TD*%
D18*
%TO.C,REF\u002A\u002A*%
X196500000Y-120890000D03*
X196750000Y-138890000D03*
%TD*%
D13*
%TO.C,Rmotor*%
X144750000Y-126190000D03*
D14*
X144750000Y-123650000D03*
%TD*%
D15*
%TO.C,H1*%
X172250000Y-78500000D03*
%TD*%
M02*
