M48
; DRILL file {KiCad 9.0.4} date 2025-09-25T10:50:08+0545
; FORMAT={-:-/ absolute / metric / decimal}
; #@! TF.CreationDate,2025-09-25T10:50:08+05:45
; #@! TF.GenerationSoftware,Kicad,Pcbnew,9.0.4
; #@! TF.FileFunction,MixedPlating,1,2
FMAT,2
METRIC
; #@! TA.AperFunction,Plated,PTH,ViaDrill
T1C0.800
; #@! TA.AperFunction,Plated,PTH,ComponentDrill
T2C0.800
; #@! TA.AperFunction,Plated,PTH,ComponentDrill
T3C0.900
; #@! TA.AperFunction,Plated,PTH,ComponentDrill
T4C1.000
; #@! TA.AperFunction,Plated,PTH,ComponentDrill
T5C1.100
; #@! TA.AperFunction,NonPlated,NPTH,ComponentDrill
T6C2.500
; #@! TA.AperFunction,NonPlated,NPTH,ComponentDrill
T7C3.000
%
G90
G05
T1
X133.5Y-87.44
X140.0Y-126.69
X142.75Y-99.25
X143.75Y-140.19
X143.75Y-143.19
X147.25Y-122.44
X152.75Y-99.25
X159.5Y-122.44
X161.5Y-129.69
X173.75Y-132.19
X175.0Y-139.44
X175.0Y-141.94
T2
X135.25Y-114.29
X137.75Y-114.29
X144.0Y-131.69
X144.0Y-134.19
X149.5Y-113.54
X149.5Y-116.08
X149.5Y-118.62
X149.5Y-121.16
X149.5Y-123.7
X149.5Y-126.24
X149.5Y-128.78
X149.5Y-131.32
X157.12Y-113.54
X157.12Y-116.08
X157.12Y-118.62
X157.12Y-121.16
X157.12Y-123.7
X157.12Y-126.24
X157.12Y-128.78
X157.12Y-131.32
X162.0Y-113.79
X162.0Y-116.29
X165.39Y-121.04
X165.44Y-124.04
X165.53Y-127.04
X173.01Y-121.04
X173.06Y-124.04
X173.15Y-127.04
T3
X153.95Y-136.29
X153.95Y-142.79
X162.5Y-136.29
X162.5Y-142.79
X171.05Y-136.29
X171.05Y-142.79
X173.95Y-110.77
X173.95Y-113.31
T4
X135.25Y-90.9
X135.25Y-106.14
X137.79Y-90.9
X137.79Y-106.14
X138.5Y-131.525
X138.5Y-134.065
X138.5Y-137.765
X138.5Y-140.305
X139.75Y-86.79
X140.33Y-90.9
X140.33Y-106.14
X141.5Y-110.24
X142.29Y-86.79
X142.87Y-90.9
X142.87Y-106.14
X144.75Y-123.65
X144.75Y-126.19
X144.83Y-86.79
X145.41Y-90.9
X145.41Y-106.14
X147.37Y-86.79
X147.95Y-90.9
X147.95Y-106.14
X149.91Y-86.79
X150.49Y-90.9
X150.49Y-106.14
X152.45Y-86.79
X153.03Y-90.9
X153.03Y-106.14
X154.99Y-86.79
X155.57Y-90.9
X155.57Y-106.14
X157.53Y-86.79
X158.11Y-90.9
X158.11Y-106.14
X160.07Y-86.79
X160.65Y-90.9
X160.65Y-106.14
X162.0Y-121.25
X162.0Y-123.79
X162.61Y-86.79
X163.19Y-90.9
X163.19Y-106.14
X165.15Y-86.79
X165.73Y-90.9
X165.73Y-106.14
X167.75Y-86.75
X168.27Y-90.9
X168.27Y-106.14
X170.81Y-90.9
X170.81Y-106.14
X173.85Y-100.54
X173.85Y-108.16
T5
X135.46Y-121.74
X138.0Y-121.74
X140.54Y-121.74
X149.45Y-136.29
X149.45Y-142.79
X158.0Y-136.29
X158.0Y-142.79
X166.55Y-136.29
X166.55Y-142.79
T6
X136.25Y-78.5
X172.25Y-78.5
T7
X112.0Y-120.94
X112.25Y-138.94
X136.25Y-78.5
X172.25Y-78.5
X196.5Y-120.89
X196.75Y-138.89
M30
