<?xml version="1.0" standalone="no"?>
 <!DOCTYPE svg PUBLIC "-//W3C//DTD SVG 1.1//EN" 
 "http://www.w3.org/Graphics/SVG/1.1/DTD/svg11.dtd"> 
<svg
  xmlns:svg="http://www.w3.org/2000/svg"
  xmlns="http://www.w3.org/2000/svg"
  xmlns:xlink="http://www.w3.org/1999/xlink"
  version="1.1"
  width="297.0022mm" height="210.0072mm" viewBox="0.0000 0.0000 297.0022 210.0072">
<title>SVG Image created as micromouse_nano-B_Cu.svg date 2024/11/19 09:32:23 </title>
  <desc>Image generated by PCBNEW </desc>
<g style="fill:#000000; fill-opacity:1.0000;stroke:#000000; stroke-opacity:1.0000;
stroke-linecap:round; stroke-linejoin:round;"
 transform="translate(0 0) scale(1 1)">
</g>
<g style="fill:#000000; fill-opacity:1.0000; 
stroke:#000000; stroke-width:0.0212; stroke-opacity:1; 
stroke-linecap:round; stroke-linejoin:round;">
<rect x="103.052200" y="55.700000" width="83.890000" height="79.630000" rx="0.000000" />
<path style="fill:#FFFFFF; fill-opacity:1.0000; stroke:none;fill-rule:evenodd;"
d="M 130.6822,79.6000
130.6822,77.9000
128.9822,77.9000
128.9822,79.6000
Z" /> 
<path style="fill:#FFFFFF; fill-opacity:1.0000; stroke:none;fill-rule:evenodd;"
d="M 175.9622,101.0300
175.9622,99.3300
174.2622,99.3300
174.2622,101.0300
Z" /> 
<path style="fill:#FFFFFF; fill-opacity:1.0000; stroke:none;fill-rule:evenodd;"
d="M 121.1522,124.7800
119.1522,124.7800
119.1522,126.7800
121.1522,126.7800
Z" /> 
<path style="fill:#FFFFFF; fill-opacity:1.0000; stroke:none;fill-rule:evenodd;"
d="M 121.1522,104.7800
119.1522,104.7800
119.1522,106.7800
121.1522,106.7800
Z" /> 
<path style="fill:#FFFFFF; fill-opacity:1.0000; stroke:none;fill-rule:evenodd;"
d="M 171.1522,124.7800
169.1522,124.7800
169.1522,126.7800
171.1522,126.7800
Z" /> 
<path style="fill:#FFFFFF; fill-opacity:1.0000; stroke:none;fill-rule:evenodd;"
d="M 171.1522,104.7800
169.1522,104.7800
169.1522,106.7800
171.1522,106.7800
Z" /> 
<path style="fill:#FFFFFF; fill-opacity:1.0000; stroke:none;fill-rule:evenodd;"
d="M 166.1122,100.0200
167.7122,100.0200
167.7122,98.4200
166.1122,98.4200
Z" /> 
</g>
<g style="fill:none; 
stroke:#FFFFFF; stroke-width:1.8000; stroke-opacity:1; 
stroke-linecap:round; stroke-linejoin:round;">
<path d="M164.3722 99.4700
L164.3722 98.9700
" />
<path d="M161.8322 99.4700
L161.8322 98.9700
" />
<path d="M159.2922 99.4700
L159.2922 98.9700
" />
<path d="M156.7522 99.4700
L156.7522 98.9700
" />
<path d="M154.2122 99.4700
L154.2122 98.9700
" />
<path d="M151.6722 99.4700
L151.6722 98.9700
" />
<path d="M149.1322 99.4700
L149.1322 98.9700
" />
<path d="M146.5922 99.4700
L146.5922 98.9700
" />
<path d="M144.0522 99.4700
L144.0522 98.9700
" />
<path d="M141.5122 99.4700
L141.5122 98.9700
" />
<path d="M138.9722 99.4700
L138.9722 98.9700
" />
<path d="M136.4322 99.4700
L136.4322 98.9700
" />
<path d="M133.8922 99.4700
L133.8922 98.9700
" />
<path d="M131.3522 99.4700
L131.3522 98.9700
" />
<path d="M131.3522 84.2300
L131.3522 83.7300
" />
<path d="M133.8922 84.2300
L133.8922 83.7300
" />
<path d="M136.4322 84.2300
L136.4322 83.7300
" />
<path d="M138.9722 84.2300
L138.9722 83.7300
" />
<path d="M141.5122 84.2300
L141.5122 83.7300
" />
<path d="M144.0522 84.2300
L144.0522 83.7300
" />
<path d="M146.5922 84.2300
L146.5922 83.7300
" />
<path d="M149.1322 84.2300
L149.1322 83.7300
" />
<path d="M151.6722 84.2300
L151.6722 83.7300
" />
<path d="M154.2122 84.2300
L154.2122 83.7300
" />
<path d="M156.7522 84.2300
L156.7522 83.7300
" />
<path d="M159.2922 84.2300
L159.2922 83.7300
" />
<path d="M161.8322 84.2300
L161.8322 83.7300
" />
<path d="M164.3722 84.2300
L164.3722 83.7300
" />
<path d="M166.9122 84.2300
L166.9122 83.7300
" />
<path style="fill:#FFFFFF; fill-opacity:1.0000; stroke:none;fill-rule:evenodd;"
d="M 137.1122,75.9300
135.4122,75.9300
135.4122,77.6300
137.1122,77.6300
Z" /> 
</g>
<g style="fill:none; 
stroke:#FFFFFF; stroke-width:1.8000; stroke-opacity:1; 
stroke-linecap:round; stroke-linejoin:round;">
<path d="M138.8022 76.5300
L138.8022 77.0300
" />
<path d="M141.3422 76.5300
L141.3422 77.0300
" />
<path d="M143.8822 76.5300
L143.8822 77.0300
" />
<path d="M146.4222 76.5300
L146.4222 77.0300
" />
<path d="M148.9622 76.5300
L148.9622 77.0300
" />
<path d="M151.5022 76.5300
L151.5022 77.0300
" />
<path d="M154.0422 76.5300
L154.0422 77.0300
" />
<path d="M156.5822 76.5300
L156.5822 77.0300
" />
<path d="M159.1222 76.5300
L159.1222 77.0300
" />
<path d="M161.6622 76.5300
L161.6622 77.0300
" />
<path style="fill:#FFFFFF; fill-opacity:1.0000; stroke:none;fill-rule:evenodd;"
d="M 156.1322,108.1550
156.1322,106.5550
154.5322,106.5550
154.5322,108.1550
Z" /> 
</g>
<g style="fill:none; 
stroke:#FFFFFF; stroke-width:1.8000; stroke-opacity:1; 
stroke-linecap:round; stroke-linejoin:round;">
<path d="M155.5822 109.8950
L155.0822 109.8950
" />
<path d="M155.5822 112.4350
L155.0822 112.4350
" />
<path d="M155.5822 114.9750
L155.0822 114.9750
" />
<path d="M155.5822 117.5150
L155.0822 117.5150
" />
<path d="M155.5822 120.0550
L155.0822 120.0550
" />
<path d="M155.5822 122.5950
L155.0822 122.5950
" />
<path d="M155.5822 125.1350
L155.0822 125.1350
" />
<path d="M147.9622 125.1350
L147.4622 125.1350
" />
<path d="M147.9622 122.5950
L147.4622 122.5950
" />
<path d="M147.9622 120.0550
L147.4622 120.0550
" />
<path d="M147.9622 117.5150
L147.4622 117.5150
" />
<path d="M147.9622 114.9750
L147.4622 114.9750
" />
<path d="M147.9622 112.4350
L147.4622 112.4350
" />
<path d="M147.9622 109.8950
L147.4622 109.8950
" />
<path d="M147.9622 107.3550
L147.4622 107.3550
" />
<path style="fill:#FFFFFF; fill-opacity:1.0000; stroke:none;fill-rule:evenodd;"
d="M 141.7572,108.0075
139.7572,108.0075
139.7572,109.9125
141.7572,109.9125
Z" /> 
</g>
<g style="fill:none; 
stroke:#FFFFFF; stroke-width:1.8000; stroke-opacity:1; 
stroke-linecap:round; stroke-linejoin:round;">
<path d="M140.5072 111.5000
L141.0072 111.5000
" />
<path d="M140.5072 114.0400
L141.0072 114.0400
" />
<path style="fill:#FFFFFF; fill-opacity:1.0000; stroke:none;fill-rule:evenodd;"
d="M 115.7022,122.7400
115.7022,121.0400
114.0022,121.0400
114.0022,122.7400
Z" /> 
</g>
<g style="fill:none; 
stroke:#FFFFFF; stroke-width:1.8000; stroke-opacity:1; 
stroke-linecap:round; stroke-linejoin:round;">
<path d="M115.1022 124.4300
L114.6022 124.4300
" />
<path d="M113.0322 115.1200
L113.0322 115.6200
" />
<path d="M113.0322 112.5800
L113.0322 113.0800
" />
<path d="M178.0497 113.8500
L178.0497 113.3500
" />
<path d="M178.0497 116.3900
L178.0497 115.8900
" />
</g>
<g style="fill:#FFFFFF; fill-opacity:1.0000; stroke:none;">
<circle cx="126.6522" cy="91.7750" r="1.0000" /> 
</g>
<g style="fill:#FFFFFF; fill-opacity:1.0000; stroke:none;">
<circle cx="176.8022" cy="104.2900" r="1.0000" /> 
</g>
<g style="fill:#FFFFFF; fill-opacity:1.0000; stroke:none;">
<circle cx="144.6822" cy="118.1100" r="1.0000" /> 
</g>
<g style="fill:#FFFFFF; fill-opacity:1.0000; stroke:none;">
<circle cx="151.7722" cy="89.9300" r="1.0000" /> 
</g>
<g style="fill:#FFFFFF; fill-opacity:1.0000; stroke:none;">
<circle cx="177.4722" cy="125.3200" r="1.0000" /> 
</g>
<g style="fill:#FFFFFF; fill-opacity:1.0000; stroke:none;">
<circle cx="137.3322" cy="127.4700" r="1.0000" /> 
</g>
<g style="fill:#FFFFFF; fill-opacity:1.0000; stroke:none;">
<circle cx="119.7822" cy="67.3600" r="1.0000" /> 
</g>
<g style="fill:#FFFFFF; fill-opacity:1.0000; stroke:none;">
<circle cx="127.9322" cy="111.2500" r="1.0000" /> 
</g>
<g style="fill:#FFFFFF; fill-opacity:1.0000; stroke:none;">
<circle cx="125.1322" cy="125.9100" r="1.0000" /> 
</g>
<g style="fill:#FFFFFF; fill-opacity:1.0000; stroke:none;">
<circle cx="173.6822" cy="87.7300" r="1.0000" /> 
</g>
<g style="fill:#FFFFFF; fill-opacity:1.0000; stroke:none;">
<circle cx="138.2822" cy="109.2800" r="1.0000" /> 
</g>
<g style="fill:#FFFFFF; fill-opacity:1.0000; stroke:none;">
<circle cx="166.3122" cy="80.4700" r="1.0000" /> 
</g>
<g style="fill:#FFFFFF; fill-opacity:1.0000; stroke:none;">
<circle cx="125.7822" cy="87.2250" r="1.0000" /> 
</g>
<g style="fill:#FFFFFF; fill-opacity:1.0000; stroke:none;">
<circle cx="123.8422" cy="79.2300" r="1.0000" /> 
</g>
<g style="fill:#FFFFFF; fill-opacity:1.0000; stroke:none;">
<circle cx="126.5322" cy="96.3250" r="1.0000" /> 
</g>
<g style="fill:#FFFFFF; fill-opacity:1.0000; stroke:none;">
<circle cx="159.4422" cy="73.6000" r="1.0000" /> 
</g>
<g style="fill:#FFFFFF; fill-opacity:1.0000; stroke:none;">
<circle cx="116.6222" cy="112.6800" r="1.0000" /> 
</g>
<g style="fill:#FFFFFF; fill-opacity:1.0000; stroke:none;">
<circle cx="116.6022" cy="117.6500" r="1.0000" /> 
</g>
<g style="fill:#FFFFFF; fill-opacity:1.0000; stroke:none;">
<circle cx="173.4622" cy="116.3900" r="1.0000" /> 
</g>
<g style="fill:#FFFFFF; fill-opacity:1.0000; stroke:none;">
<circle cx="173.3122" cy="113.0900" r="1.0000" /> 
</g>
<g style="fill:#FFFFFF; fill-opacity:1.0000; stroke:none;">
<circle cx="126.6122" cy="103.6200" r="1.0000" /> 
</g>
<g style="fill:none; 
stroke:#FFFFFF; stroke-width:0.4000; stroke-opacity:1; 
stroke-linecap:round; stroke-linejoin:round;">
<path d="M144.0522 99.2200
L144.0522 97.9300
" />
<path d="M144.0522 97.9300
L133.8722 87.7500
" />
<path d="M133.8722 87.7500
L130.5122 87.7500
" />
<path d="M130.5122 87.7500
L123.8422 81.0800
" />
<path d="M123.8422 81.0800
L123.8422 79.2300
" />
<path d="M125.7822 87.2250
L128.4972 87.2250
" />
<path d="M128.4972 87.2250
L136.4322 95.1600
" />
<path d="M136.4322 95.1600
L136.4322 99.2200
" />
<path d="M131.3522 83.9800
L129.8522 82.4800
" />
<path d="M129.8522 82.4800
L129.8522 78.7700
" />
<path d="M129.8522 78.7700
L129.8322 78.7500
" />
<path d="M156.7522 99.2200
L156.7522 97.3400
" />
<path d="M156.7522 97.3400
L158.3422 95.7500
" />
<path d="M158.3422 95.7500
L172.4022 95.7500
" />
<path d="M172.4022 95.7500
L175.1122 98.4600
" />
<path d="M175.1122 98.4600
L175.1122 100.1800
" />
</g>
<g style="fill:none; 
stroke:#FFFFFF; stroke-width:0.7000; stroke-opacity:1; 
stroke-linecap:round; stroke-linejoin:round;">
<path d="M155.3322 125.1350
L158.3472 125.1350
" />
<path d="M158.3472 125.1350
L158.9922 125.7800
" />
<path d="M158.9922 125.7800
L170.1522 125.7800
" />
</g>
<g style="fill:none; 
stroke:#FFFFFF; stroke-width:0.4000; stroke-opacity:1; 
stroke-linecap:round; stroke-linejoin:round;">
<path d="M151.6722 83.9800
L151.6722 76.9500
" />
<path d="M151.6722 76.9500
L151.5022 76.7800
" />
<path d="M155.3322 107.3550
L155.3322 103.5000
" />
<path d="M155.3322 103.5000
L154.2122 102.3800
" />
<path d="M154.2122 102.3800
L154.2122 99.2200
" />
<path d="M146.4022 101.5200
L142.6922 101.5200
" />
<path d="M142.6922 101.5200
L141.5122 100.3400
" />
<path d="M151.0822 106.2000
L146.4022 101.5200
" />
<path d="M149.3272 122.5950
L151.0822 120.8400
" />
<path d="M147.7122 122.5950
L149.3272 122.5950
" />
<path d="M141.5122 100.3400
L141.5122 99.2200
" />
<path d="M151.0822 120.8400
L151.0822 106.2000
" />
<path d="M126.6522 91.7750
L129.5672 91.7750
" />
<path d="M133.8922 96.1000
L133.8922 99.2200
" />
<path d="M129.5672 91.7750
L133.8922 96.1000
" />
</g>
<g style="fill:none; 
stroke:#FFFFFF; stroke-width:0.7000; stroke-opacity:1; 
stroke-linecap:round; stroke-linejoin:round;">
<path d="M125.1322 125.9100
L120.2822 125.9100
" />
<path d="M120.2822 125.9100
L120.1522 125.7800
" />
<path d="M173.6822 87.7300
L170.6622 87.7300
" />
<path d="M170.6622 87.7300
L166.9122 83.9800
" />
<path d="M120.0422 125.8900
L120.1522 125.7800
" />
<path d="M138.2822 109.2800
L140.4372 109.2800
" />
<path d="M114.8522 124.4300
L116.3122 125.8900
" />
<path d="M116.3122 125.8900
L120.0422 125.8900
" />
<path d="M166.3122 83.3800
L166.9122 83.9800
" />
<path d="M140.4372 109.2800
L140.7572 108.9600
" />
<path d="M166.3122 80.4700
L166.3122 83.3800
" />
</g>
<g style="fill:none; 
stroke:#FFFFFF; stroke-width:0.4000; stroke-opacity:1; 
stroke-linecap:round; stroke-linejoin:round;">
<path d="M152.7622 120.9100
L152.7622 104.6200
" />
<path d="M149.1322 100.9900
L149.1322 99.2200
" />
<path d="M154.4472 122.5950
L152.7622 120.9100
" />
<path d="M152.7622 104.6200
L149.1322 100.9900
" />
<path d="M155.3322 122.5950
L154.4472 122.5950
" />
<path d="M138.9722 76.9500
L138.8022 76.7800
" />
<path d="M138.9722 83.9800
L138.9722 76.9500
" />
<path d="M141.5122 76.9500
L141.3422 76.7800
" />
<path d="M141.5122 83.9800
L141.5122 76.9500
" />
<path d="M126.5322 96.3250
L128.4572 96.3250
" />
<path d="M128.4572 96.3250
L131.3522 99.2200
" />
<path d="M154.2122 83.9800
L154.2122 76.9500
" />
<path d="M154.2122 76.9500
L154.0422 76.7800
" />
<path d="M156.7522 76.9500
L156.5822 76.7800
" />
<path d="M156.7522 83.9800
L156.7522 76.9500
" />
<path d="M151.6722 101.3500
L151.6722 99.2200
" />
<path d="M155.3322 109.8950
L154.0972 109.8950
" />
<path d="M153.5922 109.3900
L153.5922 103.2700
" />
<path d="M153.5922 103.2700
L151.6722 101.3500
" />
<path d="M154.0972 109.8950
L153.5922 109.3900
" />
<path d="M144.0522 83.9800
L144.0522 76.9500
" />
<path d="M144.0522 76.9500
L143.8822 76.7800
" />
<path d="M149.8622 108.8800
L149.8622 106.3300
" />
<path d="M148.8472 109.8950
L149.8622 108.8800
" />
<path d="M149.8622 106.3300
L146.6422 103.1100
" />
<path d="M147.7122 109.8950
L148.8472 109.8950
" />
<path d="M146.6422 103.1100
L141.5022 103.1100
" />
<path d="M138.9722 100.5800
L138.9722 99.2200
" />
<path d="M141.5022 103.1100
L138.9722 100.5800
" />
<path d="M149.1322 76.9500
L148.9622 76.7800
" />
<path d="M149.1322 83.9800
L149.1322 76.9500
" />
<path d="M147.7122 125.1350
L149.9672 125.1350
" />
<path d="M146.5922 99.8900
L146.5922 99.2200
" />
<path d="M151.9422 123.1600
L151.9422 105.2400
" />
<path d="M149.9672 125.1350
L151.9422 123.1600
" />
<path d="M151.9422 105.2400
L146.5922 99.8900
" />
<path d="M146.7122 99.3400
L146.5922 99.2200
" />
<path d="M146.5922 83.9800
L146.5922 76.9500
" />
<path d="M146.5922 76.9500
L146.4222 76.7800
" />
</g>
<g style="fill:none; 
stroke:#FFFFFF; stroke-width:0.7000; stroke-opacity:1; 
stroke-linecap:round; stroke-linejoin:round;">
<path d="M159.4422 73.6000
L159.4422 76.4600
" />
<path d="M159.4422 76.4600
L159.1222 76.7800
" />
<path d="M120.1822 117.7500
L120.1822 115.2700
" />
<path d="M117.5922 112.6800
L116.6222 112.6800
" />
<path d="M146.7772 112.4350
L138.8722 120.3400
" />
<path d="M147.7122 112.4350
L146.7772 112.4350
" />
<path d="M122.7722 120.3400
L120.1822 117.7500
" />
<path d="M120.1822 115.2700
L117.5922 112.6800
" />
<path d="M138.8722 120.3400
L122.7722 120.3400
" />
<path d="M147.7122 120.0550
L145.8572 120.0550
" />
<path d="M121.6122 122.6600
L116.6022 117.6500
" />
<path d="M145.8572 120.0550
L143.2522 122.6600
" />
<path d="M143.2522 122.6600
L121.6122 122.6600
" />
<path d="M170.7122 121.5600
L173.4622 118.8100
" />
<path d="M173.4622 118.8100
L173.4622 116.3900
" />
<path d="M160.6622 121.5600
L170.7122 121.5600
" />
<path d="M155.3322 120.0550
L159.1572 120.0550
" />
<path d="M159.1572 120.0550
L160.6622 121.5600
" />
<path d="M172.6572 112.4350
L173.3122 113.0900
" />
<path d="M155.3322 112.4350
L172.6572 112.4350
" />
<path d="M146.3672 107.3550
L143.5522 104.5400
" />
<path d="M131.2122 103.6200
L126.6122 103.6200
" />
<path d="M132.1322 104.5400
L131.2122 103.6200
" />
<path d="M141.7922 114.0400
L144.9122 110.9200
" />
<path d="M146.4072 107.3550
L147.7122 107.3550
" />
<path d="M143.5522 104.5400
L132.1322 104.5400
" />
<path d="M144.9122 108.8500
L146.4072 107.3550
" />
<path d="M144.9122 110.9200
L144.9122 108.8500
" />
<path d="M147.7122 107.3550
L146.3672 107.3550
" />
<path d="M140.7572 114.0400
L141.7922 114.0400
" />
<path style="fill:#FFFFFF; fill-opacity:1.0000; stroke:none;fill-rule:evenodd;"
d="M 150.0765,109.7982
150.0700,109.8043
149.3575,110.5168
149.3575,110.5168
149.3419,110.5272
149.3003,110.5740
149.2472,110.6782
149.2455,110.6814
149.1067,110.8725
148.9397,111.0395
148.9051,111.0647
148.8624,111.1200
148.8564,111.1896
148.8890,111.2514
148.9051,111.2653
148.9100,111.2689
148.9397,111.2905
149.1067,111.4575
149.1067,111.4575
149.1067,111.4575
149.1564,111.5259
149.2455,111.6486
149.3528,111.8590
149.4258,112.0836
149.4627,112.3169
149.4627,112.5531
149.4258,112.7864
149.3528,113.0110
149.2686,113.1761
149.2455,113.2214
149.1067,113.4125
148.9397,113.5795
148.8196,113.6668
148.7769,113.7221
148.7709,113.7917
148.8035,113.8535
148.8196,113.8674
148.8742,113.9071
148.8742,113.9071
149.0301,114.0630
149.1596,114.2412
149.2596,114.4376
149.3277,114.6472
149.3277,114.6472
149.3401,114.7250
148.1452,114.7250
148.1781,114.7820
148.2122,114.9092
148.2122,115.0408
148.1781,115.1680
148.1452,115.2250
149.3401,115.2250
149.3277,115.3028
149.3277,115.3028
149.2596,115.5124
149.1596,115.7088
149.0301,115.8870
148.8742,116.0429
148.7341,116.1447
148.6914,116.2000
148.6854,116.2696
148.7181,116.3314
148.7341,116.3453
148.8742,116.4471
148.8742,116.4471
149.0301,116.6030
149.1596,116.7812
149.2596,116.9776
149.3277,117.1872
149.3277,117.1872
149.3401,117.2650
148.1452,117.2650
148.1781,117.3220
148.2122,117.4492
148.2122,117.5808
148.1781,117.7080
148.1452,117.7650
149.3401,117.7650
149.3277,117.8428
149.3277,117.8428
149.2596,118.0524
149.1596,118.2488
149.0301,118.4270
148.8742,118.5829
148.8742,118.5829
148.8196,118.6226
148.7769,118.6779
148.7709,118.7475
148.8035,118.8093
148.8196,118.8232
148.9397,118.9105
149.1067,119.0775
149.1067,119.0775
149.1067,119.0775
149.1529,119.1410
149.2455,119.2686
149.3528,119.4790
149.4258,119.7036
149.4627,119.9369
149.4627,120.1731
149.4258,120.4064
149.3528,120.6310
149.2734,120.7867
149.2455,120.8414
149.1067,121.0325
148.9397,121.1995
148.9051,121.2247
148.8624,121.2800
148.8564,121.3496
148.8890,121.4114
148.9051,121.4253
148.9271,121.4413
148.9397,121.4505
149.0520,121.5628
149.1133,121.5963
149.1830,121.5913
149.2274,121.5628
150.2454,120.5447
150.2789,120.4834
150.2817,120.4571
150.2817,109.8919
150.2620,109.8249
150.2092,109.7791
150.1401,109.7692
Z" /> 
<path style="fill:#FFFFFF; fill-opacity:1.0000; stroke:none;fill-rule:evenodd;"
d="M 156.7380,113.4052
156.7174,113.4218
156.5597,113.5795
156.4396,113.6668
156.3969,113.7221
156.3909,113.7917
156.4235,113.8535
156.4396,113.8674
156.4942,113.9071
156.4942,113.9071
156.6501,114.0630
156.7796,114.2412
156.8796,114.4376
156.9477,114.6472
156.9477,114.6472
156.9601,114.7250
155.7652,114.7250
155.7981,114.7820
155.8322,114.9092
155.8322,115.0408
155.7981,115.1680
155.7652,115.2250
156.9601,115.2250
156.9477,115.3028
156.9477,115.3028
156.8796,115.5124
156.7796,115.7088
156.6501,115.8870
156.4942,116.0429
156.3541,116.1447
156.3114,116.2000
156.3054,116.2696
156.3381,116.3314
156.3541,116.3453
156.4942,116.4471
156.4942,116.4471
156.6501,116.6030
156.7796,116.7812
156.8796,116.9776
156.9477,117.1872
156.9477,117.1872
156.9601,117.2650
155.7652,117.2650
155.7981,117.3220
155.8322,117.4492
155.8322,117.5808
155.7981,117.7080
155.7652,117.7650
156.9601,117.7650
156.9477,117.8428
156.9477,117.8428
156.8796,118.0524
156.7796,118.2488
156.6501,118.4270
156.4942,118.5829
156.4942,118.5829
156.4396,118.6226
156.3969,118.6779
156.3909,118.7475
156.4235,118.8093
156.4396,118.8232
156.5597,118.9105
156.5597,118.9105
156.7174,119.0682
156.7787,119.1017
156.8051,119.1045
159.2508,119.1045
159.2663,119.1076
159.2974,119.1138
159.4344,119.1410
159.4345,119.1410
159.6074,119.2127
159.6786,119.2602
159.6786,119.2602
159.7631,119.3167
159.7631,119.3167
161.0196,120.5732
161.0809,120.6067
161.1073,120.6095
170.2671,120.6095
170.3342,120.5898
170.3548,120.5732
172.4754,118.4526
172.5089,118.3913
172.5117,118.3649
172.5117,117.7402
172.4920,117.6731
172.4682,117.6459
172.3270,117.5252
172.2200,117.4000
171.4778,117.4000
171.4778,117.4000
171.4573,117.6478
171.4573,117.6478
171.3963,117.8889
171.2964,118.1166
171.1604,118.3248
171.1317,118.3559
170.9919,118.5077
170.7957,118.6605
170.5770,118.7788
170.3418,118.8596
170.0965,118.9005
169.8479,118.9005
169.6026,118.8596
169.3674,118.7788
169.1487,118.6605
168.9525,118.5077
168.7840,118.3248
168.6480,118.1166
168.5481,117.8889
168.4871,117.6478
168.4865,117.6410
168.4666,117.4000
168.4666,117.4000
168.4871,117.1522
168.4871,117.1522
168.5481,116.9111
168.6480,116.6834
168.7840,116.4752
168.8099,116.4471
168.9525,116.2923
169.1487,116.1395
169.1487,116.1395
169.1487,116.1395
169.3674,116.0212
169.3674,116.0212
169.6026,115.9404
169.8479,115.8995
170.0965,115.8995
170.3418,115.9404
170.5770,116.0212
170.5770,116.0212
170.7957,116.1395
170.9919,116.2923
171.1604,116.4752
171.2964,116.6834
171.3963,116.9111
171.4573,117.1522
171.4573,117.1522
171.4778,117.4000
172.2200,117.4000
172.1634,117.3337
172.0317,117.1189
171.9353,116.8861
171.8765,116.6411
171.8568,116.3900
171.8765,116.1389
171.9353,115.8939
171.9999,115.7381
172.0317,115.6611
172.1634,115.4463
172.1634,115.4463
172.2003,115.4031
172.3270,115.2548
172.5040,115.1036
172.5185,115.0912
172.5185,115.0912
172.7333,114.9595
172.9348,114.8761
172.9892,114.8322
173.0113,114.7659
172.9940,114.6982
172.9429,114.6506
172.9163,114.6409
172.8976,114.6364
172.8161,114.6169
172.5833,114.5205
172.3685,114.3888
172.1770,114.2252
172.0134,114.0337
171.8817,113.8189
171.7853,113.5861
171.7600,113.4806
171.7252,113.4200
171.6632,113.3878
171.6394,113.3855
156.8051,113.3855
Z" /> 
<path style="fill:#FFFFFF; fill-opacity:1.0000; stroke:none;fill-rule:evenodd;"
d="M 155.0822,117.0820
155.1392,117.0491
155.2664,117.0150
155.3980,117.0150
155.5252,117.0491
155.5822,117.0820
155.5822,115.4080
155.5252,115.4409
155.3980,115.4750
155.2664,115.4750
155.1392,115.4409
155.0822,115.4080
Z" /> 
<path style="fill:#FFFFFF; fill-opacity:1.0000; stroke:none;fill-rule:evenodd;"
d="M 147.4622,117.0820
147.5192,117.0491
147.6464,117.0150
147.7780,117.0150
147.9052,117.0491
147.9622,117.0820
147.9622,115.4080
147.9052,115.4409
147.7780,115.4750
147.6464,115.4750
147.5192,115.4409
147.4622,115.4080
Z" /> 
<path style="fill:#FFFFFF; fill-opacity:1.0000; stroke:none;fill-rule:evenodd;"
d="M 109.0597,61.6802
109.0139,61.7330
109.0027,61.7845
109.0027,129.0755
109.0224,129.1425
109.0752,129.1883
109.1267,129.1995
180.8477,129.1995
180.9147,129.1798
180.9605,129.1270
180.9717,129.0755
180.9717,113.2319
179.5502,113.2319
179.5502,113.9681
179.5133,114.2014
179.4403,114.4260
179.3801,114.5440
179.3330,114.6364
179.2300,114.7783
179.2163,114.7971
179.1928,114.8629
179.2086,114.9310
179.2163,114.9429
179.3330,115.1036
179.4403,115.3140
179.5133,115.5386
179.5502,115.7719
179.5502,116.5081
179.5133,116.7414
179.4403,116.9660
179.3567,117.1299
179.3330,117.1764
179.1942,117.3675
179.0272,117.5345
178.8361,117.6733
178.7680,117.7080
178.6257,117.7806
178.6257,117.7806
178.6257,117.7806
178.5053,117.8197
178.4011,117.8536
178.1678,117.8905
178.1678,117.8905
177.9316,117.8905
177.6983,117.8536
177.4737,117.7806
177.2633,117.6733
177.0722,117.5345
176.9052,117.3675
176.7664,117.1764
176.6591,116.9660
176.5861,116.7414
176.5806,116.7063
176.5492,116.5081
176.5492,115.7719
176.5861,115.5386
176.6561,115.3233
176.6591,115.3140
176.6591,115.3140
176.6591,115.3140
176.7251,115.1845
176.7664,115.1036
176.8831,114.9429
176.9066,114.8771
176.8908,114.8090
176.8831,114.7971
176.7664,114.6364
176.6591,114.4260
176.5861,114.2014
176.5797,114.1610
176.5492,113.9681
176.5492,113.2319
176.5861,112.9986
176.6591,112.7740
176.7369,112.6215
176.7664,112.5636
176.9052,112.3725
177.0722,112.2055
177.2633,112.0667
177.3207,112.0374
177.4737,111.9594
177.6983,111.8864
177.9316,111.8495
177.9316,111.8495
178.1678,111.8495
178.1678,111.8495
178.4011,111.8864
178.6257,111.9594
178.8361,112.0667
178.9451,112.1459
179.0272,112.2055
179.0272,112.2055
179.0272,112.2055
179.1942,112.3725
179.1942,112.3725
179.1942,112.3725
179.2538,112.4545
179.3330,112.5636
179.4403,112.7740
179.5133,112.9986
179.5502,113.2319
180.9717,113.2319
180.9717,104.7322
171.6522,104.7322
171.6522,105.5300
170.4679,105.5300
170.4723,105.5344
170.5249,105.6256
170.5522,105.7273
170.5522,105.8327
170.5249,105.9344
170.4723,106.0256
170.4679,106.0300
171.6522,106.0300
171.6522,106.8278
171.6458,106.8874
171.6458,106.8874
171.5956,107.0221
171.5956,107.0221
171.5094,107.1372
171.5094,107.1372
171.3943,107.2233
171.3943,107.2234
171.2596,107.2736
171.2596,107.2736
171.2000,107.2800
171.2000,107.2800
170.4022,107.2800
170.4022,106.0957
170.3978,106.1001
170.3066,106.1527
170.2049,106.1800
170.0995,106.1800
169.9978,106.1527
169.9066,106.1001
169.9022,106.0957
169.9022,107.2800
169.1044,107.2800
169.1044,107.2800
169.0448,107.2736
169.0448,107.2736
168.9101,107.2234
168.9101,107.2233
168.7950,107.1372
168.7950,107.1372
168.7088,107.0221
168.7088,107.0221
168.6586,106.8874
168.6586,106.8874
168.6522,106.8278
168.6522,106.8278
168.6522,106.0300
169.8365,106.0300
169.8321,106.0256
169.7795,105.9344
169.7522,105.8327
169.7522,105.7273
169.7795,105.6256
169.8321,105.5344
169.8365,105.5300
168.6522,105.5300
168.6522,104.7322
168.6522,104.7322
168.6586,104.6726
168.6586,104.6726
168.7088,104.5379
168.7088,104.5379
168.7950,104.4228
168.7950,104.4228
168.9101,104.3366
168.9101,104.3366
169.0448,104.2864
169.0448,104.2864
169.1044,104.2800
169.9022,104.2800
169.9022,105.4643
169.9066,105.4599
169.9978,105.4073
170.0995,105.3800
170.2049,105.3800
170.3066,105.4073
170.3978,105.4599
170.4022,105.4643
170.4022,104.2800
171.2000,104.2800
171.2596,104.2864
171.2596,104.2864
171.3943,104.3366
171.3943,104.3366
171.5094,104.4228
171.5094,104.4228
171.5956,104.5379
171.5956,104.5379
171.6458,104.6726
171.6458,104.6726
171.6522,104.7322
180.9717,104.7322
180.9717,99.2906
176.5627,99.2906
176.5627,101.0694
176.5472,101.1868
176.5472,101.1868
176.4867,101.3328
176.3905,101.4583
176.2650,101.5545
176.1190,101.6150
176.0016,101.6305
174.2228,101.6305
174.2228,101.6305
174.1054,101.6150
174.1054,101.6150
174.1054,101.6150
173.9594,101.5545
173.8339,101.4583
173.7377,101.3328
173.6772,101.1868
173.6617,101.0694
173.6617,99.2906
173.6617,99.2906
173.6617,99.2906
173.6772,99.1732
173.6772,99.1732
173.6772,99.1732
173.7377,99.0272
173.8339,98.9017
173.9594,98.8055
174.0469,98.7692
174.1013,98.7254
174.1233,98.6591
174.1061,98.5914
174.0871,98.5670
172.1069,96.5868
172.0456,96.5533
172.0193,96.5505
158.7251,96.5505
158.6581,96.5702
158.6375,96.5868
157.6407,97.5836
157.6072,97.6449
157.6122,97.7146
157.6541,97.7705
157.6555,97.7716
157.7297,97.8255
157.8967,97.9925
157.9840,98.1126
158.0393,98.1553
158.1089,98.1613
158.1707,98.1287
158.1846,98.1126
158.2243,98.0580
158.2243,98.0580
158.3802,97.9021
158.5584,97.7726
158.7548,97.6726
158.9644,97.6045
159.0422,97.5921
159.0422,98.7870
159.0992,98.7541
159.2264,98.7200
159.3580,98.7200
159.4852,98.7541
159.5422,98.7870
159.5422,97.5921
159.6200,97.6045
159.6200,97.6045
159.8296,97.6726
160.0260,97.7726
160.2042,97.9021
160.3601,98.0580
160.3601,98.0580
160.3998,98.1126
160.4551,98.1553
160.5247,98.1613
160.5865,98.1287
160.6004,98.1126
160.6877,97.9925
160.8547,97.8255
161.0458,97.6867
161.0754,97.6716
161.2562,97.5794
161.4808,97.5064
161.7141,97.4695
161.7141,97.4695
161.9503,97.4695
161.9503,97.4695
162.1836,97.5064
162.4082,97.5794
162.6186,97.6867
162.7133,97.7555
162.8097,97.8255
162.8097,97.8255
162.8097,97.8255
162.9767,97.9925
163.0019,98.0271
163.0572,98.0698
163.1268,98.0758
163.1886,98.0432
163.2025,98.0271
163.2066,98.0215
163.2277,97.9925
163.3947,97.8255
163.5858,97.6867
163.6154,97.6716
163.7962,97.5794
164.0208,97.5064
164.2541,97.4695
164.2541,97.4695
164.4903,97.4695
164.4903,97.4695
164.7236,97.5064
164.9482,97.5794
165.1586,97.6867
165.3497,97.8255
165.5123,97.9880
165.5736,98.0215
165.6433,98.0165
165.6764,97.9952
165.6775,97.9967
165.6839,97.9917
165.6839,97.9917
165.8094,97.8955
165.9554,97.8350
165.9554,97.8350
166.0728,97.8195
166.0728,97.8195
166.0728,97.8195
166.0728,97.8195
167.7516,97.8195
167.8690,97.8350
167.8690,97.8350
168.0150,97.8955
168.1405,97.9917
168.2367,98.1172
168.2972,98.2632
168.2972,98.2632
168.3127,98.3806
168.3127,98.3806
168.3127,100.0594
168.2972,100.1768
168.2972,100.1768
168.2367,100.3228
168.1405,100.4483
168.0150,100.5445
167.8690,100.6050
167.7516,100.6205
166.0728,100.6205
166.0728,100.6205
165.9554,100.6050
165.9554,100.6050
165.9554,100.6050
165.8094,100.5445
165.6839,100.4483
165.6839,100.4483
165.6775,100.4433
165.6758,100.4455
165.6263,100.4185
165.5566,100.4235
165.5123,100.4520
165.3497,100.6145
165.1586,100.7533
165.0592,100.8040
164.9482,100.8606
164.9482,100.8606
164.9482,100.8606
164.8278,100.8997
164.7236,100.9336
164.4903,100.9705
164.4903,100.9705
164.2541,100.9705
164.0208,100.9336
163.7962,100.8606
163.5858,100.7533
163.3947,100.6145
163.2277,100.4475
163.2025,100.4129
163.1472,100.3702
163.0776,100.3642
163.0158,100.3968
163.0019,100.4129
162.9767,100.4475
162.8097,100.6145
162.6186,100.7533
162.5192,100.8040
162.4082,100.8606
162.4082,100.8606
162.4082,100.8606
162.2878,100.8997
162.1836,100.9336
161.9503,100.9705
161.9503,100.9705
161.7141,100.9705
161.4808,100.9336
161.2562,100.8606
161.0458,100.7533
160.8547,100.6145
160.6877,100.4475
160.6004,100.3274
160.5451,100.2847
160.4755,100.2787
160.4137,100.3113
160.3998,100.3274
160.3601,100.3820
160.3601,100.3820
160.2042,100.5379
160.0260,100.6674
159.8296,100.7674
159.6200,100.8355
159.5422,100.8479
159.5422,100.8479
159.5422,99.6530
159.4852,99.6859
159.3580,99.7200
159.2264,99.7200
159.0992,99.6859
159.0422,99.6530
159.0422,100.8479
158.9644,100.8355
158.9644,100.8355
158.7548,100.7674
158.5584,100.6674
158.3802,100.5379
158.2243,100.3820
158.1846,100.3274
158.1293,100.2847
158.0597,100.2787
157.9979,100.3113
157.9840,100.3274
157.8967,100.4475
157.7297,100.6145
157.5386,100.7533
157.4392,100.8040
157.3282,100.8606
157.3282,100.8606
157.3282,100.8606
157.2078,100.8997
157.1036,100.9336
156.8703,100.9705
156.8703,100.9705
156.6341,100.9705
156.4008,100.9336
156.1762,100.8606
155.9658,100.7533
155.7747,100.6145
155.6077,100.4475
155.5825,100.4129
155.5272,100.3702
155.4576,100.3642
155.3958,100.3968
155.3819,100.4129
155.3567,100.4475
155.1897,100.6145
155.0638,100.7060
155.0211,100.7613
155.0127,100.8063
155.0127,101.9971
155.0324,102.0641
155.0490,102.0847
155.8425,102.8782
155.8982,102.9340
155.9540,102.9897
156.0416,103.1208
156.0416,103.1208
156.1019,103.2665
156.1019,103.2665
156.1327,103.4212
156.1327,105.8406
156.1524,105.9077
156.2052,105.9534
156.2405,105.9636
156.2890,105.9700
156.2890,105.9700
156.4350,106.0305
156.5605,106.1267
156.6567,106.2522
156.7172,106.3982
156.7172,106.3982
156.7327,106.5156
156.7327,106.5156
156.7327,108.1944
156.7172,108.3118
156.7172,108.3118
156.6808,108.3998
156.6567,108.4578
156.5605,108.5833
156.5605,108.5833
156.5555,108.5897
156.5577,108.5914
156.5307,108.6409
156.5357,108.7106
156.5642,108.7549
156.7267,108.9175
156.8655,109.1086
156.9728,109.3190
157.0458,109.5436
157.0827,109.7769
157.0827,110.0131
157.0458,110.2464
156.9728,110.4710
156.8822,110.6487
156.8655,110.6814
156.7267,110.8725
156.5597,111.0395
156.5251,111.0647
156.4824,111.1200
156.4764,111.1896
156.5090,111.2514
156.5251,111.2653
156.5300,111.2689
156.5597,111.2905
156.5597,111.2905
156.7174,111.4482
156.7787,111.4817
156.8051,111.4845
172.7508,111.4845
172.7663,111.4876
172.7974,111.4938
172.9389,111.5219
172.9921,111.5209
173.0610,111.5043
173.0611,111.5043
173.0611,111.5043
173.0611,111.5043
173.3122,111.4846
173.5634,111.5043
173.8083,111.5631
174.0411,111.6595
174.2559,111.7912
174.2559,111.7912
174.4474,111.9548
174.6110,112.1463
174.6110,112.1463
174.7427,112.3611
174.8391,112.5939
174.8979,112.8388
174.9176,113.0900
174.8979,113.3412
174.8391,113.5861
174.7427,113.8189
174.6110,114.0337
174.6110,114.0337
174.5604,114.0929
174.4474,114.2252
174.3206,114.3336
174.2559,114.3888
174.2559,114.3888
174.1763,114.4376
174.0411,114.5205
174.0411,114.5205
173.8396,114.6039
173.7852,114.6478
173.7631,114.7141
173.7804,114.7818
173.8315,114.8294
173.8581,114.8391
173.9583,114.8631
174.1911,114.9595
174.4059,115.0912
174.4059,115.0912
174.5974,115.2548
174.7610,115.4463
174.7610,115.4463
174.8927,115.6611
174.9891,115.8939
175.0479,116.1388
175.0676,116.3900
175.0479,116.6412
174.9891,116.8861
174.8927,117.1189
174.7610,117.3337
174.7610,117.3337
174.6624,117.4492
174.5974,117.5252
174.4562,117.6459
174.4180,117.7044
174.4127,117.7402
174.4127,118.9036
174.4037,118.9488
174.3775,119.0805
174.3762,119.0872
174.3045,119.2602
174.3045,119.2602
174.2005,119.4159
174.2005,119.4159
171.4505,122.1659
171.3822,122.2343
171.3181,122.2983
171.1624,122.4023
171.1624,122.4023
171.1624,122.4023
170.9895,122.4740
170.9578,122.4803
170.8977,122.4922
170.8976,122.4922
170.8976,122.4922
170.8364,122.5044
170.8058,122.5105
170.8058,122.5105
160.5686,122.5105
160.5502,122.5068
160.4768,122.4922
160.4768,122.4922
160.4537,122.4876
160.3849,122.4740
160.3133,122.4443
160.2120,122.4023
160.0563,122.2983
158.7998,121.0418
158.7385,121.0083
158.7121,121.0055
156.8051,121.0055
156.7380,121.0252
156.7174,121.0418
156.5597,121.1995
156.5251,121.2247
156.4824,121.2800
156.4764,121.3496
156.5090,121.4114
156.5251,121.4253
156.5428,121.4382
156.5597,121.4505
156.7267,121.6175
156.7267,121.6175
156.7267,121.6175
156.7545,121.6557
156.8655,121.8086
156.9728,122.0190
157.0458,122.2436
157.0827,122.4769
157.0827,122.7131
157.0458,122.9464
156.9728,123.1710
156.9048,123.3044
156.8655,123.3814
156.7267,123.5725
156.5597,123.7395
156.5251,123.7647
156.4824,123.8200
156.4764,123.8896
156.5090,123.9514
156.5251,123.9653
156.5428,123.9782
156.5597,123.9905
156.5597,123.9905
156.7174,124.1482
156.7787,124.1817
156.8051,124.1845
158.4408,124.1845
158.6244,124.2210
158.6244,124.2210
158.6244,124.2210
158.6245,124.2210
158.6961,124.2507
158.6961,124.2507
158.7974,124.2927
158.7974,124.2927
158.9531,124.3967
158.9531,124.3967
159.3496,124.7932
159.4109,124.8267
159.4373,124.8295
168.4313,124.8295
168.4983,124.8098
168.5441,124.7570
168.5542,124.7217
168.5672,124.6232
168.5672,124.6232
168.5672,124.6232
168.6277,124.4772
168.7239,124.3517
168.8494,124.2555
168.8608,124.2507
168.9954,124.1950
168.9954,124.1950
169.1128,124.1795
169.1128,124.1795
169.1128,124.1795
169.1128,124.1795
171.1916,124.1795
171.3090,124.1950
171.3090,124.1950
171.4550,124.2555
171.5805,124.3517
171.6767,124.4772
171.7372,124.6232
171.7372,124.6232
171.7527,124.7406
171.7527,124.7406
171.7527,124.7406
171.7527,126.8194
171.7372,126.9368
171.7372,126.9368
171.6923,127.0452
171.6767,127.0828
171.5805,127.2083
171.4550,127.3045
171.3090,127.3650
171.1916,127.3805
169.1128,127.3805
169.1128,127.3805
168.9954,127.3650
168.9954,127.3650
168.9954,127.3650
168.8494,127.3045
168.7239,127.2083
168.6277,127.0828
168.5672,126.9368
168.5542,126.8383
168.5259,126.7744
168.4676,126.7359
168.4313,126.7305
158.8986,126.7305
158.8802,126.7268
158.8068,126.7122
158.8068,126.7122
158.7837,126.7076
158.7149,126.6940
158.6433,126.6643
158.5420,126.6223
158.3863,126.5183
157.9898,126.1218
157.9285,126.0883
157.9021,126.0855
156.8051,126.0855
156.7380,126.1052
156.7174,126.1218
156.5597,126.2795
156.3686,126.4183
156.2692,126.4690
156.1582,126.5256
156.1582,126.5256
156.1582,126.5256
156.0378,126.5647
155.9336,126.5986
155.7003,126.6355
155.7003,126.6355
154.9641,126.6355
154.7308,126.5986
154.5062,126.5256
154.2958,126.4183
154.1047,126.2795
153.9377,126.1125
153.7989,125.9214
153.6916,125.7110
153.6186,125.4864
153.5817,125.2531
153.5817,125.0169
153.6186,124.7836
153.6708,124.6232
153.6916,124.5590
153.6916,124.5590
153.6916,124.5590
153.7812,124.3831
153.7989,124.3486
153.9377,124.1575
154.1047,123.9905
154.1393,123.9653
154.1820,123.9100
154.1880,123.8404
154.1554,123.7786
154.1393,123.7647
154.1047,123.7395
153.9377,123.5725
153.7989,123.3814
153.6916,123.1710
153.6186,122.9464
153.6159,122.9293
153.5860,122.8662
153.5812,122.8610
152.9544,122.2343
152.8931,122.2008
152.8234,122.2058
152.7674,122.2476
152.7430,122.3131
152.7427,122.3219
152.7427,123.2388
152.7119,123.3935
152.7119,123.3935
152.6516,123.5392
152.6516,123.5392
152.5640,123.6703
152.5640,123.6703
150.4775,125.7568
150.4775,125.7568
150.3464,125.8444
150.3464,125.8444
150.3464,125.8444
150.2007,125.9047
150.0712,125.9305
150.0460,125.9355
150.0460,125.9355
150.0460,125.9355
149.8884,125.9355
149.2985,125.9355
149.2315,125.9552
149.1982,125.9866
149.1067,126.1125
148.9397,126.2795
148.7486,126.4183
148.6492,126.4690
148.5382,126.5256
148.5382,126.5256
148.5382,126.5256
148.4178,126.5647
148.3136,126.5986
148.0803,126.6355
148.0803,126.6355
147.3441,126.6355
147.1108,126.5986
146.8862,126.5256
146.6758,126.4183
146.4847,126.2795
146.3177,126.1125
146.1789,125.9214
146.1730,125.9100
126.7376,125.9100
126.7179,126.1612
126.6591,126.4061
126.5627,126.6389
126.4310,126.8537
126.4310,126.8537
126.4207,126.8658
126.2674,127.0452
126.1191,127.1719
126.0759,127.2088
126.0759,127.2088
125.8611,127.3405
125.6283,127.4369
125.3833,127.4957
125.1322,127.5154
124.8811,127.4957
124.6361,127.4369
124.4033,127.3405
124.1885,127.2088
123.9970,127.0452
123.8763,126.9040
123.8178,126.8658
123.7820,126.8605
121.8517,126.8605
121.7846,126.8802
121.7389,126.9330
121.7371,126.9370
121.6923,127.0452
121.6767,127.0828
121.5805,127.2083
121.4550,127.3045
121.3090,127.3650
121.1916,127.3805
119.1128,127.3805
119.1128,127.3805
118.9954,127.3650
118.9954,127.3650
118.9954,127.3650
118.8494,127.3045
118.7239,127.2083
118.6277,127.0828
118.5672,126.9368
118.5672,126.9368
118.5660,126.9324
118.5296,126.8727
118.4668,126.8422
118.4462,126.8405
116.2186,126.8405
116.1477,126.8264
116.1123,126.8194
116.0349,126.8040
115.9103,126.7523
115.8620,126.7323
115.7063,126.6283
115.0448,125.9668
114.9835,125.9333
114.9571,125.9305
114.4841,125.9305
114.2508,125.8936
114.0262,125.8206
113.8158,125.7133
113.6247,125.5745
113.4577,125.4075
113.3189,125.2164
113.2116,125.0060
113.1386,124.7814
113.1322,124.7406
113.1017,124.5481
113.1017,124.3119
113.1386,124.0786
113.1755,123.9653
113.2116,123.8540
113.2116,123.8540
113.2116,123.8540
113.3052,123.6703
113.3189,123.6436
113.4577,123.4525
113.6247,123.2855
113.6247,123.2855
113.6281,123.2830
113.6707,123.2277
113.6767,123.1581
113.6489,123.1054
113.6503,123.1043
113.5588,122.9821
113.5588,122.9821
113.5086,122.8474
113.5086,122.8474
113.5022,122.7878
113.5022,122.7878
113.5022,122.1400
114.4192,122.1400
114.3863,122.0830
114.3522,121.9558
114.3522,121.8242
114.3863,121.6970
114.4192,121.6400
113.5022,121.6400
113.5022,120.9922
113.5022,120.9922
113.5086,120.9326
113.5086,120.9326
113.5588,120.7979
113.5588,120.7979
113.6450,120.6828
113.6450,120.6828
113.7601,120.5966
113.7601,120.5966
113.8948,120.5464
113.8948,120.5464
113.9544,120.5400
114.6022,120.5400
114.6022,121.4570
114.6592,121.4241
114.7864,121.3900
114.9180,121.3900
115.0452,121.4241
115.1022,121.4570
115.1022,120.5400
115.7500,120.5400
115.8096,120.5464
115.8096,120.5464
115.9443,120.5966
115.9443,120.5966
116.0594,120.6828
116.0594,120.6828
116.1456,120.7979
116.1456,120.7979
116.1958,120.9326
116.1958,120.9326
116.2022,120.9922
116.2022,121.6400
115.2852,121.6400
115.3181,121.6970
115.3522,121.8242
115.3522,121.9558
115.3181,122.0830
115.2852,122.1400
116.2022,122.1400
116.2022,122.7878
116.1958,122.8474
116.1958,122.8474
116.1456,122.9821
116.1456,122.9821
116.0541,123.1043
116.0558,123.1056
116.0281,123.1564
116.0330,123.2260
116.0749,123.2820
116.0763,123.2830
116.0797,123.2855
116.0797,123.2855
116.2467,123.4525
116.2467,123.4525
116.2467,123.4525
116.2829,123.5023
116.3855,123.6436
116.4928,123.8540
116.5658,124.0786
116.6027,124.3119
116.6027,124.5481
116.5732,124.7345
116.5821,124.8038
116.6080,124.8416
116.6696,124.9032
116.7309,124.9367
116.7573,124.9395
118.4277,124.9395
118.4947,124.9198
118.5405,124.8670
118.5517,124.8155
118.5517,124.7406
118.5672,124.6232
118.5672,124.6232
118.5672,124.6232
118.6277,124.4772
118.7239,124.3517
118.8494,124.2555
118.8608,124.2507
118.9954,124.1950
118.9954,124.1950
119.1128,124.1795
119.1128,124.1795
119.1128,124.1795
119.1128,124.1795
121.1916,124.1795
121.3090,124.1950
121.3090,124.1950
121.4550,124.2555
121.5805,124.3517
121.6767,124.4772
121.7372,124.6232
121.7372,124.6232
121.7527,124.7406
121.7527,124.7406
121.7527,124.7406
121.7527,124.8355
121.7724,124.9025
121.8252,124.9483
121.8767,124.9595
123.7820,124.9595
123.8491,124.9398
123.8763,124.9160
123.9970,124.7748
124.0370,124.7406
124.1885,124.6112
124.1885,124.6112
124.4033,124.4795
124.6361,124.3831
124.8810,124.3243
125.1322,124.3046
125.3834,124.3243
125.6283,124.3831
125.8611,124.4795
126.0759,124.6112
126.0759,124.6112
126.2674,124.7748
126.4310,124.9663
126.4310,124.9663
126.5627,125.1811
126.6591,125.4139
126.7179,125.6588
126.7376,125.9100
146.1730,125.9100
146.0716,125.7110
145.9986,125.4864
145.9617,125.2531
145.9617,125.0169
145.9986,124.7836
146.0508,124.6232
146.0716,124.5590
146.0716,124.5590
146.0716,124.5590
146.1612,124.3831
146.1789,124.3486
146.3177,124.1575
146.4847,123.9905
146.5193,123.9653
146.5620,123.9100
146.5680,123.8404
146.5354,123.7786
146.5193,123.7647
146.4847,123.7395
146.3177,123.5725
146.1789,123.3814
146.0716,123.1710
145.9986,122.9464
145.9859,122.8662
145.9617,122.7131
145.9617,122.4769
145.9986,122.2436
146.0716,122.0190
146.1789,121.8086
146.3177,121.6175
146.4847,121.4505
146.5193,121.4253
146.5620,121.3700
146.5680,121.3004
146.5354,121.2386
146.5193,121.2247
146.4847,121.1995
146.3585,121.0733
146.2972,121.0398
146.2275,121.0448
146.1831,121.0733
143.9905,123.2659
143.8917,123.3647
143.8581,123.3983
143.7024,123.5023
143.7024,123.5023
143.7024,123.5023
143.5295,123.5740
143.4606,123.5877
143.4319,123.5934
143.3458,123.6105
143.3458,123.6105
121.5186,123.6105
121.4421,123.5953
121.4038,123.5877
121.3349,123.5740
121.2509,123.5392
121.1620,123.5023
121.0063,123.3983
116.8848,119.2768
116.8235,119.2433
116.7874,119.2409
116.6022,119.2554
116.3511,119.2357
116.1061,119.1769
115.8733,119.0805
115.6585,118.9488
115.4670,118.7852
115.3034,118.5937
115.1717,118.3789
115.0753,118.1461
115.0165,117.9011
114.9968,117.6500
115.0165,117.3989
115.0753,117.1539
115.1187,117.0491
115.1717,116.9211
115.3034,116.7063
115.3034,116.7063
115.3590,116.6411
115.4670,116.5148
115.6131,116.3900
115.6585,116.3512
115.6585,116.3512
115.8733,116.2195
116.1061,116.1231
116.3510,116.0643
116.6022,116.0446
116.8534,116.0643
117.0983,116.1231
117.3311,116.2195
117.5459,116.3512
117.5459,116.3512
117.7374,116.5148
117.9010,116.7063
117.9010,116.7063
118.0327,116.9211
118.1291,117.1539
118.1879,117.3988
118.2076,117.6500
118.1931,117.8352
118.2074,117.9036
118.2290,117.9326
121.9696,121.6732
122.0309,121.7067
122.0573,121.7095
142.8071,121.7095
142.8742,121.6898
142.8948,121.6732
145.2513,119.3167
145.2513,119.3167
145.4070,119.2127
145.4070,119.2127
145.5083,119.1707
145.5083,119.1707
145.5799,119.1410
145.5800,119.1410
145.5800,119.1410
145.7170,119.1138
145.7481,119.1076
145.7636,119.1045
145.7636,119.1045
145.7636,119.1045
146.2393,119.1045
146.3063,119.0848
146.3270,119.0682
146.4847,118.9105
146.4847,118.9105
146.4847,118.9105
146.6048,118.8232
146.6475,118.7679
146.6535,118.6983
146.6209,118.6365
146.6048,118.6226
146.5502,118.5829
146.3943,118.4270
146.2648,118.2488
146.1648,118.0524
146.0967,117.8428
146.0967,117.8428
146.0843,117.7650
147.2792,117.7650
147.2463,117.7080
147.2122,117.5808
147.2122,117.4492
147.2463,117.3220
147.2792,117.2650
146.0843,117.2650
146.0967,117.1872
146.0967,117.1872
146.1648,116.9776
146.2648,116.7812
146.3943,116.6030
146.5502,116.4471
146.5502,116.4471
146.6903,116.3453
146.7330,116.2900
146.7390,116.2204
146.7063,116.1586
146.6903,116.1447
146.5502,116.0429
146.5502,116.0429
146.3943,115.8870
146.2648,115.7088
146.1648,115.5124
146.0967,115.3028
146.0967,115.3028
146.0843,115.2250
147.2792,115.2250
147.2463,115.1680
147.2122,115.0408
147.2122,114.9092
147.2463,114.7820
147.2792,114.7250
146.0843,114.7250
146.0549,114.6906
145.9964,114.6524
145.9266,114.6519
145.8730,114.6834
139.6105,120.9459
139.5312,121.0252
139.4781,121.0783
139.3224,121.1823
139.3224,121.1823
139.3224,121.1823
139.1495,121.2540
139.1178,121.2603
139.0577,121.2722
139.0576,121.2722
139.0576,121.2722
139.0185,121.2800
138.9658,121.2905
138.9658,121.2905
122.6786,121.2905
122.6602,121.2868
122.5868,121.2722
122.5868,121.2722
122.5637,121.2676
122.4949,121.2540
122.4109,121.2192
122.3220,121.1823
122.1663,121.0783
119.4439,118.3559
119.4231,118.3248
119.3399,118.2002
119.2682,118.0273
119.2358,117.8644
119.2317,117.8436
119.2317,117.6564
119.2317,115.7151
119.2120,115.6480
119.1954,115.6274
117.6232,114.0552
117.5619,114.0217
117.4922,114.0267
117.4707,114.0371
117.3511,114.1105
117.1183,114.2069
116.8733,114.2657
116.6222,114.2854
116.3711,114.2657
116.1261,114.2069
115.8933,114.1105
115.6785,113.9788
115.4870,113.8152
115.3234,113.6237
115.1917,113.4089
115.0953,113.1761
115.0365,112.9311
115.0168,112.6800
115.0339,112.4619
114.5327,112.4619
114.5327,113.1981
114.4958,113.4314
114.4228,113.6560
114.3398,113.8189
114.3155,113.8664
114.2286,113.9861
114.1988,114.0271
114.1753,114.0929
114.1911,114.1610
114.1988,114.1729
114.3155,114.3336
114.4228,114.5440
114.4958,114.7686
114.5327,115.0019
114.5327,115.7381
114.4958,115.9714
114.4228,116.1960
114.3437,116.3512
114.3155,116.4064
114.1767,116.5975
114.0097,116.7645
113.8186,116.9033
113.7837,116.9211
113.6082,117.0106
113.6082,117.0106
113.6082,117.0106
113.5407,117.0325
113.3836,117.0836
113.1503,117.1205
113.1503,117.1205
112.9141,117.1205
112.6808,117.0836
112.4562,117.0106
112.2458,116.9033
112.0547,116.7645
111.8877,116.5975
111.7489,116.4064
111.6416,116.1960
111.5686,115.9714
111.5573,115.8995
111.5317,115.7381
111.5317,115.0019
111.5686,114.7686
111.6079,114.6478
111.6416,114.5440
111.6416,114.5440
111.6416,114.5440
111.7489,114.3336
111.7982,114.2657
111.8656,114.1729
111.8891,114.1071
111.8733,114.0390
111.8656,114.0271
111.7489,113.8664
111.6416,113.6560
111.5686,113.4314
111.5668,113.4200
111.5317,113.1981
111.5317,112.4619
111.5686,112.2286
111.6416,112.0040
111.7015,111.8864
111.7489,111.7936
111.8877,111.6025
112.0547,111.4355
112.2458,111.2967
112.3073,111.2653
112.4562,111.1894
112.6808,111.1164
112.9141,111.0795
112.9141,111.0795
113.1503,111.0795
113.1503,111.0795
113.3836,111.1164
113.6082,111.1894
113.8186,111.2967
113.9276,111.3759
114.0097,111.4355
114.0097,111.4355
114.0097,111.4355
114.1767,111.6025
114.1767,111.6025
114.1767,111.6025
114.2182,111.6595
114.3155,111.7936
114.4228,112.0040
114.4958,112.2286
114.5327,112.4619
115.0339,112.4619
115.0365,112.4289
115.0953,112.1839
115.1109,112.1463
115.1917,111.9511
115.3234,111.7363
115.3234,111.7363
115.3864,111.6626
115.4870,111.5448
115.6165,111.4342
115.6785,111.3812
115.6785,111.3812
115.8933,111.2495
116.1261,111.1531
116.3710,111.0943
116.6222,111.0746
116.8734,111.0943
117.1183,111.1531
117.3511,111.2495
117.5659,111.3812
117.5659,111.3812
117.7574,111.5448
117.9210,111.7363
117.9210,111.7363
117.9419,111.7704
117.9937,111.8173
118.0002,111.8202
118.0424,111.8377
118.1189,111.8888
118.1189,111.8888
118.1981,111.9417
118.1981,111.9417
120.9205,114.6641
120.9205,114.6641
121.0245,114.8198
121.0245,114.8198
121.0665,114.9211
121.0665,114.9211
121.0824,114.9595
121.0962,114.9928
121.0962,114.9928
121.1327,115.1764
121.1327,117.3049
121.1524,117.3720
121.1690,117.3926
123.1296,119.3532
123.1909,119.3867
123.2173,119.3895
138.4271,119.3895
138.4942,119.3698
138.5148,119.3532
140.4580,117.4100
125.5578,117.4100
125.5578,117.4100
125.5373,117.6578
125.5373,117.6578
125.4763,117.8989
125.3764,118.1266
125.2404,118.3348
125.2404,118.3348
125.0719,118.5177
124.8757,118.6705
124.8757,118.6705
124.6637,118.7852
124.6570,118.7888
124.4218,118.8696
124.1765,118.9105
123.9279,118.9105
123.6826,118.8696
123.4474,118.7888
123.2287,118.6705
123.0325,118.5177
122.8640,118.3348
122.7280,118.1266
122.6281,117.8989
122.5671,117.6578
122.5664,117.6500
122.5466,117.4100
122.5466,117.4100
122.5671,117.1622
122.5671,117.1622
122.6281,116.9211
122.7280,116.6934
122.8640,116.4852
122.9874,116.3512
123.0325,116.3023
123.2287,116.1495
123.2287,116.1495
123.2287,116.1495
123.4474,116.0312
123.4474,116.0312
123.6826,115.9504
123.9279,115.9095
124.1765,115.9095
124.4218,115.9504
124.6570,116.0312
124.6570,116.0312
124.8757,116.1495
125.0719,116.3023
125.2404,116.4852
125.3764,116.6934
125.4763,116.9211
125.5373,117.1622
125.5373,117.1622
125.5578,117.4100
140.4580,117.4100
146.1228,111.7452
146.1456,111.7138
146.1789,111.6486
146.2123,111.6025
146.3177,111.4575
146.4847,111.2905
146.5193,111.2653
146.5620,111.2100
146.5680,111.1404
146.5354,111.0786
146.5193,111.0647
146.4847,111.0395
146.3177,110.8725
146.1789,110.6814
146.0972,110.5211
146.0492,110.4703
145.9814,110.4536
145.9153,110.4761
145.8718,110.5308
145.8627,110.5774
145.8627,111.0136
145.8262,111.1972
145.8262,111.1972
145.8262,111.1973
145.8045,111.2495
145.7965,111.2689
145.7545,111.3702
145.7545,111.3702
145.6505,111.5259
145.6505,111.5259
142.5305,114.6459
142.3981,114.7783
142.2754,114.8603
142.2440,114.8905
142.1517,115.0175
141.9847,115.1845
141.7936,115.3233
141.6942,115.3740
141.5832,115.4306
141.5832,115.4306
141.5832,115.4306
141.5346,115.4463
141.3586,115.5036
141.1253,115.5405
141.1253,115.5405
140.3891,115.5405
140.1558,115.5036
139.9312,115.4306
139.7208,115.3233
139.5297,115.1845
139.3627,115.0175
139.2239,114.8264
139.1166,114.6160
139.0436,114.3914
139.0269,114.2854
139.0067,114.1581
139.0067,113.9219
139.0436,113.6886
139.0791,113.5795
139.1166,113.4640
139.1166,113.4640
139.1166,113.4640
139.2239,113.2536
139.3627,113.0625
139.5297,112.8955
139.6498,112.8082
139.6925,112.7529
139.6985,112.6833
139.6659,112.6215
139.6498,112.6076
139.5952,112.5679
139.4393,112.4120
139.3098,112.2338
139.2098,112.0374
139.1417,111.8278
139.1417,111.8278
139.1293,111.7500
140.3242,111.7500
140.2913,111.6930
140.2572,111.5658
140.2572,111.4342
140.2913,111.3070
140.3242,111.2500
139.1293,111.2500
139.1417,111.1722
139.1417,111.1722
139.2098,110.9626
139.2872,110.8107
139.3001,110.7420
139.2738,110.6773
139.2167,110.6370
139.1469,110.6340
139.1119,110.6487
139.0111,110.7105
138.9348,110.7420
138.7783,110.8069
138.5333,110.8657
138.2822,110.8854
138.0311,110.8657
137.7861,110.8069
137.5533,110.7105
137.3385,110.5788
137.1470,110.4152
136.9834,110.2237
136.8517,110.0089
136.7553,109.7761
136.6965,109.5311
136.6768,109.2800
136.6965,109.0289
136.7553,108.7839
136.8027,108.6695
136.8517,108.5511
136.9834,108.3363
136.9834,108.3363
137.0203,108.2931
137.1470,108.1448
137.2736,108.0366
137.3385,107.9812
137.3385,107.9812
137.5533,107.8495
137.7861,107.7531
138.0310,107.6943
138.2822,107.6746
138.5334,107.6943
138.7783,107.7531
139.0111,107.8495
139.0162,107.8527
139.0836,107.8709
139.1502,107.8498
139.1948,107.7960
139.1955,107.7944
139.2126,107.7531
139.2327,107.7047
139.3289,107.5792
139.4544,107.4830
139.6004,107.4225
139.6004,107.4225
139.7178,107.4070
139.7178,107.4070
139.7178,107.4070
139.7178,107.4070
141.7966,107.4070
141.9140,107.4225
141.9140,107.4225
142.0600,107.4830
142.1855,107.5792
142.2817,107.7047
142.3422,107.8507
142.3422,107.8507
142.3577,107.9681
142.3577,107.9681
142.3577,109.9519
142.3422,110.0693
142.3422,110.0693
142.2817,110.2153
142.1855,110.3408
142.0949,110.4103
142.0537,110.4667
142.0496,110.5365
142.0732,110.5833
142.0722,110.5840
142.2046,110.7662
142.3046,110.9626
142.3727,111.1722
142.3727,111.1722
142.3851,111.2500
141.1902,111.2500
141.2231,111.3070
141.2572,111.4342
141.2572,111.5658
141.2231,111.6930
141.1902,111.7500
142.3851,111.7500
142.3783,111.7924
142.3873,111.8617
142.4323,111.9152
142.4990,111.9358
142.5664,111.9171
142.5885,111.8995
143.9254,110.5626
143.9589,110.5013
143.9617,110.4749
143.9617,108.7564
143.9617,108.7564
143.9945,108.5914
143.9982,108.5727
144.0699,108.3998
144.0699,108.3998
144.0699,108.3998
144.1739,108.2441
144.2236,108.1944
144.3063,108.1117
144.9553,107.4627
144.9888,107.4014
144.9838,107.3317
144.9553,107.2873
143.1948,105.5268
143.1335,105.4933
143.1071,105.4905
132.0386,105.4905
132.0202,105.4868
131.9468,105.4722
131.9468,105.4722
131.9283,105.4686
131.8549,105.4540
131.7741,105.4205
131.6820,105.3823
131.5263,105.2783
130.8548,104.6068
130.7935,104.5733
130.7671,104.5705
127.9624,104.5705
127.8953,104.5902
127.8681,104.6140
127.8180,104.6726
127.7474,104.7552
127.5559,104.9188
127.5559,104.9188
127.3411,105.0505
127.1083,105.1469
126.8633,105.2057
126.6122,105.2254
126.3611,105.2057
126.1161,105.1469
125.8833,105.0505
125.6685,104.9188
125.4770,104.7552
125.4573,104.7322
121.6522,104.7322
121.6522,105.5300
120.4679,105.5300
120.4723,105.5344
120.5249,105.6256
120.5522,105.7273
120.5522,105.8327
120.5249,105.9344
120.4723,106.0256
120.4679,106.0300
121.6522,106.0300
121.6522,106.8278
121.6458,106.8874
121.6458,106.8874
121.5956,107.0221
121.5956,107.0221
121.5094,107.1372
121.5094,107.1372
121.3943,107.2233
121.3943,107.2234
121.2596,107.2736
121.2596,107.2736
121.2000,107.2800
121.2000,107.2800
120.4022,107.2800
120.4022,106.0957
120.3978,106.1001
120.3066,106.1527
120.2049,106.1800
120.0995,106.1800
119.9978,106.1527
119.9066,106.1001
119.9022,106.0957
119.9022,107.2800
119.1044,107.2800
119.1044,107.2800
119.0448,107.2736
119.0448,107.2736
118.9101,107.2234
118.9101,107.2233
118.7950,107.1372
118.7950,107.1372
118.7088,107.0221
118.7088,107.0221
118.6586,106.8874
118.6586,106.8874
118.6522,106.8278
118.6522,106.8278
118.6522,106.0300
119.8365,106.0300
119.8321,106.0256
119.7795,105.9344
119.7522,105.8327
119.7522,105.7273
119.7795,105.6256
119.8321,105.5344
119.8365,105.5300
118.6522,105.5300
118.6522,104.7322
118.6522,104.7322
118.6586,104.6726
118.6586,104.6726
118.7088,104.5379
118.7088,104.5379
118.7950,104.4228
118.7950,104.4228
118.9101,104.3366
118.9101,104.3366
119.0448,104.2864
119.0448,104.2864
119.1044,104.2800
119.9022,104.2800
119.9022,105.4643
119.9066,105.4599
119.9978,105.4073
120.0995,105.3800
120.2049,105.3800
120.3066,105.4073
120.3978,105.4599
120.4022,105.4643
120.4022,104.2800
121.2000,104.2800
121.2596,104.2864
121.2596,104.2864
121.3943,104.3366
121.3943,104.3366
121.5094,104.4228
121.5094,104.4228
121.5956,104.5379
121.5956,104.5379
121.6458,104.6726
121.6458,104.6726
121.6522,104.7322
125.4573,104.7322
125.3134,104.5637
125.1817,104.3489
125.0853,104.1161
125.0265,103.8711
125.0068,103.6200
125.0265,103.3689
125.0853,103.1239
125.0866,103.1208
125.1817,102.8911
125.3134,102.6763
125.3134,102.6763
125.3563,102.6260
125.4770,102.4848
125.6036,102.3766
125.6685,102.3212
125.6685,102.3212
125.8833,102.1895
126.1161,102.0931
126.3610,102.0343
126.6122,102.0146
126.8634,102.0343
127.1083,102.0931
127.3411,102.1895
127.5559,102.3212
127.5559,102.3212
127.7474,102.4848
127.8026,102.5494
127.8681,102.6260
127.9266,102.6642
127.9624,102.6695
131.3058,102.6695
131.4894,102.7060
131.4895,102.7060
131.6624,102.7777
131.6624,102.7777
131.8181,102.8817
131.8181,102.8817
132.4896,103.5532
132.5509,103.5867
132.5773,103.5895
140.5503,103.5895
140.6173,103.5698
140.6631,103.5170
140.6730,103.4479
140.6440,103.3843
140.6379,103.3778
139.5668,102.3067
138.4619,101.2018
138.4619,101.2018
138.3504,101.0903
138.2628,100.9592
138.2025,100.8135
138.2008,100.8050
138.1684,100.7431
138.1520,100.7288
137.9947,100.6145
137.8277,100.4475
137.8025,100.4129
137.7472,100.3702
137.6776,100.3642
137.6158,100.3968
137.6019,100.4129
137.5767,100.4475
137.4097,100.6145
137.2186,100.7533
137.1192,100.8040
137.0082,100.8606
137.0082,100.8606
137.0082,100.8606
136.8878,100.8997
136.7836,100.9336
136.5503,100.9705
136.5503,100.9705
136.3141,100.9705
136.0808,100.9336
135.8562,100.8606
135.6458,100.7533
135.4547,100.6145
135.2877,100.4475
135.2625,100.4129
135.2072,100.3702
135.1376,100.3642
135.0758,100.3968
135.0619,100.4129
135.0367,100.4475
134.8697,100.6145
134.6786,100.7533
134.5792,100.8040
134.4682,100.8606
134.4682,100.8606
134.4682,100.8606
134.3478,100.8997
134.2436,100.9336
134.0103,100.9705
134.0103,100.9705
133.7741,100.9705
133.5408,100.9336
133.3162,100.8606
133.1058,100.7533
132.9147,100.6145
132.7477,100.4475
132.7225,100.4129
132.6672,100.3702
132.5976,100.3642
132.5358,100.3968
132.5219,100.4129
132.4967,100.4475
132.3297,100.6145
132.1386,100.7533
132.0392,100.8040
131.9282,100.8606
131.9282,100.8606
131.9282,100.8606
131.8078,100.8997
131.7036,100.9336
131.4703,100.9705
131.4703,100.9705
131.2341,100.9705
131.0008,100.9336
130.7762,100.8606
130.5658,100.7533
130.3747,100.6145
130.2077,100.4475
130.0689,100.2564
129.9616,100.0460
129.8886,99.8214
129.8568,99.6201
129.8517,99.5881
129.8517,98.9029
129.8320,98.8359
129.8154,98.8153
128.1619,97.1618
128.1006,97.1283
128.0743,97.1255
127.9882,97.1255
127.9212,97.1452
127.8825,97.1847
127.8310,97.2687
127.6674,97.4602
127.5613,97.5508
127.4759,97.6238
127.4759,97.6238
127.2611,97.7555
127.0613,97.8382
127.0283,97.8519
126.7833,97.9107
126.5322,97.9304
126.2811,97.9107
126.0361,97.8519
125.8033,97.7555
125.5885,97.6238
125.3970,97.4602
125.2334,97.2687
125.1017,97.0539
125.0053,96.8211
124.9465,96.5761
124.9268,96.3250
124.9465,96.0739
125.0053,95.8289
125.1017,95.5961
125.2334,95.3813
125.2334,95.3813
125.2703,95.3381
125.3970,95.1898
125.5716,95.0406
125.5885,95.0262
125.5885,95.0262
125.8033,94.8945
126.0361,94.7981
126.2810,94.7393
126.5322,94.7196
126.7834,94.7393
127.0283,94.7981
127.2611,94.8945
127.4759,95.0262
127.4759,95.0262
127.6674,95.1898
127.8310,95.3813
127.8825,95.4653
127.9343,95.5122
127.9882,95.5245
128.5360,95.5245
128.6098,95.5392
128.6098,95.5392
128.6907,95.5553
128.6907,95.5553
128.8364,95.6156
128.8364,95.6156
128.9195,95.6712
128.9195,95.6712
128.9675,95.7032
130.7734,97.5091
130.8347,97.5426
130.8994,97.5394
131.0008,97.5064
131.2341,97.4695
131.2341,97.4695
131.4703,97.4695
131.4703,97.4695
131.7036,97.5064
131.9282,97.5794
132.1386,97.6867
132.2333,97.7555
132.3297,97.8255
132.3297,97.8255
132.3297,97.8255
132.4967,97.9925
132.5219,98.0271
132.5772,98.0698
132.6468,98.0758
132.7086,98.0432
132.7225,98.0271
132.7266,98.0215
132.7477,97.9925
132.9147,97.8255
132.9229,97.8195
133.0406,97.7340
133.0833,97.6787
133.0917,97.6337
133.0917,96.4829
133.0720,96.4159
133.0554,96.3953
129.2719,92.6118
129.2106,92.5783
129.1843,92.5755
128.1082,92.5755
128.0412,92.5952
128.0025,92.6347
127.9510,92.7187
127.7874,92.9102
127.6391,93.0369
127.5959,93.0738
127.5959,93.0738
127.3811,93.2055
127.1483,93.3019
126.9033,93.3607
126.6522,93.3804
126.4011,93.3607
126.1561,93.3019
125.9233,93.2055
125.7085,93.0738
125.5170,92.9102
125.3534,92.7187
125.2217,92.5039
125.1253,92.2711
125.0665,92.0261
125.0468,91.7750
125.0665,91.5239
125.1253,91.2789
125.2217,91.0461
125.2217,91.0461
125.3534,90.8313
125.3534,90.8313
125.3903,90.7881
125.5170,90.6398
125.6436,90.5316
125.7085,90.4762
125.7085,90.4762
125.9233,90.3445
126.1561,90.2481
126.4010,90.1893
126.6522,90.1696
126.9034,90.1893
127.1483,90.2481
127.3811,90.3445
127.5959,90.4762
127.5959,90.4762
127.7874,90.6398
127.9510,90.8313
128.0025,90.9153
128.0543,90.9622
128.1082,90.9745
129.6460,90.9745
129.8007,91.0053
129.8007,91.0053
129.9464,91.0656
129.9464,91.0656
130.0775,91.1532
130.0775,91.1532
133.4625,94.5382
134.4025,95.4782
134.4364,95.5122
134.5140,95.5897
134.6016,95.7208
134.6016,95.7208
134.6619,95.8665
134.6619,95.8665
134.6927,96.0212
134.6927,97.6337
134.7124,97.7007
134.7438,97.7340
134.8697,97.8255
134.8697,97.8255
135.0367,97.9925
135.0619,98.0271
135.1172,98.0698
135.1868,98.0758
135.2486,98.0432
135.2625,98.0271
135.2666,98.0215
135.2877,97.9925
135.4547,97.8255
135.4629,97.8195
135.5806,97.7340
135.6233,97.6787
135.6317,97.6337
135.6317,95.5429
135.6120,95.4759
135.5954,95.4553
128.2019,88.0618
128.1406,88.0283
128.1143,88.0255
127.2382,88.0255
127.1712,88.0452
127.1325,88.0847
127.0810,88.1687
126.9174,88.3602
126.8019,88.4589
126.7259,88.5238
126.7259,88.5238
126.5111,88.6555
126.2783,88.7519
126.0333,88.8107
125.7822,88.8304
125.5311,88.8107
125.2861,88.7519
125.0533,88.6555
124.8385,88.5238
124.6470,88.3602
124.4834,88.1687
124.3517,87.9539
124.2553,87.7211
124.1965,87.4761
124.1768,87.2250
124.1965,86.9739
124.2553,86.7289
124.3109,86.5948
124.3517,86.4961
124.4722,86.2995
124.4834,86.2813
124.4834,86.2813
124.6004,86.1443
124.6470,86.0898
124.7736,85.9816
124.8385,85.9262
124.8385,85.9262
125.0533,85.7945
125.2861,85.6981
125.5310,85.6393
125.7822,85.6196
126.0334,85.6393
126.2783,85.6981
126.5111,85.7945
126.7259,85.9262
126.7259,85.9262
126.9174,86.0898
127.0810,86.2813
127.0922,86.2995
127.1243,86.3520
127.1325,86.3653
127.1843,86.4122
127.2382,86.4245
127.7553,86.4245
127.8223,86.4048
127.8681,86.3520
127.8780,86.2829
127.8490,86.2193
127.8429,86.2128
123.2204,81.5903
123.2204,81.5903
123.1328,81.4592
123.1328,81.4592
123.1328,81.4592
123.0725,81.3135
123.0417,81.1588
123.0417,80.6860
123.0220,80.6190
122.9825,80.5803
122.8985,80.5288
122.7070,80.3652
122.5434,80.1737
122.4117,79.9589
122.3153,79.7261
122.2565,79.4811
122.2368,79.2300
122.2565,78.9789
122.3153,78.7339
122.4117,78.5011
122.4117,78.5011
122.5434,78.2863
122.5434,78.2863
122.5911,78.2305
122.7070,78.0948
122.8685,77.9568
122.8985,77.9312
122.8985,77.9312
123.1133,77.7995
123.3461,77.7031
123.5910,77.6443
123.8422,77.6246
124.0934,77.6443
124.3383,77.7031
124.5711,77.7995
124.7859,77.9312
124.7859,77.9312
124.9774,78.0948
125.1410,78.2863
125.1410,78.2863
125.2727,78.5011
125.3691,78.7339
125.4279,78.9788
125.4476,79.2300
125.4279,79.4812
125.3691,79.7261
125.2727,79.9589
125.1410,80.1737
125.1410,80.1737
125.1093,80.2108
124.9774,80.3652
124.7859,80.5288
124.7019,80.5803
124.6550,80.6321
124.6427,80.6860
124.6427,80.6971
124.6624,80.7641
124.6790,80.7847
130.8075,86.9132
130.8688,86.9467
130.8951,86.9495
133.9510,86.9495
134.1057,86.9803
134.1057,86.9803
134.2514,87.0406
134.2514,87.0406
134.3825,87.1282
134.3825,87.1282
142.0351,94.7808
144.5625,97.3082
144.6182,97.3640
144.6740,97.4197
144.7616,97.5508
144.7616,97.5508
144.7955,97.6328
144.8372,97.6856
144.8386,97.6867
144.8386,97.6867
144.9038,97.7340
145.0297,97.8255
145.1967,97.9925
145.2219,98.0271
145.2772,98.0698
145.3468,98.0758
145.4086,98.0432
145.4225,98.0271
145.4266,98.0215
145.4477,97.9925
145.6147,97.8255
145.8058,97.6867
145.8354,97.6716
146.0162,97.5794
146.2408,97.5064
146.4741,97.4695
146.4741,97.4695
146.7103,97.4695
146.7103,97.4695
146.9436,97.5064
147.1682,97.5794
147.3786,97.6867
147.4733,97.7555
147.5697,97.8255
147.5697,97.8255
147.5697,97.8255
147.7367,97.9925
147.7619,98.0271
147.8172,98.0698
147.8868,98.0758
147.9486,98.0432
147.9625,98.0271
147.9666,98.0215
147.9877,97.9925
148.1547,97.8255
148.3458,97.6867
148.3754,97.6716
148.5562,97.5794
148.7808,97.5064
149.0141,97.4695
149.0141,97.4695
149.2503,97.4695
149.2503,97.4695
149.4836,97.5064
149.7082,97.5794
149.9186,97.6867
150.0133,97.7555
150.1097,97.8255
150.1097,97.8255
150.1097,97.8255
150.2767,97.9925
150.3019,98.0271
150.3572,98.0698
150.4268,98.0758
150.4886,98.0432
150.5025,98.0271
150.5066,98.0215
150.5277,97.9925
150.6947,97.8255
150.8858,97.6867
150.9154,97.6716
151.0962,97.5794
151.3208,97.5064
151.5541,97.4695
151.5541,97.4695
151.7903,97.4695
151.7903,97.4695
152.0236,97.5064
152.2482,97.5794
152.4586,97.6867
152.5533,97.7555
152.6497,97.8255
152.6497,97.8255
152.6497,97.8255
152.8167,97.9925
152.8419,98.0271
152.8972,98.0698
152.9668,98.0758
153.0286,98.0432
153.0425,98.0271
153.0466,98.0215
153.0677,97.9925
153.2347,97.8255
153.4258,97.6867
153.4554,97.6716
153.6362,97.5794
153.8608,97.5064
154.0941,97.4695
154.0941,97.4695
154.3303,97.4695
154.3303,97.4695
154.5636,97.5064
154.7882,97.5794
154.9986,97.6867
155.0933,97.7555
155.1897,97.8255
155.1897,97.8255
155.1897,97.8255
155.3567,97.9925
155.3819,98.0271
155.4372,98.0698
155.5068,98.0758
155.5686,98.0432
155.5825,98.0271
155.5866,98.0215
155.6077,97.9925
155.7747,97.8255
155.7829,97.8195
155.9006,97.7340
155.9433,97.6787
155.9517,97.6337
155.9517,97.2612
155.9598,97.2206
155.9598,97.2206
155.9781,97.1283
155.9825,97.1065
156.0428,96.9608
156.0428,96.9608
156.0428,96.9608
156.1304,96.8297
156.1304,96.8297
157.8319,95.1282
157.8319,95.1282
157.9630,95.0406
157.9630,95.0406
158.1087,94.9803
158.1087,94.9803
158.2634,94.9495
158.2634,94.9495
172.3234,94.9495
172.4810,94.9495
172.4810,94.9495
172.6357,94.9803
172.6357,94.9803
172.7814,95.0406
172.7814,95.0406
172.9125,95.1282
172.9125,95.1282
174.9461,97.1618
175.6225,97.8382
175.6782,97.8940
175.7340,97.9497
175.8216,98.0808
175.8216,98.0808
175.8819,98.2265
175.8819,98.2265
175.9127,98.3812
175.9127,98.6091
175.9324,98.6761
175.9852,98.7219
176.0205,98.7320
176.1190,98.7450
176.1190,98.7450
176.2650,98.8055
176.3905,98.9017
176.4867,99.0272
176.5472,99.1732
176.5472,99.1732
176.5627,99.2906
176.5627,99.2906
176.5627,99.2906
180.9717,99.2906
180.9717,87.7300
175.2876,87.7300
175.2679,87.9812
175.2091,88.2261
175.1127,88.4589
174.9810,88.6737
174.9810,88.6737
174.9707,88.6858
174.8174,88.8652
174.6691,88.9919
174.6259,89.0288
174.6259,89.0288
174.4111,89.1605
174.1783,89.2569
173.9333,89.3157
173.6822,89.3354
173.4311,89.3157
173.1861,89.2569
172.9533,89.1605
172.7385,89.0288
172.5470,88.8652
172.4263,88.7240
172.3678,88.6858
172.3320,88.6805
170.5686,88.6805
170.4847,88.6638
170.4427,88.6555
170.3849,88.6440
170.3133,88.6143
170.2120,88.5723
170.0563,88.4683
167.3238,85.7358
167.2624,85.7023
167.2167,85.7010
167.0303,85.7305
167.0303,85.7305
166.7941,85.7305
166.5608,85.6936
166.5473,85.6891
166.3362,85.6206
166.1258,85.5133
165.9347,85.3745
165.7677,85.2075
165.6804,85.0874
165.6251,85.0447
165.5555,85.0387
165.4937,85.0713
165.4798,85.0874
165.4401,85.1420
165.4401,85.1420
165.2842,85.2979
165.1060,85.4274
164.9096,85.5274
164.7000,85.5955
164.6222,85.6079
164.6222,85.6079
164.6222,84.4130
164.5652,84.4459
164.4380,84.4800
164.3064,84.4800
164.1792,84.4459
164.1222,84.4130
164.1222,85.6079
164.0444,85.5955
164.0444,85.5955
163.8348,85.5274
163.6384,85.4274
163.4602,85.2979
163.3043,85.1420
163.2646,85.0874
163.2093,85.0447
163.1397,85.0387
163.0779,85.0713
163.0640,85.0874
162.9767,85.2075
162.8097,85.3745
162.6186,85.5133
162.5192,85.5640
162.4082,85.6206
162.4082,85.6206
162.4082,85.6206
162.2878,85.6597
162.1836,85.6936
161.9503,85.7305
161.9503,85.7305
161.7141,85.7305
161.4808,85.6936
161.4673,85.6891
161.2562,85.6206
161.0458,85.5133
160.8547,85.3745
160.6877,85.2075
160.6625,85.1729
160.6072,85.1302
160.5376,85.1242
160.4758,85.1568
160.4619,85.1729
160.4367,85.2075
160.2697,85.3745
160.0786,85.5133
159.9792,85.5640
159.8682,85.6206
159.8682,85.6206
159.8682,85.6206
159.7478,85.6597
159.6436,85.6936
159.4103,85.7305
159.4103,85.7305
159.1741,85.7305
158.9408,85.6936
158.9273,85.6891
158.7162,85.6206
158.5058,85.5133
158.3147,85.3745
158.1477,85.2075
158.1225,85.1729
158.0672,85.1302
157.9976,85.1242
157.9358,85.1568
157.9219,85.1729
157.8967,85.2075
157.7297,85.3745
157.5386,85.5133
157.4392,85.5640
157.3282,85.6206
157.3282,85.6206
157.3282,85.6206
157.2078,85.6597
157.1036,85.6936
156.8703,85.7305
156.8703,85.7305
156.6341,85.7305
156.4008,85.6936
156.3873,85.6891
156.1762,85.6206
155.9658,85.5133
155.7747,85.3745
155.6077,85.2075
155.5825,85.1729
155.5272,85.1302
155.4576,85.1242
155.3958,85.1568
155.3819,85.1729
155.3567,85.2075
155.1897,85.3745
154.9986,85.5133
154.8992,85.5640
154.7882,85.6206
154.7882,85.6206
154.7882,85.6206
154.6678,85.6597
154.5636,85.6936
154.3303,85.7305
154.3303,85.7305
154.0941,85.7305
153.8608,85.6936
153.8473,85.6891
153.6362,85.6206
153.4258,85.5133
153.2347,85.3745
153.0677,85.2075
153.0425,85.1729
152.9872,85.1302
152.9176,85.1242
152.8558,85.1568
152.8419,85.1729
152.8167,85.2075
152.6497,85.3745
152.4586,85.5133
152.3592,85.5640
152.2482,85.6206
152.2482,85.6206
152.2482,85.6206
152.1278,85.6597
152.0236,85.6936
151.7903,85.7305
151.7903,85.7305
151.5541,85.7305
151.3208,85.6936
151.3073,85.6891
151.0962,85.6206
150.8858,85.5133
150.6947,85.3745
150.5277,85.2075
150.5025,85.1729
150.4472,85.1302
150.3776,85.1242
150.3158,85.1568
150.3019,85.1729
150.2767,85.2075
150.1097,85.3745
149.9186,85.5133
149.8192,85.5640
149.7082,85.6206
149.7082,85.6206
149.7082,85.6206
149.5878,85.6597
149.4836,85.6936
149.2503,85.7305
149.2503,85.7305
149.0141,85.7305
148.7808,85.6936
148.7673,85.6891
148.5562,85.6206
148.3458,85.5133
148.1547,85.3745
147.9877,85.2075
147.9625,85.1729
147.9072,85.1302
147.8376,85.1242
147.7758,85.1568
147.7619,85.1729
147.7367,85.2075
147.5697,85.3745
147.3786,85.5133
147.2792,85.5640
147.1682,85.6206
147.1682,85.6206
147.1682,85.6206
147.0478,85.6597
146.9436,85.6936
146.7103,85.7305
146.7103,85.7305
146.4741,85.7305
146.2408,85.6936
146.2273,85.6891
146.0162,85.6206
145.8058,85.5133
145.6147,85.3745
145.4477,85.2075
145.4225,85.1729
145.3672,85.1302
145.2976,85.1242
145.2358,85.1568
145.2219,85.1729
145.1967,85.2075
145.0297,85.3745
144.8386,85.5133
144.7392,85.5640
144.6282,85.6206
144.6282,85.6206
144.6282,85.6206
144.5078,85.6597
144.4036,85.6936
144.1703,85.7305
144.1703,85.7305
143.9341,85.7305
143.7008,85.6936
143.6873,85.6891
143.4762,85.6206
143.2658,85.5133
143.0747,85.3745
142.9077,85.2075
142.8825,85.1729
142.8272,85.1302
142.7576,85.1242
142.6958,85.1568
142.6819,85.1729
142.6567,85.2075
142.4897,85.3745
142.2986,85.5133
142.1992,85.5640
142.0882,85.6206
142.0882,85.6206
142.0882,85.6206
141.9678,85.6597
141.8636,85.6936
141.6303,85.7305
141.6303,85.7305
141.3941,85.7305
141.1608,85.6936
141.1473,85.6891
140.9362,85.6206
140.7258,85.5133
140.5347,85.3745
140.3677,85.2075
140.3425,85.1729
140.2872,85.1302
140.2176,85.1242
140.1558,85.1568
140.1419,85.1729
140.1167,85.2075
139.9497,85.3745
139.7586,85.5133
139.6592,85.5640
139.5482,85.6206
139.5482,85.6206
139.5482,85.6206
139.4278,85.6597
139.3236,85.6936
139.0903,85.7305
139.0903,85.7305
138.8541,85.7305
138.6208,85.6936
138.6073,85.6891
138.3962,85.6206
138.1858,85.5133
137.9947,85.3745
137.8277,85.2075
137.8025,85.1729
137.7472,85.1302
137.6776,85.1242
137.6158,85.1568
137.6019,85.1729
137.5767,85.2075
137.4097,85.3745
137.2186,85.5133
137.1192,85.5640
137.0082,85.6206
137.0082,85.6206
137.0082,85.6206
136.8878,85.6597
136.7836,85.6936
136.5503,85.7305
136.5503,85.7305
136.3141,85.7305
136.0808,85.6936
136.0673,85.6891
135.8562,85.6206
135.6458,85.5133
135.4547,85.3745
135.2877,85.2075
135.2625,85.1729
135.2072,85.1302
135.1376,85.1242
135.0758,85.1568
135.0619,85.1729
135.0367,85.2075
134.8697,85.3745
134.6786,85.5133
134.5792,85.5640
134.4682,85.6206
134.4682,85.6206
134.4682,85.6206
134.3478,85.6597
134.2436,85.6936
134.0103,85.7305
134.0103,85.7305
133.7741,85.7305
133.5408,85.6936
133.5273,85.6891
133.3162,85.6206
133.1058,85.5133
132.9147,85.3745
132.7477,85.2075
132.7225,85.1729
132.6672,85.1302
132.5976,85.1242
132.5358,85.1568
132.5219,85.1729
132.4967,85.2075
132.3297,85.3745
132.1386,85.5133
132.0392,85.5640
131.9282,85.6206
131.9282,85.6206
131.9282,85.6206
131.8078,85.6597
131.7036,85.6936
131.4703,85.7305
131.4703,85.7305
131.2341,85.7305
131.0008,85.6936
130.9873,85.6891
130.7762,85.6206
130.5658,85.5133
130.3747,85.3745
130.2077,85.2075
130.0689,85.0164
129.9616,84.8060
129.8886,84.5814
129.8568,84.3801
129.8517,84.3481
129.8517,83.6629
129.8320,83.5959
129.8154,83.5753
129.2304,82.9903
129.2304,82.9903
129.1992,82.9436
129.1428,82.8592
129.0825,82.7135
129.0517,82.5588
129.0517,80.3236
129.0320,80.2565
128.9792,80.2108
128.9439,80.2006
128.9428,80.2005
128.9428,80.2005
128.8254,80.1850
128.6794,80.1245
128.5539,80.0283
128.4577,79.9028
128.3972,79.7568
128.3817,79.6394
128.3817,77.8606
128.3817,77.8606
128.3817,77.8606
128.3972,77.7432
128.3972,77.7432
128.3972,77.7432
128.4577,77.5972
128.5539,77.4717
128.6794,77.3755
128.8254,77.3150
128.8254,77.3150
128.9428,77.2995
128.9428,77.2995
128.9428,77.2995
128.9428,77.2995
130.7216,77.2995
130.8390,77.3150
130.8390,77.3150
130.9850,77.3755
131.1105,77.4717
131.2067,77.5972
131.2672,77.7432
131.2672,77.7432
131.2793,77.8348
131.2827,77.8606
131.2827,77.8606
131.2827,79.6394
131.2672,79.7568
131.2672,79.7568
131.2067,79.9028
131.1105,80.0283
130.9850,80.1245
130.8390,80.1850
130.7605,80.1954
130.6966,80.2236
130.6581,80.2820
130.6527,80.3183
130.6527,82.0971
130.6724,82.1641
130.6890,82.1847
130.7734,82.2691
130.8347,82.3026
130.8994,82.2994
131.0008,82.2664
131.2341,82.2295
131.2341,82.2295
131.4703,82.2295
131.4703,82.2295
131.7036,82.2664
131.9282,82.3394
132.1386,82.4467
132.2476,82.5259
132.3297,82.5855
132.3297,82.5855
132.3297,82.5855
132.4967,82.7525
132.5219,82.7871
132.5772,82.8298
132.6468,82.8358
132.7086,82.8032
132.7225,82.7871
132.7477,82.7525
132.9147,82.5855
133.1058,82.4467
133.1334,82.4326
133.3162,82.3394
133.5408,82.2664
133.7741,82.2295
133.7741,82.2295
134.0103,82.2295
134.0103,82.2295
134.2436,82.2664
134.4682,82.3394
134.6786,82.4467
134.7876,82.5259
134.8697,82.5855
134.8697,82.5855
134.8697,82.5855
135.0367,82.7525
135.0619,82.7871
135.1172,82.8298
135.1868,82.8358
135.2486,82.8032
135.2625,82.7871
135.2877,82.7525
135.4547,82.5855
135.6458,82.4467
135.6734,82.4326
135.8562,82.3394
136.0808,82.2664
136.3141,82.2295
136.3141,82.2295
136.5503,82.2295
136.5503,82.2295
136.7836,82.2664
137.0082,82.3394
137.2186,82.4467
137.3277,82.5259
137.4097,82.5855
137.4097,82.5855
137.4097,82.5855
137.5767,82.7525
137.6019,82.7871
137.6572,82.8298
137.7268,82.8358
137.7886,82.8032
137.8025,82.7871
137.8277,82.7525
137.9947,82.5855
138.0314,82.5588
138.1206,82.4940
138.1633,82.4387
138.1717,82.3937
138.1717,78.4688
138.1520,78.4017
138.1040,78.3583
138.0158,78.3133
137.8247,78.1745
137.7121,78.0620
137.6508,78.0285
137.5811,78.0335
137.5480,78.0548
137.5469,78.0533
137.5405,78.0583
137.5405,78.0583
137.4150,78.1545
137.2690,78.2150
137.1516,78.2305
135.3728,78.2305
135.3728,78.2305
135.2554,78.2150
135.2554,78.2150
135.2554,78.2150
135.1094,78.1545
134.9839,78.0583
134.8877,77.9328
134.8272,77.7868
134.8117,77.6694
134.8117,75.8906
134.8117,75.8906
134.8272,75.7732
134.8272,75.7732
134.8272,75.7732
134.8877,75.6272
134.9839,75.5017
135.1094,75.4055
135.2554,75.3450
135.2554,75.3450
135.3728,75.3295
135.3728,75.3295
135.3728,75.3295
135.3728,75.3295
137.1516,75.3295
137.2690,75.3450
137.2690,75.3450
137.4150,75.4055
137.4150,75.4055
137.5405,75.5017
137.5405,75.5017
137.5469,75.5067
137.5486,75.5045
137.5981,75.5315
137.6678,75.5265
137.7121,75.4980
137.8247,75.3855
137.8247,75.3855
138.0158,75.2467
138.0434,75.2326
138.2262,75.1394
138.4508,75.0664
138.6841,75.0295
138.6841,75.0295
138.9203,75.0295
138.9203,75.0295
139.1536,75.0664
139.3782,75.1394
139.5886,75.2467
139.6976,75.3259
139.7797,75.3855
139.7797,75.3855
139.7797,75.3855
139.9467,75.5525
139.9719,75.5871
140.0272,75.6298
140.0968,75.6358
140.1586,75.6032
140.1725,75.5871
140.1977,75.5525
140.3647,75.3855
140.5558,75.2467
140.5834,75.2326
140.7662,75.1394
140.9908,75.0664
141.2241,75.0295
141.2241,75.0295
141.4603,75.0295
141.4603,75.0295
141.6936,75.0664
141.9182,75.1394
142.1286,75.2467
142.2377,75.3259
142.3197,75.3855
142.3197,75.3855
142.3197,75.3855
142.4867,75.5525
142.5119,75.5871
142.5672,75.6298
142.6368,75.6358
142.6986,75.6032
142.7125,75.5871
142.7377,75.5525
142.9047,75.3855
143.0958,75.2467
143.1234,75.2326
143.3062,75.1394
143.5308,75.0664
143.7641,75.0295
143.7641,75.0295
144.0003,75.0295
144.0003,75.0295
144.2336,75.0664
144.4582,75.1394
144.6686,75.2467
144.7776,75.3259
144.8597,75.3855
144.8597,75.3855
144.8597,75.3855
145.0267,75.5525
145.0519,75.5871
145.1072,75.6298
145.1768,75.6358
145.2386,75.6032
145.2525,75.5871
145.2777,75.5525
145.4447,75.3855
145.6358,75.2467
145.6634,75.2326
145.8462,75.1394
146.0708,75.0664
146.3041,75.0295
146.3041,75.0295
146.5403,75.0295
146.5403,75.0295
146.7736,75.0664
146.9982,75.1394
147.2086,75.2467
147.3176,75.3259
147.3997,75.3855
147.3997,75.3855
147.3997,75.3855
147.5667,75.5525
147.5919,75.5871
147.6472,75.6298
147.7168,75.6358
147.7786,75.6032
147.7925,75.5871
147.8177,75.5525
147.9847,75.3855
148.1758,75.2467
148.2034,75.2326
148.3862,75.1394
148.6108,75.0664
148.8441,75.0295
148.8441,75.0295
149.0803,75.0295
149.0803,75.0295
149.3136,75.0664
149.5382,75.1394
149.7486,75.2467
149.8577,75.3259
149.9397,75.3855
149.9397,75.3855
149.9397,75.3855
150.1067,75.5525
150.1319,75.5871
150.1872,75.6298
150.2568,75.6358
150.3186,75.6032
150.3325,75.5871
150.3577,75.5525
150.5247,75.3855
150.7158,75.2467
150.7434,75.2326
150.9262,75.1394
151.1508,75.0664
151.3841,75.0295
151.3841,75.0295
151.6203,75.0295
151.6203,75.0295
151.8536,75.0664
152.0782,75.1394
152.2886,75.2467
152.3976,75.3259
152.4797,75.3855
152.4797,75.3855
152.4797,75.3855
152.6467,75.5525
152.6719,75.5871
152.7272,75.6298
152.7968,75.6358
152.8586,75.6032
152.8725,75.5871
152.8977,75.5525
153.0647,75.3855
153.2558,75.2467
153.2834,75.2326
153.4662,75.1394
153.6908,75.0664
153.9241,75.0295
153.9241,75.0295
154.1603,75.0295
154.1603,75.0295
154.3936,75.0664
154.6182,75.1394
154.8286,75.2467
154.9376,75.3259
155.0197,75.3855
155.0197,75.3855
155.0197,75.3855
155.1867,75.5525
155.2119,75.5871
155.2672,75.6298
155.3368,75.6358
155.3986,75.6032
155.4125,75.5871
155.4377,75.5525
155.6047,75.3855
155.7958,75.2467
155.8234,75.2326
156.0062,75.1394
156.2308,75.0664
156.4641,75.0295
156.4641,75.0295
156.7003,75.0295
156.7003,75.0295
156.9336,75.0664
157.1582,75.1394
157.3686,75.2467
157.4776,75.3259
157.5597,75.3855
157.5597,75.3855
157.5597,75.3855
157.7267,75.5525
157.7519,75.5871
157.8072,75.6298
157.8768,75.6358
157.9386,75.6032
157.9525,75.5871
157.9777,75.5525
158.1447,75.3855
158.2402,75.3161
158.3358,75.2467
158.4240,75.2017
158.4748,75.1537
158.4917,75.0912
158.4917,74.9502
158.4720,74.8831
158.4482,74.8559
158.3070,74.7352
158.1434,74.5437
158.0117,74.3289
157.9153,74.0961
157.8565,73.8511
157.8368,73.6000
157.8565,73.3489
157.9153,73.1039
158.0117,72.8711
158.0117,72.8711
158.1434,72.6563
158.1434,72.6563
158.1803,72.6131
158.3070,72.4648
158.4336,72.3566
158.4985,72.3012
158.4985,72.3012
158.7133,72.1695
158.9461,72.0731
159.1910,72.0143
159.4422,71.9946
159.6934,72.0143
159.9383,72.0731
160.1711,72.1695
160.3859,72.3012
160.3859,72.3012
160.5774,72.4648
160.7410,72.6563
160.7410,72.6563
160.8727,72.8711
160.9691,73.1039
161.0279,73.3488
161.0476,73.6000
161.0279,73.8512
160.9691,74.0961
160.8727,74.3289
160.7410,74.5437
160.7410,74.5437
160.7410,74.5437
160.5774,74.7352
160.4362,74.8559
160.3980,74.9144
160.3927,74.9502
160.3927,75.5202
160.4124,75.5873
160.4652,75.6330
160.5343,75.6430
160.5979,75.6140
160.6044,75.6079
160.7502,75.4621
160.9284,75.3326
161.1248,75.2326
161.3344,75.1645
161.4122,75.1521
161.4122,76.3470
161.4692,76.3141
161.5964,76.2800
161.7280,76.2800
161.8552,76.3141
161.9122,76.3470
161.9122,75.1521
161.9900,75.1645
161.9900,75.1645
162.1996,75.2326
162.3960,75.3326
162.5742,75.4621
162.7301,75.6180
162.8596,75.7962
162.9596,75.9926
163.0277,76.2022
163.0622,76.4198
163.0622,76.5300
162.0952,76.5300
162.1281,76.5870
162.1622,76.7142
162.1622,76.8458
162.1281,76.9730
162.0952,77.0300
163.0622,77.0300
163.0622,77.1402
163.0277,77.3578
162.9596,77.5674
162.8596,77.7638
162.7301,77.9420
162.5742,78.0979
162.3960,78.2274
162.1996,78.3274
161.9900,78.3955
161.9122,78.4079
161.9122,78.4079
161.9122,77.2130
161.8552,77.2459
161.7280,77.2800
161.5964,77.2800
161.4692,77.2459
161.4122,77.2130
161.4122,78.4079
161.3344,78.3955
161.3344,78.3955
161.1248,78.3274
160.9284,78.2274
160.7502,78.0979
160.5943,77.9420
160.5546,77.8874
160.4993,77.8447
160.4297,77.8387
160.3679,77.8713
160.3540,77.8874
160.2667,78.0075
160.0997,78.1745
159.9086,78.3133
159.8204,78.3583
159.6982,78.4206
159.6982,78.4206
159.6982,78.4206
159.5778,78.4597
159.4736,78.4936
159.2403,78.5305
159.2403,78.5305
159.0041,78.5305
158.7708,78.4936
158.5462,78.4206
158.3358,78.3133
158.1447,78.1745
157.9777,78.0075
157.9525,77.9729
157.8972,77.9302
157.8276,77.9242
157.7658,77.9568
157.7519,77.9729
157.7267,78.0075
157.7267,78.0075
157.5890,78.1452
157.5555,78.2065
157.5527,78.2329
157.5527,82.3937
157.5724,82.4607
157.6038,82.4940
157.7297,82.5855
157.7297,82.5855
157.8967,82.7525
157.9219,82.7871
157.9772,82.8298
158.0468,82.8358
158.1086,82.8032
158.1225,82.7871
158.1477,82.7525
158.3147,82.5855
158.5058,82.4467
158.5334,82.4326
158.7162,82.3394
158.9408,82.2664
159.1741,82.2295
159.1741,82.2295
159.4103,82.2295
159.4103,82.2295
159.6436,82.2664
159.8682,82.3394
160.0786,82.4467
160.1876,82.5259
160.2697,82.5855
160.2697,82.5855
160.2697,82.5855
160.4367,82.7525
160.4619,82.7871
160.5172,82.8298
160.5868,82.8358
160.6486,82.8032
160.6625,82.7871
160.6877,82.7525
160.8547,82.5855
161.0458,82.4467
161.0734,82.4326
161.2562,82.3394
161.4808,82.2664
161.7141,82.2295
161.7141,82.2295
161.9503,82.2295
161.9503,82.2295
162.1836,82.2664
162.4082,82.3394
162.6186,82.4467
162.7276,82.5259
162.8097,82.5855
162.8097,82.5855
162.8097,82.5855
162.9767,82.7525
163.0640,82.8726
163.1193,82.9153
163.1889,82.9213
163.2507,82.8887
163.2646,82.8726
163.3043,82.8180
163.3043,82.8180
163.4602,82.6621
163.6384,82.5326
163.8348,82.4326
164.0444,82.3645
164.1222,82.3521
164.1222,83.5470
164.1792,83.5141
164.3064,83.4800
164.4380,83.4800
164.5652,83.5141
164.6222,83.5470
164.6222,82.3521
164.7000,82.3645
164.7000,82.3645
164.9096,82.4326
165.1060,82.5326
165.1648,82.5754
165.2306,82.5989
165.2987,82.5830
165.3474,82.5329
165.3617,82.4751
165.3617,81.8202
165.3420,81.7531
165.3182,81.7259
165.1770,81.6052
165.0134,81.4137
164.8817,81.1989
164.7853,80.9661
164.7265,80.7211
164.7068,80.4700
164.7265,80.2189
164.7853,79.9739
164.8148,79.9028
164.8817,79.7411
165.0134,79.5263
165.0134,79.5263
165.0520,79.4811
165.1770,79.3348
165.3036,79.2266
165.3685,79.1712
165.3685,79.1712
165.5833,79.0395
165.8161,78.9431
166.0610,78.8843
166.3122,78.8646
166.5634,78.8843
166.8083,78.9431
167.0411,79.0395
167.2559,79.1712
167.2559,79.1712
167.4474,79.3348
167.6110,79.5263
167.6110,79.5263
167.7427,79.7411
167.8391,79.9739
167.8979,80.2188
167.9176,80.4700
167.8979,80.7212
167.8391,80.9661
167.7427,81.1989
167.6110,81.4137
167.6110,81.4137
167.4602,81.5903
167.4474,81.6052
167.3062,81.7259
167.2680,81.7844
167.2627,81.8202
167.2627,82.1761
167.2824,82.2431
167.3352,82.2889
167.3484,82.2940
167.4882,82.3394
167.6986,82.4467
167.8076,82.5259
167.8897,82.5855
167.8897,82.5855
167.8897,82.5855
168.0567,82.7525
168.0567,82.7525
168.0567,82.7525
168.1043,82.8180
168.1955,82.9436
168.3028,83.1540
168.3758,83.3786
168.4127,83.6119
168.4127,84.0849
168.4324,84.1520
168.4490,84.1726
171.0196,86.7432
171.0809,86.7767
171.1073,86.7795
172.3320,86.7795
172.3991,86.7598
172.4263,86.7360
172.5470,86.5948
172.5470,86.5948
172.7385,86.4312
172.7385,86.4312
172.9533,86.2995
173.1861,86.2031
173.4310,86.1443
173.6822,86.1246
173.9334,86.1443
174.1783,86.2031
174.4111,86.2995
174.6259,86.4312
174.6259,86.4312
174.8174,86.5948
174.9810,86.7863
174.9810,86.7863
175.1127,87.0011
175.2091,87.2339
175.2679,87.4788
175.2876,87.7300
180.9717,87.7300
180.9717,64.2500
157.5278,64.2500
157.5278,64.2500
157.5073,64.4978
157.5073,64.4978
157.4463,64.7389
157.3464,64.9666
157.2104,65.1748
157.2104,65.1748
157.0419,65.3577
156.8457,65.5105
156.6270,65.6288
156.3918,65.7096
156.1465,65.7505
155.8979,65.7505
155.6526,65.7096
155.4174,65.6288
155.1987,65.5105
155.0025,65.3577
154.8340,65.1748
154.6980,64.9666
154.5981,64.7389
154.5371,64.4978
154.5356,64.4800
154.5166,64.2500
154.5166,64.2500
154.5199,64.2100
140.5778,64.2100
140.5778,64.2100
140.5573,64.4578
140.5573,64.4578
140.4963,64.6989
140.3964,64.9266
140.2604,65.1348
140.2604,65.1348
140.0919,65.3177
139.8957,65.4705
139.6770,65.5888
139.4418,65.6696
139.1965,65.7105
138.9479,65.7105
138.7026,65.6696
138.4674,65.5888
138.2487,65.4705
138.0525,65.3177
137.8840,65.1348
137.7480,64.9266
137.6481,64.6989
137.5871,64.4578
137.5815,64.3907
137.5666,64.2100
137.5666,64.2100
137.5871,63.9622
137.5871,63.9622
137.6481,63.7211
137.7480,63.4934
137.8840,63.2852
137.9056,63.2617
138.0525,63.1023
138.2487,62.9495
138.2487,62.9495
138.2487,62.9495
138.4674,62.8312
138.4674,62.8312
138.7026,62.7504
138.9479,62.7095
139.1965,62.7095
139.4418,62.7504
139.6770,62.8312
139.6770,62.8312
139.8957,62.9495
140.0919,63.1023
140.2604,63.2852
140.3964,63.4934
140.4963,63.7211
140.5573,63.9622
140.5573,63.9622
140.5778,64.2100
154.5199,64.2100
154.5371,64.0022
154.5371,64.0022
154.5981,63.7611
154.6980,63.5334
154.8340,63.3252
154.8709,63.2852
155.0025,63.1423
155.1987,62.9895
155.1987,62.9895
155.1987,62.9895
155.4174,62.8712
155.4174,62.8712
155.6526,62.7904
155.8979,62.7495
156.1465,62.7495
156.3918,62.7904
156.6270,62.8712
156.6270,62.8712
156.8457,62.9895
157.0419,63.1423
157.2104,63.3252
157.3464,63.5334
157.4463,63.7611
157.5073,64.0022
157.5073,64.0022
157.5278,64.2500
180.9717,64.2500
180.9717,61.7845
180.9520,61.7175
180.8992,61.6717
180.8477,61.6605
109.1267,61.6605
Z" /> 
</g>
<g style="fill:#000000; fill-opacity:1.0000; stroke:none;">
<circle cx="126.6522" cy="91.7750" r="0.4000" /> 
</g>
<g style="fill:#000000; fill-opacity:1.0000; stroke:none;">
<circle cx="176.8022" cy="104.2900" r="0.4000" /> 
</g>
<g style="fill:#000000; fill-opacity:1.0000; stroke:none;">
<circle cx="144.6822" cy="118.1100" r="0.4000" /> 
</g>
<g style="fill:#000000; fill-opacity:1.0000; stroke:none;">
<circle cx="151.7722" cy="89.9300" r="0.4000" /> 
</g>
<g style="fill:#000000; fill-opacity:1.0000; stroke:none;">
<circle cx="177.4722" cy="125.3200" r="0.4000" /> 
</g>
<g style="fill:#000000; fill-opacity:1.0000; stroke:none;">
<circle cx="137.3322" cy="127.4700" r="0.4000" /> 
</g>
<g style="fill:#000000; fill-opacity:1.0000; stroke:none;">
<circle cx="119.7822" cy="67.3600" r="0.4000" /> 
</g>
<g style="fill:#000000; fill-opacity:1.0000; stroke:none;">
<circle cx="127.9322" cy="111.2500" r="0.4000" /> 
</g>
<g style="fill:#000000; fill-opacity:1.0000; stroke:none;">
<circle cx="125.1322" cy="125.9100" r="0.4000" /> 
</g>
<g style="fill:#000000; fill-opacity:1.0000; stroke:none;">
<circle cx="173.6822" cy="87.7300" r="0.4000" /> 
</g>
<g style="fill:#000000; fill-opacity:1.0000; stroke:none;">
<circle cx="138.2822" cy="109.2800" r="0.4000" /> 
</g>
<g style="fill:#000000; fill-opacity:1.0000; stroke:none;">
<circle cx="166.3122" cy="80.4700" r="0.4000" /> 
</g>
<g style="fill:#000000; fill-opacity:1.0000; stroke:none;">
<circle cx="125.7822" cy="87.2250" r="0.4000" /> 
</g>
<g style="fill:#000000; fill-opacity:1.0000; stroke:none;">
<circle cx="123.8422" cy="79.2300" r="0.4000" /> 
</g>
<g style="fill:#000000; fill-opacity:1.0000; stroke:none;">
<circle cx="126.5322" cy="96.3250" r="0.4000" /> 
</g>
<g style="fill:#000000; fill-opacity:1.0000; stroke:none;">
<circle cx="159.4422" cy="73.6000" r="0.4000" /> 
</g>
<g style="fill:#000000; fill-opacity:1.0000; stroke:none;">
<circle cx="116.6222" cy="112.6800" r="0.4000" /> 
</g>
<g style="fill:#000000; fill-opacity:1.0000; stroke:none;">
<circle cx="116.6022" cy="117.6500" r="0.4000" /> 
</g>
<g style="fill:#000000; fill-opacity:1.0000; stroke:none;">
<circle cx="173.4622" cy="116.3900" r="0.4000" /> 
</g>
<g style="fill:#000000; fill-opacity:1.0000; stroke:none;">
<circle cx="173.3122" cy="113.0900" r="0.4000" /> 
</g>
<g style="fill:#000000; fill-opacity:1.0000; stroke:none;">
<circle cx="126.6122" cy="103.6200" r="0.4000" /> 
</g>
<g style="fill:#000000; fill-opacity:1.0000; stroke:none;">
<circle cx="129.8322" cy="78.7500" r="0.5000" /> 
</g>
<g style="fill:#000000; fill-opacity:1.0000; stroke:none;">
<circle cx="175.1122" cy="100.1800" r="0.5000" /> 
</g>
<g style="fill:#000000; fill-opacity:1.0000; stroke:none;">
<circle cx="120.1522" cy="125.7800" r="0.4000" /> 
</g>
<g style="fill:#000000; fill-opacity:1.0000; stroke:none;">
<circle cx="120.1522" cy="105.7800" r="0.4000" /> 
</g>
<g style="fill:#000000; fill-opacity:1.0000; stroke:none;">
<circle cx="170.1522" cy="125.7800" r="0.4000" /> 
</g>
<g style="fill:#000000; fill-opacity:1.0000; stroke:none;">
<circle cx="170.1522" cy="105.7800" r="0.4000" /> 
</g>
<g style="fill:#000000; fill-opacity:1.0000; stroke:none;">
<circle cx="166.9122" cy="99.2200" r="0.5000" /> 
</g>
<g style="fill:#000000; fill-opacity:1.0000; stroke:none;">
<circle cx="164.3722" cy="99.2200" r="0.5000" /> 
</g>
<g style="fill:#000000; fill-opacity:1.0000; stroke:none;">
<circle cx="161.8322" cy="99.2200" r="0.5000" /> 
</g>
<g style="fill:#000000; fill-opacity:1.0000; stroke:none;">
<circle cx="159.2922" cy="99.2200" r="0.5000" /> 
</g>
<g style="fill:#000000; fill-opacity:1.0000; stroke:none;">
<circle cx="156.7522" cy="99.2200" r="0.5000" /> 
</g>
<g style="fill:#000000; fill-opacity:1.0000; stroke:none;">
<circle cx="154.2122" cy="99.2200" r="0.5000" /> 
</g>
<g style="fill:#000000; fill-opacity:1.0000; stroke:none;">
<circle cx="151.6722" cy="99.2200" r="0.5000" /> 
</g>
<g style="fill:#000000; fill-opacity:1.0000; stroke:none;">
<circle cx="149.1322" cy="99.2200" r="0.5000" /> 
</g>
<g style="fill:#000000; fill-opacity:1.0000; stroke:none;">
<circle cx="146.5922" cy="99.2200" r="0.5000" /> 
</g>
<g style="fill:#000000; fill-opacity:1.0000; stroke:none;">
<circle cx="144.0522" cy="99.2200" r="0.5000" /> 
</g>
<g style="fill:#000000; fill-opacity:1.0000; stroke:none;">
<circle cx="141.5122" cy="99.2200" r="0.5000" /> 
</g>
<g style="fill:#000000; fill-opacity:1.0000; stroke:none;">
<circle cx="138.9722" cy="99.2200" r="0.5000" /> 
</g>
<g style="fill:#000000; fill-opacity:1.0000; stroke:none;">
<circle cx="136.4322" cy="99.2200" r="0.5000" /> 
</g>
<g style="fill:#000000; fill-opacity:1.0000; stroke:none;">
<circle cx="133.8922" cy="99.2200" r="0.5000" /> 
</g>
<g style="fill:#000000; fill-opacity:1.0000; stroke:none;">
<circle cx="131.3522" cy="99.2200" r="0.5000" /> 
</g>
<g style="fill:#000000; fill-opacity:1.0000; stroke:none;">
<circle cx="131.3522" cy="83.9800" r="0.5000" /> 
</g>
<g style="fill:#000000; fill-opacity:1.0000; stroke:none;">
<circle cx="133.8922" cy="83.9800" r="0.5000" /> 
</g>
<g style="fill:#000000; fill-opacity:1.0000; stroke:none;">
<circle cx="136.4322" cy="83.9800" r="0.5000" /> 
</g>
<g style="fill:#000000; fill-opacity:1.0000; stroke:none;">
<circle cx="138.9722" cy="83.9800" r="0.5000" /> 
</g>
<g style="fill:#000000; fill-opacity:1.0000; stroke:none;">
<circle cx="141.5122" cy="83.9800" r="0.5000" /> 
</g>
<g style="fill:#000000; fill-opacity:1.0000; stroke:none;">
<circle cx="144.0522" cy="83.9800" r="0.5000" /> 
</g>
<g style="fill:#000000; fill-opacity:1.0000; stroke:none;">
<circle cx="146.5922" cy="83.9800" r="0.5000" /> 
</g>
<g style="fill:#000000; fill-opacity:1.0000; stroke:none;">
<circle cx="149.1322" cy="83.9800" r="0.5000" /> 
</g>
<g style="fill:#000000; fill-opacity:1.0000; stroke:none;">
<circle cx="151.6722" cy="83.9800" r="0.5000" /> 
</g>
<g style="fill:#000000; fill-opacity:1.0000; stroke:none;">
<circle cx="154.2122" cy="83.9800" r="0.5000" /> 
</g>
<g style="fill:#000000; fill-opacity:1.0000; stroke:none;">
<circle cx="156.7522" cy="83.9800" r="0.5000" /> 
</g>
<g style="fill:#000000; fill-opacity:1.0000; stroke:none;">
<circle cx="159.2922" cy="83.9800" r="0.5000" /> 
</g>
<g style="fill:#000000; fill-opacity:1.0000; stroke:none;">
<circle cx="161.8322" cy="83.9800" r="0.5000" /> 
</g>
<g style="fill:#000000; fill-opacity:1.0000; stroke:none;">
<circle cx="164.3722" cy="83.9800" r="0.5000" /> 
</g>
<g style="fill:#000000; fill-opacity:1.0000; stroke:none;">
<circle cx="166.9122" cy="83.9800" r="0.5000" /> 
</g>
<g style="fill:#000000; fill-opacity:1.0000; stroke:none;">
<circle cx="136.2622" cy="76.7800" r="0.5000" /> 
</g>
<g style="fill:#000000; fill-opacity:1.0000; stroke:none;">
<circle cx="138.8022" cy="76.7800" r="0.5000" /> 
</g>
<g style="fill:#000000; fill-opacity:1.0000; stroke:none;">
<circle cx="141.3422" cy="76.7800" r="0.5000" /> 
</g>
<g style="fill:#000000; fill-opacity:1.0000; stroke:none;">
<circle cx="143.8822" cy="76.7800" r="0.5000" /> 
</g>
<g style="fill:#000000; fill-opacity:1.0000; stroke:none;">
<circle cx="146.4222" cy="76.7800" r="0.5000" /> 
</g>
<g style="fill:#000000; fill-opacity:1.0000; stroke:none;">
<circle cx="148.9622" cy="76.7800" r="0.5000" /> 
</g>
<g style="fill:#000000; fill-opacity:1.0000; stroke:none;">
<circle cx="151.5022" cy="76.7800" r="0.5000" /> 
</g>
<g style="fill:#000000; fill-opacity:1.0000; stroke:none;">
<circle cx="154.0422" cy="76.7800" r="0.5000" /> 
</g>
<g style="fill:#000000; fill-opacity:1.0000; stroke:none;">
<circle cx="156.5822" cy="76.7800" r="0.5000" /> 
</g>
<g style="fill:#000000; fill-opacity:1.0000; stroke:none;">
<circle cx="159.1222" cy="76.7800" r="0.5000" /> 
</g>
<g style="fill:#000000; fill-opacity:1.0000; stroke:none;">
<circle cx="161.6622" cy="76.7800" r="0.5000" /> 
</g>
<g style="fill:#000000; fill-opacity:1.0000; stroke:none;">
<circle cx="155.3322" cy="107.3550" r="0.4000" /> 
</g>
<g style="fill:#000000; fill-opacity:1.0000; stroke:none;">
<circle cx="155.3322" cy="109.8950" r="0.5000" /> 
</g>
<g style="fill:#000000; fill-opacity:1.0000; stroke:none;">
<circle cx="155.3322" cy="112.4350" r="0.5000" /> 
</g>
<g style="fill:#000000; fill-opacity:1.0000; stroke:none;">
<circle cx="155.3322" cy="114.9750" r="0.5000" /> 
</g>
<g style="fill:#000000; fill-opacity:1.0000; stroke:none;">
<circle cx="155.3322" cy="117.5150" r="0.5000" /> 
</g>
<g style="fill:#000000; fill-opacity:1.0000; stroke:none;">
<circle cx="155.3322" cy="120.0550" r="0.5000" /> 
</g>
<g style="fill:#000000; fill-opacity:1.0000; stroke:none;">
<circle cx="155.3322" cy="122.5950" r="0.5000" /> 
</g>
<g style="fill:#000000; fill-opacity:1.0000; stroke:none;">
<circle cx="155.3322" cy="125.1350" r="0.5000" /> 
</g>
<g style="fill:#000000; fill-opacity:1.0000; stroke:none;">
<circle cx="147.7122" cy="125.1350" r="0.5000" /> 
</g>
<g style="fill:#000000; fill-opacity:1.0000; stroke:none;">
<circle cx="147.7122" cy="122.5950" r="0.5000" /> 
</g>
<g style="fill:#000000; fill-opacity:1.0000; stroke:none;">
<circle cx="147.7122" cy="120.0550" r="0.5000" /> 
</g>
<g style="fill:#000000; fill-opacity:1.0000; stroke:none;">
<circle cx="147.7122" cy="117.5150" r="0.5000" /> 
</g>
<g style="fill:#000000; fill-opacity:1.0000; stroke:none;">
<circle cx="147.7122" cy="114.9750" r="0.5000" /> 
</g>
<g style="fill:#000000; fill-opacity:1.0000; stroke:none;">
<circle cx="147.7122" cy="112.4350" r="0.5000" /> 
</g>
<g style="fill:#000000; fill-opacity:1.0000; stroke:none;">
<circle cx="147.7122" cy="109.8950" r="0.5000" /> 
</g>
<g style="fill:#000000; fill-opacity:1.0000; stroke:none;">
<circle cx="147.7122" cy="107.3550" r="0.5000" /> 
</g>
<g style="fill:#000000; fill-opacity:1.0000; stroke:none;">
<circle cx="140.7572" cy="108.9600" r="0.5500" /> 
</g>
<g style="fill:#000000; fill-opacity:1.0000; stroke:none;">
<circle cx="140.7572" cy="111.5000" r="0.5000" /> 
</g>
<g style="fill:#000000; fill-opacity:1.0000; stroke:none;">
<circle cx="140.7572" cy="114.0400" r="0.5000" /> 
</g>
<g style="fill:#000000; fill-opacity:1.0000; stroke:none;">
<circle cx="114.8522" cy="121.8900" r="0.5000" /> 
</g>
<g style="fill:#000000; fill-opacity:1.0000; stroke:none;">
<circle cx="114.8522" cy="124.4300" r="0.5000" /> 
</g>
<g style="fill:#000000; fill-opacity:1.0000; stroke:none;">
<circle cx="113.0322" cy="115.3700" r="0.5000" /> 
</g>
<g style="fill:#000000; fill-opacity:1.0000; stroke:none;">
<circle cx="113.0322" cy="112.8300" r="0.5000" /> 
</g>
<g style="fill:#000000; fill-opacity:1.0000; stroke:none;">
<circle cx="178.0497" cy="113.6000" r="0.5000" /> 
</g>
<g style="fill:#000000; fill-opacity:1.0000; stroke:none;">
<circle cx="178.0497" cy="116.1400" r="0.5000" /> 
</g> 
</svg>
